<svg id="圖層_2" data-name="圖層 2" xmlns="http://www.w3.org/2000/svg" viewBox="0 0 233 175">
  <defs>
    <style>
      .cls-1 {
        fill: #fff;
      }

      .cls-2 {
        fill: #52505a;
      }
    </style>
  </defs>
  <g>
    <rect class="cls-1" x="95.03" y="-0.75" width="1" height="176.5"/>
    <g>
      <circle class="cls-1" cx="95.53" cy="58.75" r="10"/>
      <circle class="cls-2" cx="95.53" cy="58.75" r="5"/>
    </g>
    <g>
      <circle class="cls-1" cx="95.53" cy="116.75" r="10"/>
      <circle class="cls-2" cx="95.53" cy="116.75" r="5"/>
    </g>
    <g>
      <path class="cls-1" d="M121.47,64.46a42.43,42.43,0,0,1-4.13,1.84l-.33-.91a.64.64,0,0,0,.22-.49V60.08H120V57.51h-3v-1h4.11v4.63h-2.77V64.8c1.24-.54,2.24-1,3-1.42Zm6,1.38-.55.91a8.94,8.94,0,0,1-2.7-1.91,10,10,0,0,1-2.88,1.85l-.68-.84a8.3,8.3,0,0,0,2.9-1.81,8.57,8.57,0,0,1-1.1-2.65l.93-.38a8.69,8.69,0,0,0,.85,2.18,9.22,9.22,0,0,0,1.05-4.34h-1.91a13.42,13.42,0,0,1-1.18,2.4l-.86-.55a11.41,11.41,0,0,0,1.58-4.62l1,.19c-.13.78-.22,1.3-.29,1.54h3.58v1h-.91a10.63,10.63,0,0,1-1.43,5.21A7.62,7.62,0,0,0,127.44,65.84Z"/>
      <path class="cls-1" d="M137.92,60.75h-2.76V62h2.35v3.43q0,.75-1,.75a4.8,4.8,0,0,1-.62,0l-.33-1h.71a.21.21,0,0,0,.14-.07.19.19,0,0,0,.08-.13V63h-1.31v3.69h-1.08V63h-1.35V66.1h-1V62h2.38V60.75h-2.85v-1h2.85V58.53h-1.53a7.73,7.73,0,0,1-.5.93l-.87-.62a9.45,9.45,0,0,0,1.11-2.59l1,.28a7,7,0,0,1-.32,1h1.13V56.16h1.08v1.37h2.51v1h-2.51v1.24h2.76Zm1.51,3.69h-1V57h1Zm2,1.37a.73.73,0,0,1-.35.59,4.59,4.59,0,0,1-2,.24l-.43-1.06.87,0a2.77,2.77,0,0,0,.7,0c.07,0,.1-.11.1-.23V56.16h1.08Z"/>
      <path class="cls-1" d="M156.05,64.84h-4.6v.74a1,1,0,0,1-.19.64.85.85,0,0,1-.47.32,4.14,4.14,0,0,1-1.07.09l-.82,0-.35-1h1.58c.15,0,.22-.06.22-.2v-.6H145.6V64h4.75v-.52A11.14,11.14,0,0,0,152,63h-4.45v-.77h6.38V63a18.81,18.81,0,0,1-2.49.91V64h4.6Zm-.18-1.76h-1V61.71h-8v1.35h-1.06V60.87h.74l-.21-4.31a8.09,8.09,0,0,0,2.33-.46l.5.84a9.84,9.84,0,0,1-1.78.36l0,.64H149v.78h-1.52l0,.68H149v.78H147.5l0,.69h6.61l0-.69h-1.62V59.4h1.66l0-.68h-1.69v-.78h1.71l0-.64h-1.83v-.83h2.87l-.19,4.4h.72Zm-3.64-6.62a4,4,0,0,1-.78.74c.19.17.37.35.54.53l-.64.56a4.24,4.24,0,0,0-.6-.6,9.15,9.15,0,0,1-1.21.61l-.51-.67a5.25,5.25,0,0,0,1-.48,5.84,5.84,0,0,0-.66-.5l.58-.58.8.57a3.5,3.5,0,0,0,.62-.56Zm.05,3.77-.63.56a6.08,6.08,0,0,0-.82-.77,11.59,11.59,0,0,1-1.22.67l-.5-.66a10,10,0,0,0,1-.55,4.61,4.61,0,0,0-.8-.54l.58-.59a10,10,0,0,1,.94.64,6.26,6.26,0,0,0,.67-.64l.73.43a7.07,7.07,0,0,1-.74.71A7.49,7.49,0,0,1,152.28,60.23Z"/>
      <path class="cls-1" d="M162.73,59.88a4.75,4.75,0,0,1,1,2.59,1.94,1.94,0,0,1-.32,1.2,1.58,1.58,0,0,1-1.3.43l-.31,0-.3-1,.39,0c.37,0,.6,0,.68-.14a.53.53,0,0,0,.12-.37,4.06,4.06,0,0,0-1-2.54,21.77,21.77,0,0,0,.87-2.71h-1.16V66.6h-1V56.31h3.28v1C163.32,58.2,163,59.07,162.73,59.88Zm7.73,4.4a3.18,3.18,0,0,1-.35,1.84,1.65,1.65,0,0,1-1.36.44,1.78,1.78,0,0,1-1-.22,1,1,0,0,1-.28-.79V62.34h-1a4.35,4.35,0,0,1-2.93,4.37l-.66-.87c1.7-.64,2.54-1.67,2.54-3.09a2.88,2.88,0,0,0,0-.41H164v-1h6.33v1h-1.8v3a.19.19,0,0,0,.22.21c.33,0,.53-.06.61-.18a4.47,4.47,0,0,0,.11-1.37Zm-.27-4.5h-1V58.3H165v1.48h-1V57.27h2.47a4,4,0,0,0-.44-1l1.09-.17a5.33,5.33,0,0,1,.48,1.18h2.61Zm-1.38.52h-3.43v-1h3.43Z"/>
    </g>
    <g>
      <path class="cls-1" d="M14.37,65q-.76,2.79-2.31,2.79a3.46,3.46,0,0,1-2.33-1.36,8.1,8.1,0,0,1-1.81-3.84H4.19v3.62c1.18-.24,2.42-.57,3.73-1L8,66.52a47.52,47.52,0,0,1-5.13,1.23l-.42-1.26a.57.57,0,0,0,.39-.58V55.84H13.09v3.91H8.92A10.34,10.34,0,0,0,9,61.37h4.93v1.22H9.25a6.56,6.56,0,0,0,1.3,2.79q.91,1.11,1.47,1.11a.55.55,0,0,0,.34-.11,2,2,0,0,0,.43-.71,7.23,7.23,0,0,0,.44-1.36Zm-2.58-6.48V57.07H4.19v1.45ZM7.73,61.37c-.06-.47-.11-1-.14-1.62H4.19v1.62Z"/>
      <path class="cls-1" d="M30.49,67.75H29.23v-.54H20.52v.54H19.29v-12h11.2Zm-1.26-1.63V56.83H20.52v9.29ZM25.05,64.2a30.86,30.86,0,0,1-4.12,1.25l-.14-1.12A26.85,26.85,0,0,0,25,63.14Zm4-.55c-.23,1.37-.71,2.06-1.46,2.06-.46,0-.87-.32-1.24-1a6.73,6.73,0,0,1-1.26,1.17l-.81-.8a11.14,11.14,0,0,0,1.59-1.57,19.31,19.31,0,0,1-.71-4.33H21v-1h4.1c0-.18,0-.53,0-1.08l1.15,0a6.71,6.71,0,0,0,0,1.1h1.58a5.19,5.19,0,0,0-1.21-.52l.68-.69a7.15,7.15,0,0,1,1.29.58l-.61.63h.78v1H26.32a14.71,14.71,0,0,0,.4,3,15.67,15.67,0,0,0,1.06-2.59l1,.46a12.24,12.24,0,0,1-1.64,3.66,1.52,1.52,0,0,0,.28.57c.11.14.19.2.23.2s.15-.13.25-.39a5,5,0,0,0,.26-1.21Zm-4.41-.74H21.31v-3h3.34Zm-1.15-1V61H22.44v1Z"/>
      <path class="cls-1" d="M37.51,61.48A2.69,2.69,0,0,1,35.63,59a2.36,2.36,0,0,1,.93-2,3.66,3.66,0,0,1,2.32-.74,3.42,3.42,0,0,1,2.17.69,2.23,2.23,0,0,1,.88,1.84,2.89,2.89,0,0,1-2,2.67v0a2.9,2.9,0,0,1,2.29,2.8,2.55,2.55,0,0,1-1,2.16,4.4,4.4,0,0,1-2.69.76,3.57,3.57,0,0,1-2.35-.77,2.5,2.5,0,0,1-.93-2,3.09,3.09,0,0,1,2.24-2.92Zm1.17.71c-1.22.49-1.84,1.21-1.84,2.14a1.47,1.47,0,0,0,.55,1.19,2.11,2.11,0,0,0,1.39.45,2.06,2.06,0,0,0,1.36-.44,1.45,1.45,0,0,0,.53-1.18C40.67,63.38,40,62.66,38.68,62.19ZM40.35,59a1.36,1.36,0,0,0-.42-1,1.6,1.6,0,0,0-1.13-.39,1.67,1.67,0,0,0-1.13.41,1.35,1.35,0,0,0-.46,1c0,.83.52,1.46,1.56,1.88C39.82,60.4,40.35,59.78,40.35,59Z"/>
      <path class="cls-1" d="M46.68,65.11a3.94,3.94,0,0,0,2.46.82,2.47,2.47,0,0,0,1.62-.49,1.64,1.64,0,0,0,.61-1.35c0-1.24-.91-1.86-2.72-1.86h-.9V60.94h.85c1.61,0,2.42-.58,2.42-1.75s-.61-1.62-1.85-1.62a3.45,3.45,0,0,0-2.09.73V56.87a4.89,4.89,0,0,1,2.47-.6,3.51,3.51,0,0,1,2.24.7,2.26,2.26,0,0,1,.87,1.87,2.55,2.55,0,0,1-2.12,2.66v0a2.85,2.85,0,0,1,1.8.81A2.35,2.35,0,0,1,53,64,2.82,2.82,0,0,1,52,66.36a4.32,4.32,0,0,1-2.79.86,4.93,4.93,0,0,1-2.48-.55Z"/>
      <path class="cls-1" d="M69.89,64.86H65.12v2.88H63.83V64.86H57.71V63.64h1.85V60.07h4.27V58H60.65a26,26,0,0,1-2.17,2.35l-.89-.92a14.48,14.48,0,0,0,3.23-4l1.29.25a4.88,4.88,0,0,1-.61,1.14h7.9V58H65.12v2.06h4v1.2h-4v2.37h4.77Zm-6.06-1.22V61.27h-3v2.37Z"/>
    </g>
    <g>
      <path class="cls-1" d="M122.08,113.25h-4.2v-1h1.61a6.16,6.16,0,0,0-.41-.9l1.07-.26a5.61,5.61,0,0,1,.49,1.16h1.44ZM121.8,115h-3.59v-1h3.59Zm0,1.72h-3.59v-.95h3.59Zm0,4.65h-1v-.48h-1.52v.77h-1V117.5h3.58Zm-1-1.45v-1.42h-1.52v1.42Zm7.74.83-.51,1a9.16,9.16,0,0,1-2.75-1.4,11,11,0,0,1-2.6,1.44l-.61-.91a7.62,7.62,0,0,0,2.45-1.24,8.16,8.16,0,0,1-1.52-2.47h-.54v-1h5.23v1a9.36,9.36,0,0,1-1.62,2.46A7.16,7.16,0,0,0,128.51,120.74Zm-.14-5.3h-1.56a.73.73,0,0,1-.54-.26.81.81,0,0,1-.24-.57v-2.14h-1.64v.73a3.23,3.23,0,0,1-.4,1.52,2.77,2.77,0,0,1-1.08,1.14l-.74-.74a2.28,2.28,0,0,0,1.17-2.22v-1.41h3.74v2.67a.25.25,0,0,0,.11.21.29.29,0,0,0,.21.1h1Zm-1.86,1.69h-2.39a6.38,6.38,0,0,0,1.16,1.77A6.58,6.58,0,0,0,126.51,117.13Z"/>
      <path class="cls-1" d="M137.24,113.21h-5v-.95h2a7.8,7.8,0,0,0-.45-1l1.12-.21a8.36,8.36,0,0,1,.53,1.18h1.81Zm-.56,1.78h-4v-1h4Zm0,1.73h-4v-1h4Zm0,4.77h-1v-.61h-1.87v.76h-1v-4.13h4Zm-1-1.56V118.5h-1.87v1.43Zm7.06-4.4h-2.18v6.11h-1.09v-6.11h-2.14v-1h2.14v-3.3h1.09v3.3h2.18Z"/>
      <path class="cls-1" d="M148.13,119a8.57,8.57,0,0,1-.64,2.66l-1-.49a8.69,8.69,0,0,0,.61-2.41Zm3.15-1.05-.91.39a4.25,4.25,0,0,0-.17-.63,27.63,27.63,0,0,1-3.29.82l-.28-.95a10.43,10.43,0,0,0,2.25-2.44c-.57.09-1.22.19-1.95.28l-.2-.86a10.19,10.19,0,0,0,2.15-3.51l1.11.35a12.77,12.77,0,0,1-1.69,2.83,9.59,9.59,0,0,0,1.29-.2c.23-.35.46-.75.69-1.19l1,.5a17,17,0,0,1-2.76,3.82,10.46,10.46,0,0,0,1.41-.36c-.05-.16-.11-.33-.19-.52l.9-.34A17.27,17.27,0,0,1,151.28,118Zm-1.63,3.17-1,.24a9.63,9.63,0,0,0-.25-2.43l.89-.18A11.69,11.69,0,0,1,149.65,121.16Zm1.44-1.13-.85.34a10.06,10.06,0,0,0-.46-1.56l.8-.28A12.75,12.75,0,0,1,151.09,120Zm6,1.36h-6.14v-1h.62V111.5h4.83v8.88h.69Zm-1.76-7.06v-1.81h-2.68v1.81Zm0,2.91v-1.88h-2.68v1.88Zm0,3.14v-2.16h-2.68v2.16Z"/>
      <path class="cls-1" d="M171,117c0,.87-.07,1.65-.13,2.35a6.78,6.78,0,0,1-.2,1.33,1.46,1.46,0,0,1-.35.51,1.47,1.47,0,0,1-.55.33,4.15,4.15,0,0,1-1,.1l-1.53,0-.34-1.06c.86,0,1.63,0,2.31,0a.61.61,0,0,0,.37-.14c.11-.09.2-.44.25-1.07s.09-1.07.09-1.34h-3.54c-.54,1.91-2.15,3.12-4.83,3.65l-.55-1q3.76-.8,4.25-2.68h-4.06v-1h4.26a7.92,7.92,0,0,0,.1-1.29h-3.34v-4.37h8v4.37h-3.61l-.11,1.29Zm-1.87-2.32V112.4h-5.87v2.32Z"/>
      <path class="cls-1" d="M178.87,111.33a8.19,8.19,0,0,1-1.06,2,12.44,12.44,0,0,1,.67,4.73,13.25,13.25,0,0,1-.16,2.16,1.73,1.73,0,0,1-.56,1.17,3.46,3.46,0,0,1-1.71.27l-.33-1c.31,0,.55,0,.75,0a1.18,1.18,0,0,0,.54-.07.62.62,0,0,0,.22-.21,2.85,2.85,0,0,0,.18-1c.05-.57.08-1.13.08-1.67,0-.3,0-.56,0-.77a11.5,11.5,0,0,1-1.7,2l-.56-.95a9.38,9.38,0,0,0,2.14-2.58,5.34,5.34,0,0,0-.25-1.09,6.74,6.74,0,0,1-1.44,1.2l-.45-.93a6.07,6.07,0,0,0,1.46-1.32,7,7,0,0,0-1.31-1.59l.84-.56a10.9,10.9,0,0,1,1.07,1.25,8.46,8.46,0,0,0,.67-1.33Zm6.72,3.52c0,1.06,0,2.3-.06,3.74a14.39,14.39,0,0,1-.16,2.4,1.22,1.22,0,0,1-.37.47,2.17,2.17,0,0,1-1.24.23,4.12,4.12,0,0,1-.51,0l-.22-1h.59a1.8,1.8,0,0,0,.73-.07.46.46,0,0,0,.13-.2c0-.09.05-.66.07-1.71s0-2,0-3h-4.15c-.31.37-.6.69-.85,1h1.6v-.59h1v.59h1.71v2.21h-1.71v.7a3,3,0,0,0,.54-.09l-.13-.22.83-.29a7.49,7.49,0,0,1,.75,1.29l-.84.28a1.13,1.13,0,0,0-.13-.27c-1.59.31-3,.53-4.15.68l-.22-.92c1-.11,1.81-.2,2.34-.29v-.87h-1.7v-2.11c-.18.17-.31.3-.41.38l-.47-1a7.16,7.16,0,0,0,1.65-2.09h-1.12v-2.75h6.29v2.75H180.5l.71.35a1.29,1.29,0,0,1-.19.37ZM181,113.27v-1h-.82v1Zm.22,4.85v-.58h-.73v.58Zm1.52-4.85v-1h-.8v1Zm.26,4.85v-.58h-.77v.58Zm1.43-4.85v-1h-.72v1Z"/>
      <path class="cls-1" d="M199.9,116.9a28.39,28.39,0,0,1-.19,3.32,1.73,1.73,0,0,1-.52,1.13,2.15,2.15,0,0,1-1.23.27c-.26,0-.5,0-.71,0l-.3-1c.14,0,.56,0,1.26,0a.39.39,0,0,0,.37-.22,15.47,15.47,0,0,0,.22-2.44H192a6.79,6.79,0,0,1-1.79,1.78l-.7-.85a9.29,9.29,0,0,0,3.37-5.07h-3v-1h1.82a6.34,6.34,0,0,0-1.11-1l.83-.66a5.53,5.53,0,0,1,1.17,1.11l-.72.6h1.25c.14-.59.26-1.16.34-1.71l1.06.2c-.09.56-.19,1.07-.3,1.51h4.56c-.13.73-.27,1.41-.44,2.06h1c-.07.55-.19,1.24-.36,2.09ZM193,118.64a10.85,10.85,0,0,1-1.27,3l-.89-.55a13.85,13.85,0,0,0,1.2-2.78Zm5.17-2.84h-4.83c-.16.34-.35.7-.58,1.1H198Zm-3.38,5.48-1,.21a12.09,12.09,0,0,0-.33-2.85l1-.11A12.25,12.25,0,0,1,194.78,121.28Zm2.73-7.51H194a8.22,8.22,0,0,1-.33,1h3.57C197.36,114.5,197.43,114.15,197.51,113.77Zm-.84,7-1,.32a12.59,12.59,0,0,0-.58-2.45l1-.17A10.69,10.69,0,0,1,196.67,120.77Zm1.62-.71-1,.34a8.49,8.49,0,0,0-.62-1.86l1-.28A9,9,0,0,1,198.29,120.06Z"/>
      <path class="cls-1" d="M208.41,117.68l-.74.81a10.52,10.52,0,0,0-1-1.39v4.54h-1v-4c-.55.5-.92.82-1.12,1l-.58-.95a8,8,0,0,0,2.84-3.44h-2.66v-1h3.79v1A11.16,11.16,0,0,1,207,116,18.49,18.49,0,0,1,208.41,117.68ZM207,112.57l-1,.46a8,8,0,0,0-1.06-1.45l.93-.52A7.59,7.59,0,0,1,207,112.57Zm7.6,6.85a3.33,3.33,0,0,1-.4,1.78,1.85,1.85,0,0,1-1.38.37c-.88,0-1.32-.33-1.32-1v-2.42h-.77A4.14,4.14,0,0,1,208,121.8l-.62-.89a3.22,3.22,0,0,0,2.32-2.76h-1.13v-6.68h5.23v6.68h-1.27v2.1c0,.24.15.36.46.36a.48.48,0,0,0,.43-.19,4.44,4.44,0,0,0,.2-1.42Zm-1.84-6.07v-1h-3.15v1Zm0,1.92v-1h-3.15v1Zm0,1.94v-1h-3.15v1Z"/>
      <path class="cls-1" d="M228.87,120a2.62,2.62,0,0,1-.17,1,.93.93,0,0,1-.44.49,1.32,1.32,0,0,1-.46.17h-1.22a15.46,15.46,0,0,1-1.63,0,.8.8,0,0,1-.49-.29.88.88,0,0,1-.2-.59v-.55h-1.14a2.73,2.73,0,0,1-1.44,1.2,10.5,10.5,0,0,1-3,.39l-.34-.94c1.86.06,3-.16,3.58-.65h-1.61v-3.7H227v3.7h-1.7v.35a.26.26,0,0,0,.16.26,6.15,6.15,0,0,0,1.21.06,3.5,3.5,0,0,0,1-.08.52.52,0,0,0,.22-.34,3.47,3.47,0,0,0,.06-.74Zm-.13-2.63h-1V116h-8.15v1.36h-1v-2.19h.76l-.24-3.51a8.06,8.06,0,0,0,2.46-.58l.41.75a8,8,0,0,1-1.81.46l0,.44h1.59v.68h-1.53v.51h1.52v.69h-1.46l0,.56h6.63l.05-.56h-1.5v-.69H227l0-.51h-1.57v-.68h1.58l0-.52h-1.74v-.78h2.8l-.2,3.74h.79Zm-2.79.18v-.45h-4.59v.45Zm0,1v-.44h-4.59v.44Zm0,1V119h-4.59v.48Zm-.86-5.9a6.83,6.83,0,0,1-.72.5,6.87,6.87,0,0,1,.69.48l-.54.52a6.12,6.12,0,0,0-.89-.57l-1.24.48-.45-.59a6,6,0,0,0,.86-.31,4.19,4.19,0,0,0-.71-.33l.5-.52a9.54,9.54,0,0,1,1,.46,5.26,5.26,0,0,0,1-.62Zm.06-2.07a6.34,6.34,0,0,1-.7.55,5.63,5.63,0,0,1,.55.37l-.47.53c-.36-.22-.62-.38-.78-.46a11.09,11.09,0,0,1-1.34.6l-.44-.63a4.83,4.83,0,0,0,.95-.38,3.82,3.82,0,0,0-.72-.31l.45-.57c.44.18.78.33,1,.46a6,6,0,0,0,.87-.6Z"/>
      <path class="cls-1" d="M120.56,132.38l-.68,2.4v7.84h-1v-5.57c-.17.28-.37.57-.6.88l-.49-1.2a13.71,13.71,0,0,0,1.77-4.64Zm7.81,8.17H127v1a1.11,1.11,0,0,1-.15.58.81.81,0,0,1-.41.35,3,3,0,0,1-.9.09h-.62l-.4-1,.56,0a3.58,3.58,0,0,0,.71,0,.18.18,0,0,0,.16-.19v-.79h-5.47v-.87h5.47v-.41h1v.41h1.42Zm.11-1.63-.85.43-.33-.4c-2.72.16-4.92.26-6.61.28l-.2-.91c1.09,0,2.21,0,3.37,0v-.65h-3v-3.5h3v-.5h-3.23v-.89h3.23v-.6h1v.6h3.36v.89h-3.36v.5h2.93v3.5h-.46A7.15,7.15,0,0,1,128.48,138.92Zm-4.36,2.81-.69.74a7.75,7.75,0,0,0-1.91-1l.71-.76A9,9,0,0,1,124.12,141.73Zm-.26-6.25V135h-2v.52Zm0,1.33v-.52h-2v.52Zm2.93-1.33V135h-1.92v.52Zm0,1.33v-.52h-1.92v.52Zm.1.81h-2v.59c.81,0,1.35,0,1.64-.07a2.6,2.6,0,0,0-.27-.24Z"/>
      <path class="cls-1" d="M142.77,141.49l-.36,1c-1.38,0-2.8,0-4.27,0a5.52,5.52,0,0,1-4-1.21,12.36,12.36,0,0,1-1.17,1.47l-.85-.68a7.69,7.69,0,0,0,2-3.45h-1.75v-1a13.57,13.57,0,0,0,1.54-2.07h-1.74v-.95h3v.95a19.36,19.36,0,0,1-1.49,2.12h1.55v1a15.38,15.38,0,0,1-.65,1.78,2.85,2.85,0,0,0,1.05.74,4.41,4.41,0,0,0,1.31.32c.46.05,1.28.07,2.47.07S141.65,141.53,142.77,141.49Zm-7.62-7.9-.77.73a9.29,9.29,0,0,0-1.88-1.54l.73-.76A11,11,0,0,1,135.15,133.59Zm7.58,6.75h-3v1h-1.08v-1h-3.09v-.91h3.09v-.61H136V138h2.61v-.62h-2.85v-.89h1.59a7.21,7.21,0,0,0-.43-.91H135.6v-.9h3v-.77h-2.74V133h2.74v-.81h1V133h2.65v.89h-2.65v.77h3.05v.9h-1.29a7.8,7.8,0,0,1-.43.91h1.49v.89H139.7V138h2.55v.85H139.7v.61h3Zm-2.43-4.79H138a9.58,9.58,0,0,1,.41.91h1.46A8.47,8.47,0,0,0,140.3,135.55Z"/>
      <path class="cls-1" d="M150.79,134.25h-4.2v-1h1.61a7.44,7.44,0,0,0-.41-.9l1.06-.26a6.18,6.18,0,0,1,.5,1.16h1.44ZM150.5,136h-3.59v-1h3.59Zm0,1.72h-3.59v-1h3.59Zm0,4.65h-1v-.48H148v.77h-1V138.5h3.57Zm-1-1.45v-1.42H148v1.42Zm7.74.83-.5,1a9,9,0,0,1-2.75-1.4,10.87,10.87,0,0,1-2.61,1.44l-.61-.91a7.51,7.51,0,0,0,2.45-1.24,8.13,8.13,0,0,1-1.51-2.47h-.55v-1h5.24v1a9.88,9.88,0,0,1-1.62,2.46A7.19,7.19,0,0,0,157.21,141.74Zm-.13-5.3h-1.56a.73.73,0,0,1-.54-.26.81.81,0,0,1-.24-.57v-2.14h-1.65v.73a3.21,3.21,0,0,1-.39,1.52,2.85,2.85,0,0,1-1.09,1.14l-.74-.74a2.27,2.27,0,0,0,1.18-2.22v-1.41h3.73v2.67a.28.28,0,0,0,.11.21.33.33,0,0,0,.21.1h1Zm-1.86,1.69h-2.39A6.16,6.16,0,0,0,154,139.9,6.59,6.59,0,0,0,155.22,138.13Z"/>
      <path class="cls-1" d="M165.94,134.21h-5v-1h2a9.53,9.53,0,0,0-.44-1l1.11-.21a7.36,7.36,0,0,1,.53,1.18h1.81Zm-.56,1.78h-4v-1h4Zm0,1.73h-4v-.95h4Zm0,4.77h-1v-.61H162.5v.76h-1.06v-4.13h4Zm-1-1.56V139.5H162.5v1.43Zm7.07-4.4h-2.19v6.11h-1.09v-6.11H166v-1.05h2.14v-3.3h1.09v3.3h2.19Z"/>
      <path class="cls-1" d="M185.76,140.84h-4.61v.74a1,1,0,0,1-.18.64.89.89,0,0,1-.47.32,4.19,4.19,0,0,1-1.07.09l-.83,0-.34-1h1.58c.14,0,.21-.06.21-.2v-.6H175.3V140h4.75v-.52a10.82,10.82,0,0,0,1.66-.46h-4.45v-.77h6.39V139a19.56,19.56,0,0,1-2.5.91V140h4.61Zm-.19-1.76h-1v-1.37h-8v1.35h-1.07v-2.19h.75l-.22-4.31a8.09,8.09,0,0,0,2.34-.46l.49.84a9.84,9.84,0,0,1-1.78.36l0,.64h1.56v.78h-1.52l0,.68h1.5v.78H177.2l0,.69h6.61l0-.69h-1.62v-.78h1.66l0-.68h-1.7v-.78H184l0-.64h-1.83v-.83h2.88l-.2,4.4h.72Zm-3.64-6.62a4,4,0,0,1-.78.74,5.43,5.43,0,0,1,.54.53l-.64.56a4.24,4.24,0,0,0-.6-.6,8.58,8.58,0,0,1-1.21.61l-.5-.67a5.86,5.86,0,0,0,1-.48,5.34,5.34,0,0,0-.67-.5l.58-.58.81.57a3.5,3.5,0,0,0,.62-.56Zm.06,3.77-.64.56a5.53,5.53,0,0,0-.81-.77,10.78,10.78,0,0,1-1.23.67l-.49-.66a10,10,0,0,0,1-.55,4.49,4.49,0,0,0-.79-.54l.58-.59c.21.12.52.34.93.64a5.4,5.4,0,0,0,.67-.64l.74.43a6.3,6.3,0,0,1-.75.71A8.85,8.85,0,0,1,182,136.23Z"/>
      <path class="cls-1" d="M193.57,140.24a12.83,12.83,0,0,1-3.3,1.87l-.64-.86a12,12,0,0,0,3.14-1.69Zm6.4-1.16-.89.63c-.28-.39-.5-.68-.67-.87-1.12.14-2.11.24-2.95.29v2.45a.89.89,0,0,1-.29.77,3.58,3.58,0,0,1-1.9.29l-.42-1.07c.43,0,.84.05,1.22.05.22,0,.32-.1.32-.31v-2.08c-1.64.09-2.85.13-3.65.15l-.25-.92A19.15,19.15,0,0,0,194,137c-1.41.07-2.4.1-3,.1l-.17-.78a11.74,11.74,0,0,0,4.4-2.49l1,.56a10.55,10.55,0,0,1-2.92,1.79l.95-.05,1.45-.11a5.07,5.07,0,0,0,.8-.51l.83-.62.94.65a21.67,21.67,0,0,1-5.3,2.87c1.39-.06,2.94-.19,4.64-.41-.21-.21-.44-.44-.71-.68l.95-.54A14.88,14.88,0,0,1,200,139.08Zm-3.68-6.43a13.63,13.63,0,0,1-5.06,2.35l-.61-.92a12.32,12.32,0,0,0,4.77-2Zm3.94,8.73-.72.81a14.87,14.87,0,0,0-3.16-2l.75-.75A18.21,18.21,0,0,1,200.23,141.38Z"/>
    </g>
    <g>
      <path class="cls-1" d="M15.37,120q-.76,2.79-2.31,2.79a3.46,3.46,0,0,1-2.33-1.36,8.1,8.1,0,0,1-1.81-3.84H5.19v3.62c1.18-.24,2.42-.57,3.73-1L9,121.52a47.52,47.52,0,0,1-5.13,1.23l-.42-1.26a.57.57,0,0,0,.39-.58V110.84H14.09v3.91H9.92a10.34,10.34,0,0,0,.09,1.62h4.93v1.22H10.25a6.56,6.56,0,0,0,1.3,2.79q.91,1.11,1.47,1.11a.55.55,0,0,0,.34-.11,2,2,0,0,0,.43-.71,7.23,7.23,0,0,0,.44-1.36Zm-2.58-6.48v-1.45H5.19v1.45Zm-4.06,2.85c-.06-.47-.11-1-.14-1.62H5.19v1.62Z"/>
      <path class="cls-1" d="M31.49,122.75H30.23v-.54H21.52v.54H20.29v-12h11.2Zm-1.26-1.63v-9.29H21.52v9.29Zm-4.18-1.92a30.86,30.86,0,0,1-4.12,1.25l-.14-1.12a26.85,26.85,0,0,0,4.2-1.19Zm4-.55c-.23,1.37-.71,2.06-1.46,2.06-.46,0-.87-.32-1.24-1a6.73,6.73,0,0,1-1.26,1.17l-.81-.8a11.14,11.14,0,0,0,1.59-1.57,19.31,19.31,0,0,1-.71-4.33H22v-1h4.1c0-.18,0-.53,0-1.08l1.15,0a6.71,6.71,0,0,0,0,1.1h1.58a5.19,5.19,0,0,0-1.21-.52l.68-.69a7.15,7.15,0,0,1,1.29.58l-.61.63h.78v1H27.32a14.71,14.71,0,0,0,.4,3,15.67,15.67,0,0,0,1.06-2.59l1,.46a12.24,12.24,0,0,1-1.64,3.66,1.52,1.52,0,0,0,.28.57c.11.14.19.2.23.2s.15-.13.25-.39a5,5,0,0,0,.26-1.21Zm-4.41-.74H22.31v-3h3.34Zm-1.15-1v-1H23.44v1Z"/>
      <path class="cls-1" d="M38.51,116.48A2.69,2.69,0,0,1,36.63,114a2.36,2.36,0,0,1,.93-1.95,3.66,3.66,0,0,1,2.32-.74,3.42,3.42,0,0,1,2.17.69,2.23,2.23,0,0,1,.88,1.84,2.89,2.89,0,0,1-2,2.67v0a2.9,2.9,0,0,1,2.29,2.8,2.55,2.55,0,0,1-1,2.16,4.4,4.4,0,0,1-2.69.76,3.57,3.57,0,0,1-2.35-.77,2.5,2.5,0,0,1-.93-2,3.09,3.09,0,0,1,2.24-2.92Zm1.17.71c-1.22.49-1.84,1.2-1.84,2.14a1.47,1.47,0,0,0,.55,1.19,2.11,2.11,0,0,0,1.39.45,2.06,2.06,0,0,0,1.36-.44,1.45,1.45,0,0,0,.53-1.18C41.67,118.38,41,117.66,39.68,117.19ZM41.35,114a1.36,1.36,0,0,0-.42-1,1.6,1.6,0,0,0-1.13-.39,1.67,1.67,0,0,0-1.13.41,1.34,1.34,0,0,0-.46,1c0,.83.52,1.46,1.56,1.88C40.82,115.4,41.35,114.78,41.35,114Z"/>
      <path class="cls-1" d="M47.9,120.41a3.69,3.69,0,0,0,1.92.52A2.47,2.47,0,0,0,52,119.88a5.08,5.08,0,0,0,.74-2.95s0,0,0,0a2.42,2.42,0,0,1-2.29,1.25,2.87,2.87,0,0,1-2.2-.94,3.37,3.37,0,0,1-.86-2.35,3.57,3.57,0,0,1,1-2.59,3.36,3.36,0,0,1,2.54-1,3,3,0,0,1,2.56,1.28,6.17,6.17,0,0,1,.9,3.61,7.59,7.59,0,0,1-1.14,4.45,3.77,3.77,0,0,1-3.27,1.61,4.83,4.83,0,0,1-2-.37Zm1-5.7a2.38,2.38,0,0,0,.5,1.57,1.77,1.77,0,0,0,1.39.58,1.73,1.73,0,0,0,1.29-.53,1.79,1.79,0,0,0,.52-1.31,2.93,2.93,0,0,0-.51-1.74,1.68,1.68,0,0,0-2.68-.09A2.31,2.31,0,0,0,48.92,114.71Z"/>
      <path class="cls-1" d="M70.89,119.86H66.12v2.88H64.83v-2.88H58.71v-1.22h1.85v-3.57h4.27V113H61.65a26,26,0,0,1-2.17,2.35l-.89-.92a14.48,14.48,0,0,0,3.23-4l1.29.25a4.88,4.88,0,0,1-.61,1.14h7.9V113H66.12v2.06h4v1.2h-4v2.37h4.77Zm-6.06-1.22v-2.37h-3v2.37Z"/>
    </g>
  </g>
</svg>
