<svg id="圖層_2" data-name="圖層 2" xmlns="http://www.w3.org/2000/svg" viewBox="0 0 278 306">
  <defs>
    <style>
      .cls-1 {
        fill: #fff;
      }

      .cls-2 {
        fill: #52505a;
      }
    </style>
  </defs>
  <g>
    <rect class="cls-1" x="97.29" y="-0.25" width="1" height="306.5"/>
    <g>
      <circle class="cls-1" cx="97.79" cy="59.25" r="10"/>
      <circle class="cls-2" cx="97.79" cy="59.25" r="5"/>
    </g>
    <g>
      <circle class="cls-1" cx="97.79" cy="114.25" r="10"/>
      <circle class="cls-2" cx="97.79" cy="114.25" r="5"/>
    </g>
    <g>
      <circle class="cls-1" cx="97.79" cy="169.25" r="10"/>
      <circle class="cls-2" cx="97.79" cy="169.25" r="5"/>
    </g>
    <g>
      <circle class="cls-1" cx="97.91" cy="224.25" r="10"/>
      <circle class="cls-2" cx="97.91" cy="224.25" r="5"/>
    </g>
    <g>
      <path class="cls-1" d="M133.31,54.78l-.62.87a14.84,14.84,0,0,0-1.31-1v.69h-2.86v-.47a11.65,11.65,0,0,1-1.83,1.1l-.64-.88a9.48,9.48,0,0,0,3.46-2.55l1.11.23a.73.73,0,0,1-.16.23A18.92,18.92,0,0,1,133.31,54.78Zm-.77,8.37h-1v-.46H129v.46h-1V60.74a4.71,4.71,0,0,1-1.11,2.52l-.81-.71a5,5,0,0,0,1-3.32V55.82h5.4v3.6h-4.38c0,.14,0,.32,0,.55h4.42Zm-1.07-5.91v-.55h-3.32v.55Zm0,1.33V58h-3.32v.54Zm-.32-4a12.21,12.21,0,0,0-1.35-.77,7.85,7.85,0,0,1-.84.77Zm.39,7.3v-1H129v1Zm4.79.4A.79.79,0,0,1,136,63a3.34,3.34,0,0,1-1.52.22c-.23,0-.48,0-.74,0l-.33-1c.37,0,.71.05,1,.05a1.91,1.91,0,0,0,.77-.09.37.37,0,0,0,.14-.31V52.65h1ZM134.52,61h-1V53.54h1Z"/>
      <path class="cls-1" d="M150.94,62.83H140.51V61.76h3a27,27,0,0,0-1.5-5.53l.83-.58h-1.95V54.57h4.35a9.36,9.36,0,0,0-.79-1.67l1.15-.39a13.56,13.56,0,0,1,.91,2.06h4.08v1.08h-2.14l.88.57a31.09,31.09,0,0,1-1.43,5.54h3Zm-2.59-7.18h-5.29a33.12,33.12,0,0,1,1.6,6.11h2.12A32.59,32.59,0,0,0,148.35,55.65Z"/>
      <path class="cls-1" d="M165.31,62.85H154.85v-1h2.48l.9-4.36h-2.39V56.38h2.58l.49-2.37h-3.62V53h9.58v1h-4.82l-.49,2.37h4.08v5.44h1.67Zm-2.78-1V57.46h-3.17l-.86,4.36Z"/>
      <path class="cls-1" d="M179.69,61h-2.37v1a1.2,1.2,0,0,1-.27.79,1.46,1.46,0,0,1-1.13.32l-1.1,0-.28-1c.8,0,1.29,0,1.46,0a.24.24,0,0,0,.25-.26V61h-7v-.86h7v-.37h1.07v.37h2.37Zm-.12-1.54-.89.51a5.52,5.52,0,0,0-.51-.59q-5.05.29-8.4.24l-.27-.85,2,0q1.5,0,2.43,0v-.64h-3.67V54.64h3.67v-.56h-4.56v-.83h4.56v-.59h1v.59h4.49v.83H175v.56h3.71v3.47h-.31C178.81,58.57,179.21,59,179.57,59.45Zm-5.63,2.79-.81.75a11.91,11.91,0,0,0-1.86-1.09l.8-.74A11.24,11.24,0,0,1,173.94,62.24Zm0-6.21v-.59h-2.62V56Zm0,1.26v-.54h-2.62v.54Zm3.7-1.26v-.59H175V56Zm0,1.26v-.54H175v.54Zm0,.82H175v.6c1.1,0,1.91-.08,2.43-.14a1.88,1.88,0,0,0-.22-.24Z"/>
    </g>
    <g>
      <path class="cls-1" d="M22.63,62.5q-.76,2.79-2.31,2.79A3.46,3.46,0,0,1,18,63.93a8.1,8.1,0,0,1-1.81-3.84H12.45v3.62c1.18-.24,2.42-.57,3.73-1L16.3,64a47.52,47.52,0,0,1-5.13,1.23L10.75,64a.57.57,0,0,0,.39-.58V53.34H21.35v3.91H17.18a9.25,9.25,0,0,0,.09,1.62H22.2v1.22H17.51a6.56,6.56,0,0,0,1.3,2.79Q19.73,64,20.28,64a.55.55,0,0,0,.34-.11,1.9,1.9,0,0,0,.42-.71,6.58,6.58,0,0,0,.45-1.36ZM20.05,56V54.57h-7.6V56ZM16,58.87c-.06-.47-.11-1-.14-1.62h-3.4v1.62Z"/>
      <path class="cls-1" d="M38.75,65.25H37.49v-.54H28.78v.54H27.55v-12h11.2Zm-1.26-1.63V54.33H28.78v9.29ZM33.31,61.7A30.86,30.86,0,0,1,29.19,63l-.14-1.12a26.85,26.85,0,0,0,4.2-1.19Zm4-.55c-.23,1.37-.71,2.06-1.46,2.06-.46,0-.87-.32-1.24-1a6.73,6.73,0,0,1-1.26,1.17l-.81-.8A10.61,10.61,0,0,0,34.13,61a20,20,0,0,1-.7-4.33H29.26v-1h4.1c0-.18,0-.53,0-1.08l1.15,0a6.71,6.71,0,0,0,0,1.1h1.58a5.19,5.19,0,0,0-1.21-.52l.68-.69a7.15,7.15,0,0,1,1.29.58l-.61.63h.78v1H34.58a14.71,14.71,0,0,0,.4,3A15.67,15.67,0,0,0,36,57.09l1,.46a12.24,12.24,0,0,1-1.64,3.66,1.52,1.52,0,0,0,.28.57c.11.14.19.2.23.2s.15-.13.25-.39a5,5,0,0,0,.26-1.21Zm-4.41-.74H29.57v-3h3.34Zm-1.15-1v-1H30.7v1Z"/>
      <path class="cls-1" d="M50.71,61.93H49.38v2.61H47.86V61.93H43v-1L47.63,54h1.75v6.76h1.33Zm-2.85-1.22V56.56c0-.31,0-.66,0-1.06h0a7,7,0,0,1-.41.82l-2.91,4.39Z"/>
      <path class="cls-1" d="M61,55.5a3.58,3.58,0,0,0-1.73-.43,2.47,2.47,0,0,0-2.16,1.16,5.08,5.08,0,0,0-.78,3h0a2.49,2.49,0,0,1,2.35-1.36,2.79,2.79,0,0,1,2.18.9,3.47,3.47,0,0,1,.8,2.37,3.61,3.61,0,0,1-1,2.57,3.29,3.29,0,0,1-2.48,1,3,3,0,0,1-2.63-1.3,6.07,6.07,0,0,1-.92-3.56,7.54,7.54,0,0,1,1.19-4.39,3.81,3.81,0,0,1,3.31-1.7,4.25,4.25,0,0,1,1.8.31Zm-4.6,5.57a2.69,2.69,0,0,0,.52,1.68,1.65,1.65,0,0,0,1.36.68,1.55,1.55,0,0,0,1.31-.62,2.39,2.39,0,0,0,.49-1.54,2.51,2.51,0,0,0-.46-1.59,1.89,1.89,0,0,0-2.68,0A1.9,1.9,0,0,0,56.41,61.07Z"/>
      <path class="cls-1" d="M78.15,62.36H73.38v2.88H72.09V62.36H66V61.14h1.85V57.57h4.27V55.51H68.91a26,26,0,0,1-2.17,2.35l-.89-.92a14.48,14.48,0,0,0,3.23-4l1.29.25a4.88,4.88,0,0,1-.61,1.14h7.9v1.2H73.38v2.06h4v1.2h-4v2.37h4.77Zm-6.06-1.22V58.77h-3v2.37Z"/>
    </g>
    <g>
      <path class="cls-1" d="M131.73,116a42.43,42.43,0,0,1-4.13,1.84l-.33-.91a.64.64,0,0,0,.22-.49v-4.82h2.76V109h-3v-1h4.11v4.63h-2.77v3.69c1.24-.54,2.24-1,3-1.42Zm6,1.38-.55.91a8.94,8.94,0,0,1-2.7-1.91,10.14,10.14,0,0,1-2.88,1.85l-.68-.84a8.3,8.3,0,0,0,2.9-1.81,8.57,8.57,0,0,1-1.1-2.65l.93-.38a8.69,8.69,0,0,0,.85,2.18,9.22,9.22,0,0,0,1.05-4.34h-1.91a13.42,13.42,0,0,1-1.18,2.4l-.86-.55a11.41,11.41,0,0,0,1.58-4.62l1,.19c-.13.78-.22,1.3-.29,1.54h3.58v1h-.91a10.63,10.63,0,0,1-1.43,5.21A7.52,7.52,0,0,0,137.7,117.34Z"/>
      <path class="cls-1" d="M152,117.84H141.52v-1.09H152Zm-.5-8.78H142.1V108h9.37Zm-.57,4.22h-8.3v-1.09h8.3Z"/>
      <path class="cls-1" d="M166.33,116H164v1a1.2,1.2,0,0,1-.27.79,1.48,1.48,0,0,1-1.13.32l-1.11,0-.27-1c.8,0,1.29,0,1.46,0a.24.24,0,0,0,.25-.26V116h-7v-.86h7v-.37H164v.37h2.36Zm-.11-1.54-.89.51a7,7,0,0,0-.51-.59q-5.06.28-8.4.24l-.28-.85,2,0c1,0,1.81,0,2.42,0v-.64h-3.66v-3.47h3.66v-.56H156v-.83h4.55v-.59h1v.59h4.48v.83h-4.48v.56h3.7v3.47H165C165.46,113.57,165.86,114,166.22,114.45Zm-5.63,2.79-.81.75a12.4,12.4,0,0,0-1.86-1.09l.8-.74A11.24,11.24,0,0,1,160.59,117.24Zm0-6.21v-.59H158V111Zm0,1.26v-.54H158v.54Zm3.71-1.26v-.59h-2.67V111Zm0,1.26v-.54h-2.67v.54Zm0,.82h-2.7v.6c1.1,0,1.91-.08,2.43-.14a1.34,1.34,0,0,0-.23-.24Z"/>
    </g>
    <g>
      <path class="cls-1" d="M23.63,117.5q-.76,2.79-2.31,2.79A3.46,3.46,0,0,1,19,118.93a8.1,8.1,0,0,1-1.81-3.84H13.45v3.62c1.18-.24,2.42-.57,3.73-1L17.3,119a47.52,47.52,0,0,1-5.13,1.23L11.75,119a.57.57,0,0,0,.39-.58V108.34H22.35v3.91H18.18a9.25,9.25,0,0,0,.09,1.62H23.2v1.22H18.51a6.56,6.56,0,0,0,1.3,2.79q.92,1.11,1.47,1.11a.55.55,0,0,0,.34-.11,1.9,1.9,0,0,0,.42-.71,6.58,6.58,0,0,0,.45-1.36ZM21.05,111v-1.45h-7.6V111ZM17,113.87c-.06-.47-.11-1-.14-1.62h-3.4v1.62Z"/>
      <path class="cls-1" d="M39.75,120.25H38.49v-.54H29.78v.54H28.55v-12h11.2Zm-1.26-1.63v-9.29H29.78v9.29Zm-4.18-1.92A30.86,30.86,0,0,1,30.19,118l-.14-1.12a26.85,26.85,0,0,0,4.2-1.19Zm4-.55c-.23,1.37-.71,2.06-1.46,2.06-.46,0-.87-.32-1.24-1a6.73,6.73,0,0,1-1.26,1.17l-.81-.8A10.61,10.61,0,0,0,35.13,116a20,20,0,0,1-.7-4.33H30.26v-1h4.1c0-.18,0-.53,0-1.08l1.15,0a6.71,6.71,0,0,0,0,1.1h1.58a5.19,5.19,0,0,0-1.21-.52l.68-.69a7.15,7.15,0,0,1,1.29.58l-.61.63h.78v1H35.58a14.71,14.71,0,0,0,.4,3A15.67,15.67,0,0,0,37,112.09l1,.46a12.24,12.24,0,0,1-1.64,3.66,1.52,1.52,0,0,0,.28.57c.11.14.19.2.23.2s.15-.13.25-.39a5,5,0,0,0,.26-1.21Zm-4.41-.74H30.57v-3h3.34Zm-1.15-1v-1H31.7v1Z"/>
      <path class="cls-1" d="M45.05,117.74a4.16,4.16,0,0,0,2.24.69,2.43,2.43,0,0,0,1.67-.56,1.89,1.89,0,0,0,.64-1.51c0-1.33-.85-2-2.54-2-.4,0-1,0-1.69.11V109h5.38v1.38H46.81v2.76c.4,0,.7,0,.9,0a3.78,3.78,0,0,1,2.58.84,3,3,0,0,1,1,2.34,3.26,3.26,0,0,1-1.06,2.54,4.05,4.05,0,0,1-2.81,1,4.9,4.9,0,0,1-2.32-.45Z"/>
      <path class="cls-1" d="M55.52,114.45a7.75,7.75,0,0,1,.95-4.23,3.13,3.13,0,0,1,2.77-1.45q3.45,0,3.45,5.43a7.4,7.4,0,0,1-.94,4.08A3.07,3.07,0,0,1,59,119.72a2.92,2.92,0,0,1-2.61-1.35A7.2,7.2,0,0,1,55.52,114.45Zm1.63-.06c0,2.69.66,4,2,4s1.94-1.37,1.94-4.13-.63-4.23-1.9-4.23S57.15,111.51,57.15,114.39Z"/>
      <path class="cls-1" d="M79.15,117.36H74.38v2.88H73.09v-2.88H67v-1.22h1.85v-3.57h4.27v-2.06H69.91a26,26,0,0,1-2.17,2.35l-.89-.92a14.48,14.48,0,0,0,3.23-4l1.29.25a4.88,4.88,0,0,1-.61,1.14h7.9v1.2H74.38v2.06h4v1.2h-4v2.37h4.77Zm-6.06-1.22v-2.37h-3v2.37Z"/>
    </g>
    <g>
      <path class="cls-1" d="M130.78,170.91a22.64,22.64,0,0,1-3.43,1.5l-.23-1c.3-.1.71-.26,1.21-.47v-4.15h-1.06v-1h1.06v-3h1.07v3h.92v1h-.92v3.65a12.31,12.31,0,0,0,1.29-.64Zm6.54-2.92h-6.53v-3.83h6.53Zm-.48,5.15h-1.05v-.42H132.4v.42h-1v-4.5h5.48Zm-3.38-9.6-.83.5a7,7,0,0,0-1.1-1l.85-.5A4.89,4.89,0,0,1,133.46,163.54Zm.1,3.53v-2h-1.78v2Zm-.36-.53-.75.31a5.87,5.87,0,0,0-.44-1.23l.74-.34A5.49,5.49,0,0,1,133.2,166.54Zm2.59,3.67v-.65H132.4v.65Zm0,1.58v-.7H132.4v.7Zm.55-4.72v-2h-1.79v2Zm.34-4a6.89,6.89,0,0,1-1.26.91l-.81-.56a6.6,6.6,0,0,0,1.2-.9Zm-.57,2.49a4.23,4.23,0,0,1-.59,1.26l-.72-.32a5.77,5.77,0,0,0,.59-1.24Z"/>
      <path class="cls-1" d="M145,165.16a10.6,10.6,0,0,1-1,2v6H143v-4.41a10.54,10.54,0,0,1-1,1l-.56-.95a11.83,11.83,0,0,0,2.52-3.89Zm6.87-.52H141.61v-1h4.6c-.21-.33-.39-.57-.51-.73l1.12-.32a10.76,10.76,0,0,1,.62,1.05h4.45Zm.24,7.54-.49,1a11.81,11.81,0,0,1-3.45-1.51,13.32,13.32,0,0,1-3.26,1.54l-.61-.95a12,12,0,0,0,3-1.23,9.44,9.44,0,0,1-1.71-2,5.81,5.81,0,0,1-.49.42l-.73-.76a10.93,10.93,0,0,0,2.79-3.79l1,.34c-.15.33-.27.57-.36.75h3.47a7.36,7.36,0,0,1-2.3,5A10.47,10.47,0,0,0,152.13,172.18ZM149,169.45a17.1,17.1,0,0,0-2.48-1.47.64.64,0,0,1-.1.13l-.1.12a10.17,10.17,0,0,0,1.84,2.13A6.47,6.47,0,0,0,149,169.45Zm1.12-2.5h-2.86a2.76,2.76,0,0,1-.17.25,17,17,0,0,1,2.43,1.4A6.92,6.92,0,0,0,150.13,167Z"/>
      <path class="cls-1" d="M160.7,166.8h-3.45v6.34H156.2V163h4.5Zm-1-2.36v-.55h-2.4v.55Zm0,1.44v-.6h-2.4v.6Zm3.94,6.16h-5v-4.67h5Zm-1-2.82v-.92h-2.88v.92Zm0,1.89v-1h-2.88v1Zm3.41,1a1,1,0,0,1-.29.8,1.07,1.07,0,0,1-.7.25h-.72l-.37-1c.26,0,.46,0,.61,0a.84.84,0,0,0,.35,0s.06-.07.06-.14V166.8h-3.38V163H166Zm-1.06-7.64v-.55h-2.35v.55Zm0,1.44v-.6h-2.35v.6Z"/>
      <path class="cls-1" d="M176.36,167.87h-6.12v-.94h1.59a10.2,10.2,0,0,0-.72-1.7l.79-.48h-1.42v-1h2.38a5.54,5.54,0,0,0-.5-1l1-.27a5.94,5.94,0,0,1,.58,1.23h2.16v1h-1.21l.75.43c-.17.48-.41,1.06-.73,1.75h1.4Zm-.64,5.25h-1v-.68H172v.68h-1.06V168.7h4.8Zm-1-1.65v-1.79H172v1.79Zm0-6.72h-2.66a16.12,16.12,0,0,1,.85,2.18h.93A11.57,11.57,0,0,0,174.72,164.75Zm4.84,2.22a5.79,5.79,0,0,1,1.08,3.06,2.19,2.19,0,0,1-.24,1.1,1.21,1.21,0,0,1-.59.54,4.07,4.07,0,0,1-1.39.09l-.3-1c.32,0,.66.05,1,.05a.45.45,0,0,0,.34-.15,1.08,1.08,0,0,0,.13-.67,4.69,4.69,0,0,0-1.12-2.8,29.11,29.11,0,0,0,1-3.25h-1.62v9.22h-1V162.94h3.65v1C180.23,165,179.92,166,179.56,167Z"/>
    </g>
    <g>
      <path class="cls-1" d="M23.63,172.5q-.76,2.79-2.31,2.79A3.46,3.46,0,0,1,19,173.93a8.1,8.1,0,0,1-1.81-3.84H13.45v3.62c1.18-.24,2.42-.57,3.73-1L17.3,174a47.52,47.52,0,0,1-5.13,1.23L11.75,174a.57.57,0,0,0,.39-.58V163.34H22.35v3.91H18.18a9.25,9.25,0,0,0,.09,1.62H23.2v1.22H18.51a6.56,6.56,0,0,0,1.3,2.79q.92,1.11,1.47,1.11a.55.55,0,0,0,.34-.11,1.9,1.9,0,0,0,.42-.71,6.58,6.58,0,0,0,.45-1.36ZM21.05,166v-1.45h-7.6V166ZM17,168.87c-.06-.47-.11-1-.14-1.62h-3.4v1.62Z"/>
      <path class="cls-1" d="M39.75,175.25H38.49v-.54H29.78v.54H28.55v-12h11.2Zm-1.26-1.63v-9.29H29.78v9.29Zm-4.18-1.92A30.86,30.86,0,0,1,30.19,173l-.14-1.12a26.85,26.85,0,0,0,4.2-1.19Zm4-.55c-.23,1.37-.71,2.06-1.46,2.06-.46,0-.87-.32-1.24-1a6.73,6.73,0,0,1-1.26,1.17l-.81-.8A10.61,10.61,0,0,0,35.13,171a20,20,0,0,1-.7-4.33H30.26v-1h4.1c0-.18,0-.53,0-1.08l1.15,0a6.71,6.71,0,0,0,0,1.1h1.58a5.19,5.19,0,0,0-1.21-.52l.68-.69a7.15,7.15,0,0,1,1.29.58l-.61.63h.78v1H35.58a14.71,14.71,0,0,0,.4,3A15.67,15.67,0,0,0,37,167.09l1,.46a12.24,12.24,0,0,1-1.64,3.66,1.52,1.52,0,0,0,.28.57c.11.14.19.2.23.2s.15-.13.25-.39a5,5,0,0,0,.26-1.21Zm-4.41-.74H30.57v-3h3.34Zm-1.15-1v-1H31.7v1Z"/>
      <path class="cls-1" d="M45.05,172.74a4.16,4.16,0,0,0,2.24.69,2.43,2.43,0,0,0,1.67-.56,1.89,1.89,0,0,0,.64-1.51c0-1.33-.85-2-2.54-2-.4,0-1,0-1.69.11V164h5.38v1.38H46.81v2.76c.4,0,.7,0,.9,0a3.78,3.78,0,0,1,2.58.84,3,3,0,0,1,1,2.34,3.26,3.26,0,0,1-1.06,2.54,4.05,4.05,0,0,1-2.81.95,4.9,4.9,0,0,1-2.32-.45Z"/>
      <path class="cls-1" d="M62.25,174.54H55.67V173.2l3.07-3a11.36,11.36,0,0,0,1.51-1.74,2.76,2.76,0,0,0,.49-1.59c0-1.17-.62-1.76-1.86-1.76a4,4,0,0,0-2.68,1.17v-1.54a4.9,4.9,0,0,1,3-.95,3.34,3.34,0,0,1,2.32.78,2.7,2.7,0,0,1,.86,2.12,3.89,3.89,0,0,1-.54,1.93,11.2,11.2,0,0,1-1.91,2.28l-2.35,2.24v0h4.7Z"/>
      <path class="cls-1" d="M79.15,172.36H74.38v2.88H73.09v-2.88H67v-1.22h1.85v-3.57h4.27v-2.06H69.91a26,26,0,0,1-2.17,2.35l-.89-.92a14.48,14.48,0,0,0,3.23-4l1.29.25a4.88,4.88,0,0,1-.61,1.14h7.9v1.2H74.38v2.06h4v1.2h-4v2.37h4.77Zm-6.06-1.22v-2.37h-3v2.37Z"/>
    </g>
    <g>
      <path class="cls-1" d="M130.78,225.91a22.64,22.64,0,0,1-3.43,1.5l-.23-1c.3-.1.71-.26,1.21-.47v-4.15h-1.06v-1h1.06v-3h1.07v3h.92v1h-.92v3.65a12.31,12.31,0,0,0,1.29-.64Zm6.54-2.92h-6.53v-3.83h6.53Zm-.48,5.15h-1.05v-.42H132.4v.42h-1v-4.5h5.48Zm-3.38-9.6-.83.5a7,7,0,0,0-1.1-1l.85-.5A4.89,4.89,0,0,1,133.46,218.54Zm.1,3.53v-2h-1.78v2Zm-.36-.53-.75.31a5.87,5.87,0,0,0-.44-1.23l.74-.34A5.49,5.49,0,0,1,133.2,221.54Zm2.59,3.67v-.65H132.4v.65Zm0,1.58v-.7H132.4v.7Zm.55-4.72v-2h-1.79v2Zm.34-4a6.89,6.89,0,0,1-1.26.91l-.81-.56a6.6,6.6,0,0,0,1.2-.9Zm-.57,2.49a4.23,4.23,0,0,1-.59,1.26l-.72-.32a5.77,5.77,0,0,0,.59-1.24Z"/>
      <path class="cls-1" d="M145.7,219.75h-4.21v-1h1.62a9.38,9.38,0,0,0-.41-.9l1.06-.26a5.61,5.61,0,0,1,.49,1.16h1.45Zm-.29,1.74h-3.59v-1h3.59Zm0,1.72h-3.59v-1h3.59Zm0,4.65h-1v-.48h-1.51v.77h-1V224h3.57Zm-1-1.45V225h-1.51v1.42Zm7.74.83-.51,1a9.11,9.11,0,0,1-2.74-1.4,10.87,10.87,0,0,1-2.61,1.44l-.61-.91a7.51,7.51,0,0,0,2.45-1.24,8.13,8.13,0,0,1-1.51-2.47H146v-1h5.23v1a9.61,9.61,0,0,1-1.61,2.46A7,7,0,0,0,152.12,227.24Zm-.14-5.3h-1.56a.73.73,0,0,1-.54-.26.81.81,0,0,1-.24-.57V219H148v.73a3.11,3.11,0,0,1-.4,1.52,2.77,2.77,0,0,1-1.08,1.14l-.74-.74A2.29,2.29,0,0,0,147,219.4V218h3.73v2.67a.25.25,0,0,0,.11.21.29.29,0,0,0,.21.1h1Zm-1.85,1.69h-2.4a6.38,6.38,0,0,0,1.16,1.77A6.59,6.59,0,0,0,150.13,223.63Z"/>
      <path class="cls-1" d="M159.23,219c0,.07-.26.87-.79,2.38a6.85,6.85,0,0,1,.72,2.86,1.8,1.8,0,0,1-.17.88,1,1,0,0,1-.46.41,3,3,0,0,1-1,.11l-.29-1h.6c.18,0,.26-.15.26-.46a5.36,5.36,0,0,0-.75-2.68c.24-.66.5-1.49.77-2.49h-1v9.19h-1V218h3.09Zm6.89-.11c0,2.14,0,3.82-.09,5.05s-.12,2.1-.19,2.65a1.72,1.72,0,0,1-.4,1.08,2.07,2.07,0,0,1-.56.37,4.26,4.26,0,0,1-1.31.11h-.75l-.37-1h.83a3.89,3.89,0,0,0,1.23-.1.63.63,0,0,0,.27-.31A26.29,26.29,0,0,0,165,224c.08-1.68.11-3.09.1-4.24H160.9a7.87,7.87,0,0,1-1.15,1.3l-.76-.69a8.16,8.16,0,0,0,1.95-2.79l1,.22-.49,1Zm-1.51,5h-2.06v1.83h.75v-1.33h.95v2.24h-4.43v-2.24h1v1.33h.82v-1.83h-2.17V223h2.17v-1.14h-.54a7.48,7.48,0,0,1-.82.91l-.78-.57a8.63,8.63,0,0,0,1.64-2.18l.89.3q-.1.22-.33.63h2.6v.91h-1.7V223h2.06Z"/>
      <path class="cls-1" d="M180.81,226.29a5.5,5.5,0,0,1-.27,1.17.9.9,0,0,1-.42.44,2.1,2.1,0,0,1-.92.15,6.55,6.55,0,0,1-1.29-.08.78.78,0,0,1-.44-.34,1.38,1.38,0,0,1-.11-.75l.14-1.88H173l0,.43a24.1,24.1,0,0,1,3.54.3l-.23.81a24.28,24.28,0,0,0-3.37-.28l-.08.85q2-.09,4.05-.36v.9c-1.74.19-3.87.34-6.37.47l-.1-.88a12.77,12.77,0,0,0,1.32-.06l.35-3.68h-1.85v-.9h10.44v.9h-7.51l-.07.65h5.52l-.18,2.77q0,.18.18.18h.72a.36.36,0,0,0,.29-.19,3.17,3.17,0,0,0,.18-.94Zm-7.17-5.16h-3.25v-.93h3.25Zm-.09-2.16h-3.07v-1h3.07Zm6.81,2.61-.5.86a25,25,0,0,0-3.14-1.26,4.9,4.9,0,0,1-3,1.18l-.36-1a4.87,4.87,0,0,0,2.26-.56,2.7,2.7,0,0,0,1.06-1.42l1.07.17q-.14.33-.36.78A27.26,27.26,0,0,1,180.36,221.58Zm0-2.37a8.14,8.14,0,0,1-1.08,1.37l-.83-.56a7.67,7.67,0,0,0,.68-.81h-3.53a8.29,8.29,0,0,1-1.23,1.24l-.79-.7a7,7,0,0,0,1.9-2.22l1,.33a1.79,1.79,0,0,1-.2.44h4.12Z"/>
      <path class="cls-1" d="M186.1,225.54a8.58,8.58,0,0,1-.65,2.66l-.95-.49a8.35,8.35,0,0,0,.61-2.41Zm3.14-1-.91.39a4.16,4.16,0,0,0-.16-.63,27.35,27.35,0,0,1-3.3.82l-.27-.95a10.62,10.62,0,0,0,2.24-2.44c-.57.09-1.22.19-2,.28l-.19-.86a10.19,10.19,0,0,0,2.14-3.51l1.11.35a12.38,12.38,0,0,1-1.68,2.83,9.7,9.7,0,0,0,1.28-.2,11.7,11.7,0,0,0,.7-1.19l1,.5a16.42,16.42,0,0,1-2.76,3.82,10.46,10.46,0,0,0,1.41-.36c-.05-.16-.11-.33-.19-.52l.9-.34A15.55,15.55,0,0,1,189.24,224.49Zm-1.63,3.17-1,.24a9.68,9.68,0,0,0-.26-2.43l.89-.18A11.69,11.69,0,0,1,187.61,227.66Zm1.44-1.13-.85.34a9.07,9.07,0,0,0-.46-1.56l.81-.28A15.28,15.28,0,0,1,189.05,226.53Zm6,1.36h-6.15v-1h.63V218h4.82v8.88h.7Zm-1.77-7.06V219h-2.67v1.81Zm0,2.91v-1.88h-2.67v1.88Zm0,3.14v-2.16h-2.67v2.16Z"/>
      <path class="cls-1" d="M129.26,252.6a8,8,0,0,1-2-5.53,8.47,8.47,0,0,1,2-5.61h1.18a8.78,8.78,0,0,0-2,5.61,8.52,8.52,0,0,0,2,5.53Z"/>
      <path class="cls-1" d="M143.76,246.54c0,.87-.07,1.65-.13,2.35a6.52,6.52,0,0,1-.21,1.33,1.31,1.31,0,0,1-.34.51,1.47,1.47,0,0,1-.55.33,4.27,4.27,0,0,1-1.05.1l-1.53,0-.34-1.06c.86,0,1.63.05,2.31.05a.61.61,0,0,0,.37-.14c.11-.09.2-.44.25-1.07s.09-1.07.09-1.34h-3.54c-.54,1.91-2.15,3.12-4.83,3.65l-.55-1q3.76-.8,4.25-2.68H133.9v-1h4.26a9.22,9.22,0,0,0,.1-1.29h-3.34v-4.37h8v4.37h-3.61l-.11,1.29Zm-1.87-2.32V241.9H136v2.32Z"/>
      <path class="cls-1" d="M158.54,242.82h-5.83a9,9,0,0,1-.63,1h5.63v6.43a.84.84,0,0,1-.21.61.87.87,0,0,1-.65.23h-2l-.46-1.07c.51,0,1.16,0,2,0,.17,0,.26-.1.26-.28v-1.1h-5.35a6.1,6.1,0,0,1-1.25,2.42l-1-.58a4.1,4.1,0,0,0,1.29-2.65V246a8.35,8.35,0,0,1-1.57,1.33l-.77-.81a11.4,11.4,0,0,0,3.47-3.68h-3.34v-1H152a7.5,7.5,0,0,0,.55-1.19l1.1.18a7.83,7.83,0,0,1-.42,1h5.31Zm-1.91,3v-.94H151.4v.94Zm0,1.91v-.93H151.4v.93Z"/>
      <path class="cls-1" d="M172.89,250.73H162.41v-1.08h4.68V242.2h-4.16v-1.12h9.48v1.12h-4.17v7.45h4.65Z"/>
      <path class="cls-1" d="M182.37,244.58h-1v.17c0,.11.06.16.19.16h.8v.56h-1.25a.61.61,0,0,1-.68-.69v-.2h-1.22a2.55,2.55,0,0,1-1,1.13h1.13v-.34h1.05v.34h1.58v.58h-1.58v.39c.47,0,1.06-.07,1.76-.16l0,.59c-1.73.19-3.45.32-5.17.37v-.64c.87,0,1.64,0,2.31-.08v-.47h-1.45v-.42a3,3,0,0,1-.74.24l-.46-.71a2.32,2.32,0,0,0,1.55-.82h-1.3v-.64h2.38v-.36h-1.88V243h1.88v-.31h1V243h1.74v.6h-1.74v.36h2Zm-.65-2.56h-1.39v.42h-1.05V242h-2.52v-.8h2.52v-.53h1.05v.53h1.39Zm5.53,7.5h-2.08a8.4,8.4,0,0,1,1.67,1.19l-.89.53a7.2,7.2,0,0,0-.67-.54,74.1,74.1,0,0,1-7.83.36l-.14-.69a7.19,7.19,0,0,0,2.12-.85H176.8v-.73h10.45ZM186,248.36h-8v-.68h8Zm-1.44,1.16h-3.65a6.3,6.3,0,0,1-1.28.8c1.7,0,3.25-.12,4.66-.25a1.66,1.66,0,0,0-.4-.21Zm2.66-7.5H184.7v.4h-1V242h-1.4v-.8h1.4v-.53h1v.53h2.52Zm.13,3.73a3.39,3.39,0,0,1-.32,1.5.71.71,0,0,1-.59.33c-.34,0-.61-.24-.8-.72a8.86,8.86,0,0,1-.31-2.69h-.67a5.14,5.14,0,0,1-.19,1.34,8,8,0,0,1,.72.7l-.5.82a5.11,5.11,0,0,0-.64-.62,4.19,4.19,0,0,1-1.06,1.11l-.66-.79a3.21,3.21,0,0,0,.94-1,3.92,3.92,0,0,0-.71-.45l.51-.73a5.22,5.22,0,0,1,.54.31,2.57,2.57,0,0,0,.1-.73h-1v-.88h1v-.62h1v.62h1.62a18,18,0,0,0,.07,2.32c.06.62.13.93.19.93s.05-.08.09-.26a5.62,5.62,0,0,0,.05-.88Z"/>
      <path class="cls-1" d="M197.81,246.41l-.8.79a9.64,9.64,0,0,0-2-1.81l.8-.79A10.13,10.13,0,0,1,197.81,246.41Z"/>
      <path class="cls-1" d="M209.67,242.75h-4.2v-1h1.61a7.44,7.44,0,0,0-.41-.9l1.06-.26a6.18,6.18,0,0,1,.5,1.16h1.44Zm-.29,1.74h-3.59v-1h3.59Zm0,1.72h-3.59v-1h3.59Zm0,4.65h-1v-.48h-1.51v.77h-1V247h3.57Zm-1-1.45V248h-1.51v1.42Zm7.74.83-.5,1a9,9,0,0,1-2.75-1.4,10.87,10.87,0,0,1-2.61,1.44l-.61-.91a7.51,7.51,0,0,0,2.45-1.24,8.13,8.13,0,0,1-1.51-2.47H210v-1h5.24v1a9.88,9.88,0,0,1-1.62,2.46A7.19,7.19,0,0,0,216.09,250.24Zm-.13-5.3H214.4a.73.73,0,0,1-.54-.26.81.81,0,0,1-.24-.57V242H212v.73a3.21,3.21,0,0,1-.39,1.52,2.85,2.85,0,0,1-1.09,1.14l-.74-.74a2.27,2.27,0,0,0,1.18-2.22V241h3.73v2.67a.28.28,0,0,0,.11.21.33.33,0,0,0,.21.1h1Zm-1.86,1.69h-2.39a6.16,6.16,0,0,0,1.15,1.77A6.59,6.59,0,0,0,214.1,246.63Z"/>
      <path class="cls-1" d="M224.82,242.71h-5v-1h2a9.53,9.53,0,0,0-.44-1l1.11-.21a7.36,7.36,0,0,1,.53,1.18h1.81Zm-.56,1.78h-4v-1h4Zm0,1.73h-4v-.95h4Zm0,4.77h-1v-.61h-1.86v.76h-1.06V247h4Zm-1-1.56V248h-1.86v1.43Zm7.07-4.4h-2.19v6.11H227V245h-2.14V244H227v-3.3h1.09V244h2.19Z"/>
      <path class="cls-1" d="M244.59,242h-4.68v1.16h4.27V250a1.27,1.27,0,0,1-.27.8,1.83,1.83,0,0,1-1.34.34l-.67,0-.36-1.07.85,0a2,2,0,0,0,.66-.06c.08,0,.11-.11.11-.23v-5.68h-3.25v7h-1v-7h-3.26v7h-1v-8h4.31V242h-4.71v-1h10.41Zm-5.87,6.64-.69.86a9,9,0,0,1-.7-2,6.45,6.45,0,0,1-.93,2.11l-.56-.9a7.94,7.94,0,0,0,1.09-2.73h-.75v-1h1.68A9.07,9.07,0,0,0,238.72,248.61Zm4.3,0-.65.92a6.42,6.42,0,0,1-.73-1.93,6.21,6.21,0,0,1-.92,1.86l-.58-.85a7.2,7.2,0,0,0,1.17-2.68h-.82v-1h1.72A7.36,7.36,0,0,0,243,248.62Z"/>
      <path class="cls-1" d="M250.07,248.54a8.86,8.86,0,0,1-.64,2.66l-1-.49a9.05,9.05,0,0,0,.61-2.41Zm3.15-1-.92.39a3.24,3.24,0,0,0-.16-.63,27.63,27.63,0,0,1-3.29.82l-.28-.95a10.4,10.4,0,0,0,2.24-2.44c-.57.09-1.22.19-1.95.28l-.19-.86a10.19,10.19,0,0,0,2.14-3.51l1.11.35a12.38,12.38,0,0,1-1.68,2.83,9.45,9.45,0,0,0,1.28-.2,11.7,11.7,0,0,0,.7-1.19l1,.5a16.42,16.42,0,0,1-2.76,3.82,10.46,10.46,0,0,0,1.41-.36,5.43,5.43,0,0,0-.18-.52l.89-.34A17,17,0,0,1,253.22,247.49Zm-1.64,3.17-1,.24a10.11,10.11,0,0,0-.25-2.43l.89-.18A11.68,11.68,0,0,1,251.58,250.66Zm1.44-1.13-.85.34a9.1,9.1,0,0,0-.45-1.56l.8-.28A13,13,0,0,1,253,249.53Zm6,1.36h-6.15v-1h.63V241h4.82v8.88h.7Zm-1.76-7.06V242h-2.68v1.81Zm0,2.91v-1.88h-2.68v1.88Zm0,3.14v-2.16h-2.68v2.16Z"/>
      <path class="cls-1" d="M262.22,252.6a8.45,8.45,0,0,0,2-5.53,8.71,8.71,0,0,0-2-5.61h1.19a8.43,8.43,0,0,1,2,5.61,8,8,0,0,1-2,5.53Z"/>
    </g>
    <g>
      <path class="cls-1" d="M23.63,227.5q-.76,2.79-2.31,2.79A3.46,3.46,0,0,1,19,228.93a8.1,8.1,0,0,1-1.81-3.84H13.45v3.62c1.18-.24,2.42-.57,3.73-1L17.3,229a47.52,47.52,0,0,1-5.13,1.23L11.75,229a.57.57,0,0,0,.39-.58V218.34H22.35v3.91H18.18a9.25,9.25,0,0,0,.09,1.62H23.2v1.22H18.51a6.56,6.56,0,0,0,1.3,2.79q.92,1.11,1.47,1.11a.55.55,0,0,0,.34-.11,1.9,1.9,0,0,0,.42-.71,6.58,6.58,0,0,0,.45-1.36ZM21.05,221v-1.45h-7.6V221ZM17,223.87c-.06-.47-.11-1-.14-1.62h-3.4v1.62Z"/>
      <path class="cls-1" d="M39.75,230.25H38.49v-.54H29.78v.54H28.55v-12h11.2Zm-1.26-1.63v-9.29H29.78v9.29Zm-4.18-1.92A30.86,30.86,0,0,1,30.19,228l-.14-1.12a26.85,26.85,0,0,0,4.2-1.19Zm4-.55c-.23,1.37-.71,2.06-1.46,2.06-.46,0-.87-.32-1.24-1a6.73,6.73,0,0,1-1.26,1.17l-.81-.8A10.61,10.61,0,0,0,35.13,226a20,20,0,0,1-.7-4.33H30.26v-1h4.1c0-.18,0-.53,0-1.08l1.15,0a6.71,6.71,0,0,0,0,1.1h1.58a5.19,5.19,0,0,0-1.21-.52l.68-.69a7.15,7.15,0,0,1,1.29.58l-.61.63h.78v1H35.58a14.71,14.71,0,0,0,.4,3A15.67,15.67,0,0,0,37,222.09l1,.46a12.24,12.24,0,0,1-1.64,3.66,1.52,1.52,0,0,0,.28.57c.11.14.19.2.23.2s.15-.13.25-.39a5,5,0,0,0,.26-1.21Zm-4.41-.74H30.57v-3h3.34Zm-1.15-1v-1H31.7v1Z"/>
      <path class="cls-1" d="M51.52,219.58l-4,10H45.8l3.9-9.21H44.5V219h7Z"/>
      <path class="cls-1" d="M62,220.5a3.58,3.58,0,0,0-1.73-.43,2.49,2.49,0,0,0-2.16,1.15,5.13,5.13,0,0,0-.78,3h0a2.49,2.49,0,0,1,2.35-1.36,2.79,2.79,0,0,1,2.18.9,3.47,3.47,0,0,1,.8,2.37,3.61,3.61,0,0,1-1,2.57,3.29,3.29,0,0,1-2.48,1,3,3,0,0,1-2.63-1.3,6.07,6.07,0,0,1-.92-3.56,7.54,7.54,0,0,1,1.19-4.39,3.81,3.81,0,0,1,3.31-1.7,4.41,4.41,0,0,1,1.8.31Zm-4.6,5.57a2.69,2.69,0,0,0,.52,1.68,1.62,1.62,0,0,0,1.36.68,1.55,1.55,0,0,0,1.31-.62,2.39,2.39,0,0,0,.49-1.54,2.51,2.51,0,0,0-.46-1.59,1.89,1.89,0,0,0-2.68,0A1.9,1.9,0,0,0,57.41,226.07Z"/>
      <path class="cls-1" d="M79.15,227.36H74.38v2.88H73.09v-2.88H67v-1.22h1.85v-3.57h4.27v-2.06H69.91a26,26,0,0,1-2.17,2.35l-.89-.92a14.48,14.48,0,0,0,3.23-4l1.29.25a4.88,4.88,0,0,1-.61,1.14h7.9v1.2H74.38v2.06h4v1.2h-4v2.37h4.77Zm-6.06-1.22v-2.37h-3v2.37Z"/>
    </g>
  </g>
</svg>
