<svg id="圖層_2" data-name="圖層 2" xmlns="http://www.w3.org/2000/svg" viewBox="0 0 273 200">
  <defs>
    <style>
      .cls-1 {
        fill: #fff;
      }

      .cls-2 {
        fill: #52505a;
      }

      .cls-3 {
        fill: #ceb87f;
      }
    </style>
  </defs>
  <g>
    <rect class="cls-1" x="120.18" y="-0.48" width="1" height="200.95"/>
    <g>
      <circle class="cls-1" cx="120.68" cy="59.02" r="10"/>
      <circle class="cls-2" cx="120.68" cy="59.02" r="5"/>
    </g>
    <g>
      <circle class="cls-1" cx="120.68" cy="114.02" r="10"/>
      <circle class="cls-2" cx="120.68" cy="114.02" r="5"/>
    </g>
    <g>
      <circle class="cls-1" cx="120.68" cy="169.02" r="10"/>
      <circle class="cls-2" cx="120.68" cy="169.02" r="5"/>
    </g>
    <g>
      <path class="cls-1" d="M145.62,62.73c-1.65.82-3,1.43-4.13,1.85l-.34-.92a.62.62,0,0,0,.23-.49V58.35h2.76V55.78h-3v-1h4.11v4.63h-2.77v3.7c1.24-.55,2.24-1,3-1.43Zm6,1.38L151,65a8.77,8.77,0,0,1-2.7-1.91A10.29,10.29,0,0,1,145.46,65l-.68-.84a8.39,8.39,0,0,0,2.9-1.81,8.89,8.89,0,0,1-1.11-2.64l.94-.38a8.77,8.77,0,0,0,.85,2.17,9.46,9.46,0,0,0,1-4.34H147.5a13.88,13.88,0,0,1-1.18,2.41l-.86-.55A11.5,11.5,0,0,0,147,54.35l1.05.2c-.13.78-.22,1.29-.29,1.53h3.58v1h-.92A10.5,10.5,0,0,1,149,62.33,7.38,7.38,0,0,0,151.59,64.11Z"/>
      <path class="cls-1" d="M162.07,59h-2.76v1.22h2.35v3.42q0,.75-1,.75a4.8,4.8,0,0,1-.62,0l-.33-1h.71a.24.24,0,0,0,.14-.06.23.23,0,0,0,.08-.14V61.23h-1.31v3.69h-1.08V61.23h-1.35v3.14h-1V60.24h2.38V59h-2.85V58h2.85V56.8H156.7a7.73,7.73,0,0,1-.5.93l-.88-.62a9.33,9.33,0,0,0,1.12-2.59l1,.28a7.23,7.23,0,0,1-.32,1h1.13V54.44h1.08v1.37h2.51v1h-2.51V58h2.76Zm1.51,3.69h-1V55.27h1Zm2,1.38a.71.71,0,0,1-.35.58,4.65,4.65,0,0,1-2,.24l-.42-1,.86,0a2.22,2.22,0,0,0,.71-.06c.07,0,.1-.11.1-.23V54.44h1.08Z"/>
      <path class="cls-1" d="M180.27,64.14l-.64.87A10.32,10.32,0,0,1,175,59a10.83,10.83,0,0,1-4.67,5.94l-.64-.93a9.63,9.63,0,0,0,4.48-5.87h-4.23V57h4.38c.08-.84.13-1.69.14-2.56h1.08c0,1-.05,1.89-.11,2.56h4.7v1.08h-4.35A9.17,9.17,0,0,0,180.27,64.14Z"/>
      <path class="cls-1" d="M194.55,63.11H190v.75a1,1,0,0,1-.19.64.89.89,0,0,1-.47.31,4.14,4.14,0,0,1-1.07.09l-.82,0-.35-1,1.58,0c.15,0,.22-.07.22-.2v-.61H184.1v-.85h4.75v-.51a11.14,11.14,0,0,0,1.66-.47h-4.45v-.77h6.38v.77a17.49,17.49,0,0,1-2.49.91v.07h4.6Zm-.18-1.76h-1V60h-8v1.36h-1.06v-2.2H185l-.21-4.31a8.07,8.07,0,0,0,2.33-.45l.5.83a9.84,9.84,0,0,1-1.78.37l0,.64h1.56V57h-1.52l0,.68h1.5v.77H186l0,.69h6.61l0-.69h-1.62v-.77h1.66l0-.68h-1.69v-.78h1.71l0-.64H191v-.84h2.87l-.19,4.4h.72Zm-3.64-6.62a3.72,3.72,0,0,1-.78.74c.19.17.37.35.54.53l-.64.56a4.24,4.24,0,0,0-.6-.6,9.15,9.15,0,0,1-1.21.61l-.51-.67a5.25,5.25,0,0,0,1-.48,6.15,6.15,0,0,0-.66-.49l.58-.59.8.58a3.52,3.52,0,0,0,.62-.57Zm.05,3.78-.63.55a6.81,6.81,0,0,0-.82-.77,10,10,0,0,1-1.22.67l-.5-.66a8.37,8.37,0,0,0,1-.55,4.61,4.61,0,0,0-.8-.54l.58-.59c.22.13.53.34.94.64a6.26,6.26,0,0,0,.67-.64l.73.43a7.07,7.07,0,0,1-.74.71A8.85,8.85,0,0,1,190.78,58.51Z"/>
    </g>
    <g>
      <path class="cls-1" d="M13.52,62.27c-.52,1.86-1.28,2.79-2.31,2.79a3.42,3.42,0,0,1-2.33-1.35,8.19,8.19,0,0,1-1.81-3.85H3.34v3.63c1.18-.25,2.42-.57,3.73-1l.12,1.28A47.52,47.52,0,0,1,2.06,65l-.42-1.25A.58.58,0,0,0,2,63.18V53.12H12.24V57H8.07a9.37,9.37,0,0,0,.09,1.63h4.93v1.21H8.4a6.45,6.45,0,0,0,1.3,2.79c.61.74,1.1,1.11,1.46,1.11a.56.56,0,0,0,.35-.1,2.08,2.08,0,0,0,.42-.72,6.48,6.48,0,0,0,.45-1.35Zm-2.58-6.48V54.35H3.34v1.44ZM6.88,58.65c-.07-.48-.11-1-.15-1.63H3.34v1.63Z"/>
      <path class="cls-1" d="M29.64,65H28.38v-.54H19.67V65H18.44V53h11.2Zm-1.26-1.63V54.11H19.67v9.28ZM24.2,61.47a29.46,29.46,0,0,1-4.12,1.25l-.14-1.12a26.85,26.85,0,0,0,4.2-1.19Zm4-.55C28,62.29,27.5,63,26.75,63c-.46,0-.87-.32-1.24-1a7.35,7.35,0,0,1-1.26,1.16l-.81-.8A10.61,10.61,0,0,0,25,60.81a19.77,19.77,0,0,1-.7-4.32H20.15v-1h4.1c0-.18,0-.54,0-1.08l1.15,0a6.79,6.79,0,0,0,0,1.11H27A5,5,0,0,0,25.8,55l.68-.7a6.22,6.22,0,0,1,1.28.59l-.6.63h.78v1H25.47a14.6,14.6,0,0,0,.4,3,14.54,14.54,0,0,0,1.05-2.59l1,.47A12.06,12.06,0,0,1,26.28,61a1.68,1.68,0,0,0,.27.57q.18.21.24.21c.06,0,.15-.13.25-.39a5.66,5.66,0,0,0,.26-1.21Zm-4.41-.73H20.46v-3H23.8Zm-1.15-1v-1H21.59v1Z"/>
      <path class="cls-1" d="M35,62.69a3.74,3.74,0,0,0,1.92.52A2.45,2.45,0,0,0,39,62.15a5,5,0,0,0,.74-2.95h0a2.41,2.41,0,0,1-2.28,1.25,2.84,2.84,0,0,1-2.21-.94,3.33,3.33,0,0,1-.86-2.34,3.59,3.59,0,0,1,1-2.6,3.34,3.34,0,0,1,2.54-1,2.93,2.93,0,0,1,2.55,1.27,6.11,6.11,0,0,1,.91,3.61,7.59,7.59,0,0,1-1.14,4.45A3.75,3.75,0,0,1,37,64.49a4.83,4.83,0,0,1-2-.37ZM36,57a2.3,2.3,0,0,0,.51,1.57,1.73,1.73,0,0,0,1.39.58,1.76,1.76,0,0,0,1.29-.53,1.83,1.83,0,0,0,.51-1.31,2.9,2.9,0,0,0-.51-1.73,1.59,1.59,0,0,0-1.37-.72,1.63,1.63,0,0,0-1.31.62A2.33,2.33,0,0,0,36,57Z"/>
      <path class="cls-1" d="M45.41,59.22a7.66,7.66,0,0,1,1-4.23,3.12,3.12,0,0,1,2.77-1.44c2.3,0,3.45,1.8,3.45,5.42a7.43,7.43,0,0,1-.95,4.09,3.07,3.07,0,0,1-2.73,1.43,2.92,2.92,0,0,1-2.61-1.35A7.18,7.18,0,0,1,45.41,59.22ZM47,59.16c0,2.7.66,4.05,2,4.05s1.94-1.38,1.94-4.13-.63-4.24-1.9-4.24S47,56.28,47,59.16Z"/>
      <path class="cls-1" d="M69,62.13H64.27V65H63V62.13H56.86V60.91h1.85V57.34H63V55.28H59.8a26.26,26.26,0,0,1-2.17,2.36l-.89-.93a14.2,14.2,0,0,0,3.23-4l1.28.26a4.6,4.6,0,0,1-.6,1.13h7.9v1.2H64.27v2.06h4v1.2h-4v2.37H69ZM63,60.91V58.54H60v2.37Z"/>
      <path class="cls-1" d="M75.57,58.75a2.69,2.69,0,0,1-1.88-2.52,2.36,2.36,0,0,1,.93-1.94,3.6,3.6,0,0,1,2.32-.74,3.42,3.42,0,0,1,2.17.69A2.21,2.21,0,0,1,80,56.08a2.89,2.89,0,0,1-2,2.66v0c1.53.55,2.29,1.48,2.29,2.8a2.55,2.55,0,0,1-1,2.16,4.34,4.34,0,0,1-2.69.76,3.57,3.57,0,0,1-2.35-.76,2.51,2.51,0,0,1-.93-2,3.07,3.07,0,0,1,2.24-2.91Zm1.17.72c-1.22.49-1.84,1.2-1.84,2.14a1.44,1.44,0,0,0,.55,1.18,2.11,2.11,0,0,0,1.39.45,2.06,2.06,0,0,0,1.36-.44,1.44,1.44,0,0,0,.53-1.17C78.73,60.66,78.07,59.94,76.74,59.47Zm1.67-3.23A1.36,1.36,0,0,0,78,55.19a1.6,1.6,0,0,0-1.13-.38,1.62,1.62,0,0,0-1.13.41,1.28,1.28,0,0,0-.46,1c0,.83.52,1.46,1.56,1.88C77.88,57.68,78.41,57.05,78.41,56.24Z"/>
      <path class="cls-1" d="M95.79,63.79a1.22,1.22,0,0,1-.29.86,1.46,1.46,0,0,1-1,.34l-1.31,0c-.37,0-.73,0-1.07,0l-.44-1.27c.86,0,1.53.06,2,.06a2,2,0,0,0,.71-.07c.09,0,.13-.15.13-.32V60.91h-7a7.7,7.7,0,0,1-2,4.19l-.91-.92a6,6,0,0,0,1.31-2.12,10.71,10.71,0,0,0,.5-3.69v-5.3h9.43ZM94.5,56.32v-2H87.63v2Zm0,3.37V57.54H87.63v2.15Z"/>
    </g>
    <g>
      <path class="cls-1" d="M12.52,117.27c-.52,1.86-1.28,2.79-2.31,2.79a3.42,3.42,0,0,1-2.33-1.35,8.19,8.19,0,0,1-1.81-3.85H2.34v3.63c1.18-.25,2.42-.57,3.73-1l.12,1.28A47.52,47.52,0,0,1,1.06,120l-.42-1.25a.58.58,0,0,0,.39-.59V108.12H11.24V112H7.07a9.37,9.37,0,0,0,.09,1.63h4.93v1.21H7.4a6.45,6.45,0,0,0,1.3,2.79c.61.74,1.1,1.11,1.46,1.11a.56.56,0,0,0,.35-.1,2.08,2.08,0,0,0,.42-.72,6.48,6.48,0,0,0,.45-1.35Zm-2.58-6.48v-1.44H2.34v1.44Zm-4.06,2.86c-.07-.48-.11-1-.15-1.63H2.34v1.63Z"/>
      <path class="cls-1" d="M28.64,120H27.38v-.54H18.67V120H17.44V108h11.2Zm-1.26-1.63v-9.28H18.67v9.28Zm-4.18-1.92a29.46,29.46,0,0,1-4.12,1.25l-.14-1.12a26.85,26.85,0,0,0,4.2-1.19Zm4-.55C27,117.29,26.5,118,25.75,118c-.46,0-.87-.32-1.24-1a7.35,7.35,0,0,1-1.26,1.16l-.81-.8A10.61,10.61,0,0,0,24,115.81a19.88,19.88,0,0,1-.7-4.32H19.15v-1h4.1c0-.18,0-.54,0-1.08l1.15,0a6.79,6.79,0,0,0,0,1.11H26A5,5,0,0,0,24.8,110l.68-.7a6.22,6.22,0,0,1,1.28.59l-.6.63h.78v1H24.47a14.6,14.6,0,0,0,.4,3,14.54,14.54,0,0,0,1.05-2.59l1,.47A12.18,12.18,0,0,1,25.28,116a1.68,1.68,0,0,0,.27.57q.18.21.24.21c.06,0,.15-.13.25-.39a5.66,5.66,0,0,0,.26-1.21Zm-4.41-.74H19.46v-3H22.8Zm-1.15-1v-1H20.59v1Z"/>
      <path class="cls-1" d="M34,117.69a3.74,3.74,0,0,0,1.92.52A2.45,2.45,0,0,0,38,117.15a5,5,0,0,0,.74-3h0a2.41,2.41,0,0,1-2.28,1.25,2.84,2.84,0,0,1-2.21-.94,3.33,3.33,0,0,1-.86-2.34,3.59,3.59,0,0,1,1-2.6,3.34,3.34,0,0,1,2.54-1,2.93,2.93,0,0,1,2.55,1.27,6.11,6.11,0,0,1,.91,3.61,7.59,7.59,0,0,1-1.14,4.45A3.75,3.75,0,0,1,36,119.49a4.83,4.83,0,0,1-2-.37ZM35,112a2.32,2.32,0,0,0,.51,1.57,1.73,1.73,0,0,0,1.39.58,1.76,1.76,0,0,0,1.29-.53,1.83,1.83,0,0,0,.51-1.31,2.9,2.9,0,0,0-.51-1.73,1.59,1.59,0,0,0-1.37-.72,1.63,1.63,0,0,0-1.31.62A2.33,2.33,0,0,0,35,112Z"/>
      <path class="cls-1" d="M51.68,116.7H50.35v2.61H48.83V116.7H44v-1l4.62-6.94h1.75v6.76h1.33Zm-2.85-1.22v-4.14c0-.31,0-.67,0-1.07h0a6.21,6.21,0,0,1-.4.82l-2.92,4.39Z"/>
      <path class="cls-1" d="M68,117.13H63.27V120H62v-2.88H55.86v-1.22h1.85v-3.57H62v-2.06H58.8a24.74,24.74,0,0,1-2.17,2.35l-.89-.92a14.2,14.2,0,0,0,3.23-4l1.28.26a4.6,4.6,0,0,1-.6,1.13h7.9v1.2H63.27v2.06h4v1.2h-4v2.37H68ZM62,115.91v-2.37H59v2.37Z"/>
    </g>
    <g>
      <path class="cls-1" d="M12.52,172.27c-.52,1.86-1.28,2.79-2.31,2.79a3.42,3.42,0,0,1-2.33-1.35,8.19,8.19,0,0,1-1.81-3.85H2.34v3.63c1.18-.25,2.42-.57,3.73-1l.12,1.28A47.52,47.52,0,0,1,1.06,175l-.42-1.25a.58.58,0,0,0,.39-.59V163.12H11.24V167H7.07a9.37,9.37,0,0,0,.09,1.63h4.93v1.21H7.4a6.45,6.45,0,0,0,1.3,2.79c.61.74,1.1,1.11,1.46,1.11a.56.56,0,0,0,.35-.1,2.08,2.08,0,0,0,.42-.72,6.48,6.48,0,0,0,.45-1.35Zm-2.58-6.48v-1.44H2.34v1.44Zm-4.06,2.86c-.07-.48-.11-1-.15-1.63H2.34v1.63Z"/>
      <path class="cls-1" d="M28.64,175H27.38v-.54H18.67V175H17.44V163h11.2Zm-1.26-1.63v-9.28H18.67v9.28Zm-4.18-1.92a29.46,29.46,0,0,1-4.12,1.25l-.14-1.12a26.85,26.85,0,0,0,4.2-1.19Zm4-.55C27,172.29,26.5,173,25.75,173c-.46,0-.87-.32-1.24-1a7.35,7.35,0,0,1-1.26,1.16l-.81-.8A10.61,10.61,0,0,0,24,170.81a19.88,19.88,0,0,1-.7-4.32H19.15v-1h4.1c0-.18,0-.54,0-1.08l1.15,0a6.79,6.79,0,0,0,0,1.11H26A5,5,0,0,0,24.8,165l.68-.7a6.22,6.22,0,0,1,1.28.59l-.6.63h.78v1H24.47a14.6,14.6,0,0,0,.4,3,14.54,14.54,0,0,0,1.05-2.59l1,.47A12.18,12.18,0,0,1,25.28,171a1.68,1.68,0,0,0,.27.57q.18.21.24.21c.06,0,.15-.13.25-.39a5.66,5.66,0,0,0,.26-1.21Zm-4.41-.74H19.46v-3H22.8Zm-1.15-1v-1H20.59v1Z"/>
      <path class="cls-1" d="M34,172.69a3.74,3.74,0,0,0,1.92.52A2.45,2.45,0,0,0,38,172.15a5,5,0,0,0,.74-3h0a2.41,2.41,0,0,1-2.28,1.25,2.84,2.84,0,0,1-2.21-.94,3.33,3.33,0,0,1-.86-2.34,3.59,3.59,0,0,1,1-2.6,3.34,3.34,0,0,1,2.54-1,2.93,2.93,0,0,1,2.55,1.27,6.11,6.11,0,0,1,.91,3.61,7.59,7.59,0,0,1-1.14,4.45A3.75,3.75,0,0,1,36,174.49a4.83,4.83,0,0,1-2-.37ZM35,167a2.32,2.32,0,0,0,.51,1.57,1.73,1.73,0,0,0,1.39.58,1.76,1.76,0,0,0,1.29-.53,1.83,1.83,0,0,0,.51-1.31,2.9,2.9,0,0,0-.51-1.73,1.59,1.59,0,0,0-1.37-.72,1.63,1.63,0,0,0-1.31.62A2.33,2.33,0,0,0,35,167Z"/>
      <path class="cls-1" d="M50.9,165.28a3.59,3.59,0,0,0-1.73-.44A2.48,2.48,0,0,0,47,166a5.1,5.1,0,0,0-.78,3h0a2.49,2.49,0,0,1,2.35-1.36,2.79,2.79,0,0,1,2.18.9,3.49,3.49,0,0,1,.8,2.37,3.61,3.61,0,0,1-1,2.57,3.29,3.29,0,0,1-2.48,1,3,3,0,0,1-2.64-1.29,6.13,6.13,0,0,1-.91-3.57,7.48,7.48,0,0,1,1.19-4.38,3.79,3.79,0,0,1,3.31-1.7,4.43,4.43,0,0,1,1.8.3Zm-4.6,5.56a2.69,2.69,0,0,0,.52,1.68,1.62,1.62,0,0,0,1.35.69,1.58,1.58,0,0,0,1.32-.63,2.36,2.36,0,0,0,.49-1.53,2.41,2.41,0,0,0-.47-1.59,1.63,1.63,0,0,0-1.35-.56,1.78,1.78,0,0,0-1.33.56A1.93,1.93,0,0,0,46.3,170.84Z"/>
      <path class="cls-1" d="M68,172.13H63.27V175H62v-2.88H55.86v-1.22h1.85v-3.57H62v-2.06H58.8a24.74,24.74,0,0,1-2.17,2.35l-.89-.92a14.2,14.2,0,0,0,3.23-4l1.28.26a4.6,4.6,0,0,1-.6,1.13h7.9v1.2H63.27v2.06h4v1.2h-4v2.37H68ZM62,170.91v-2.37H59v2.37Z"/>
    </g>
    <g>
      <path class="cls-3" d="M143.67,117.68a22.64,22.64,0,0,1-3.43,1.5l-.23-1c.3-.1.71-.26,1.21-.46v-4.16h-1.07v-1h1.07v-3h1.07v3h.92v1h-.92v3.65a11.35,11.35,0,0,0,1.29-.64Zm6.54-2.91h-6.53v-3.84h6.53Zm-.48,5.14h-1.06v-.41h-3.38v.41h-1v-4.5h5.49Zm-3.38-9.6-.83.51a7.13,7.13,0,0,0-1.11-1l.85-.49A4.66,4.66,0,0,1,146.35,110.31Zm.1,3.53v-2h-1.78v2Zm-.36-.53-.76.31a5.36,5.36,0,0,0-.44-1.23l.75-.34A5.49,5.49,0,0,1,146.09,113.31Zm2.58,3.68v-.65h-3.38V117Zm0,1.57v-.7h-3.38v.7Zm.55-4.72v-2h-1.78v2Zm.35-4a6.45,6.45,0,0,1-1.26.91l-.81-.56a6.49,6.49,0,0,0,1.2-.9Zm-.57,2.5a4.47,4.47,0,0,1-.59,1.26l-.72-.33a5.9,5.9,0,0,0,.59-1.23Z"/>
      <path class="cls-3" d="M158.58,111.53h-4.2v-1H156a7.3,7.3,0,0,0-.41-.9l1.07-.26a5.61,5.61,0,0,1,.49,1.16h1.44Zm-.28,1.74h-3.59v-1h3.59Zm0,1.71h-3.59v-1h3.59Zm0,4.66h-1v-.48h-1.52v.76h-1v-4.15h3.58Zm-1-1.46v-1.42h-1.52v1.42ZM165,119l-.51,1a9.18,9.18,0,0,1-2.75-1.41,11,11,0,0,1-2.6,1.44l-.61-.91a7.62,7.62,0,0,0,2.45-1.24,8,8,0,0,1-1.52-2.47h-.54v-1h5.23v1a9.36,9.36,0,0,1-1.62,2.46A7,7,0,0,0,165,119Zm-.14-5.3h-1.56a.72.72,0,0,1-.54-.25.84.84,0,0,1-.24-.58v-2.13h-1.64v.72a3.26,3.26,0,0,1-.4,1.53,2.74,2.74,0,0,1-1.08,1.13l-.74-.73a2.31,2.31,0,0,0,1.17-2.23v-1.41h3.74v2.67a.28.28,0,0,0,.11.22.32.32,0,0,0,.21.09h1ZM163,115.4h-2.39a6.24,6.24,0,0,0,1.16,1.77A6.58,6.58,0,0,0,163,115.4Z"/>
      <path class="cls-3" d="M179.18,119.5h-10.4v-1.07h10.4Zm-.81-8.57h-8.79v-1.05h8.79Z"/>
      <path class="cls-3" d="M193.56,117.44h-4.09v2.47h-1.1v-2.47h-5.25v-1h1.59v-3.06h3.66v-1.77h-2.73a22.67,22.67,0,0,1-1.86,2l-.76-.79a12.24,12.24,0,0,0,2.77-3.45l1.1.22a4.18,4.18,0,0,1-.52,1h6.77v1h-3.67v1.77h3.4v1h-3.4v2h4.09Zm-5.19-1v-2H185.8v2Z"/>
      <path class="cls-3" d="M208,116.55H202.7a7.92,7.92,0,0,1-1.57,1.09v1.23c.7-.12,1.46-.27,2.26-.47l0,.94A25.7,25.7,0,0,1,200,120l-.2-.9a.39.39,0,0,0,.28-.36v-.56a14.25,14.25,0,0,1-2.11.74l-.59-.93a11.68,11.68,0,0,0,3.76-1.42h-3.65v-.9h4.74a1.91,1.91,0,0,0-.26-.47l1.15-.16c.12.2.24.41.35.63H208Zm-3.62-4.3h-2.92v.5h2.37v1.37a.72.72,0,0,1-.24.57,2.82,2.82,0,0,1-1.5.17l-.23-.78h.88c.09,0,.13-.06.13-.17v-.36h-1.41v1.64h-1v-1.64H199v1.31h-1v-2.1h2.41v-.5h-3v-.82h3v-.54h-1.73c-.07.09-.19.24-.38.45l-.82-.53a8.69,8.69,0,0,0,1-1.38l1,.3a3.22,3.22,0,0,1-.21.35h1.19v-.65h1v.65h2.51v.81h-2.51v.54h2.92Zm3.72,6.87-.55.91q-3.4-.57-4.46-3l1-.18A4.61,4.61,0,0,0,205,118a7.15,7.15,0,0,0,1.65-1.19l.88.61a7.24,7.24,0,0,1-1.55,1.16A10,10,0,0,0,208.06,119.12Zm-2.25-5.7h-1V110h1Zm1.84.72a.94.94,0,0,1-.17.54,1,1,0,0,1-.41.33,3.74,3.74,0,0,1-1.06.09l-.59,0-.3-1,.48,0a3.37,3.37,0,0,0,.89-.06.17.17,0,0,0,.13-.18v-4.45h1Z"/>
      <path class="cls-3" d="M222.28,119.52h-7.59v.41H213.6v-4.66a10.15,10.15,0,0,1-1.14,1l-.73-.88a11.19,11.19,0,0,0,3-3.21H212.1v-1h3.21a17.09,17.09,0,0,0,.74-1.79l1.06.28c-.19.55-.39,1-.59,1.51h5.59v1H216a17.19,17.19,0,0,1-1.28,1.91v4.39h3v-2.81h-2.44v-1h2.44v-1.92h1.12v1.92h2.61v1h-2.61v2.81h3.43Z"/>
      <path class="cls-3" d="M229.75,110.74h-.41v9.18h-1V118.2c-.63.25-1.28.47-1.94.66l-.34-1,.63-.18v-7h-.52v-1h3.56Zm-1.39,1.47v-1.47h-.69v1.47Zm0,2.52V113.2h-.69v1.53Zm0,2.39v-1.4h-.69v1.67A5.35,5.35,0,0,0,228.36,117.12Zm8.42.63a5.81,5.81,0,0,1-.44,1.89.77.77,0,0,1-.7.41.76.76,0,0,1-.6-.29,4,4,0,0,1-.54-1.09c-.42.47-.88.93-1.38,1.4l-.72-.65a9,9,0,0,0,1.81-2,27.2,27.2,0,0,1-.3-3.73h-4.17v-.95h.92a8.7,8.7,0,0,0-.32-1.42H230v-1h1.27a4.39,4.39,0,0,0-.31-.85l1-.22a9,9,0,0,1,.37,1.07h1.27v1h-.34c-.1.49-.22,1-.35,1.42h1c0-1.6,0-2.7,0-3.3h1c0,1.27,0,2.37,0,3.3h1.79v.95h-1.74c0,.75,0,1.55.1,2.38a8.61,8.61,0,0,0,.63-2l.88.38a12.48,12.48,0,0,1-1.29,3.11,4.31,4.31,0,0,0,.26.89,1.36,1.36,0,0,0,.18.37,1.28,1.28,0,0,0,.12-.42,5.66,5.66,0,0,0,.12-1.19Zm-3.49.82h-3.1v-4.33h3.1Zm-1-2.71v-.69h-1.16v.69Zm0,1.77v-.88h-1.16v.88Zm0-6.26h-.94c.12.5.21,1,.28,1.42h.27C232.07,112.22,232.2,111.75,232.28,111.37Zm4.33.67-.87.35a13.07,13.07,0,0,0-.62-2.18l.85-.33A13.43,13.43,0,0,1,236.61,112Z"/>
      <path class="cls-3" d="M251,117.77h-2.36v1a1.17,1.17,0,0,1-.27.78,1.44,1.44,0,0,1-1.13.32l-1.11,0-.27-.94c.8,0,1.29,0,1.45,0s.26-.1.26-.26v-.87h-7v-.87h7v-.37h1.07v.37H251Zm-.11-1.55-.89.52c-.23-.29-.4-.48-.51-.6-3.37.19-6.17.28-8.4.24l-.28-.85c.58,0,1.25,0,2,0,1,0,1.81,0,2.42,0v-.64h-3.66v-3.46h3.66v-.57h-4.55V110h4.55v-.6h1v.6h4.49v.82h-4.49v.57H250v3.46h-.31C250.11,115.34,250.51,115.79,250.87,116.22ZM245.24,119l-.81.75a13.33,13.33,0,0,0-1.86-1.09l.8-.74A12.47,12.47,0,0,1,245.24,119Zm0-6.21v-.59h-2.61v.59Zm0,1.26v-.54h-2.61v.54Zm3.71-1.26v-.59h-2.68v.59Zm0,1.26v-.54h-2.68v.54Zm0,.82h-2.71v.61c1.11,0,1.92-.09,2.44-.15a1.34,1.34,0,0,0-.23-.24Z"/>
      <path class="cls-3" d="M258.45,117.72c-1.34.73-2.47,1.3-3.39,1.7l-.25-1c.68-.3,1.11-.5,1.31-.6v-3.43H255v-1h1.09v-2.62h-1.25v-1h3.49v1h-1.22v2.62h1v1h-1v2.9a10.9,10.9,0,0,0,1.16-.62Zm2.26-2.94a6.73,6.73,0,0,1-.62,3,6.36,6.36,0,0,1-1.87,2.18l-.81-.72a4.78,4.78,0,0,0,2.27-4.05c0-.12,0-.2,0-.23a7,7,0,0,0-.55-.84,13.21,13.21,0,0,0-1.17-1.45l.69-.75a11.5,11.5,0,0,1,1.05,1.31v-3.86h1Zm4.59,4.84h-4.72v-1h2v-3.74h-1.43v-1h1.43v-3.08h-1.51v-1h4.11v1h-1.56v3.08h1.41v1h-1.41v3.74h1.66Z"/>
      <path class="cls-1" d="M143.67,138.68a22.64,22.64,0,0,1-3.43,1.5l-.23-1c.3-.1.71-.26,1.21-.46v-4.16h-1.07v-1h1.07v-3h1.07v3h.92v1h-.92v3.65a11.35,11.35,0,0,0,1.29-.64Zm6.54-2.91h-6.53v-3.84h6.53Zm-.48,5.14h-1.06v-.41h-3.38v.41h-1v-4.5h5.49Zm-3.38-9.6-.83.51a7.13,7.13,0,0,0-1.11-1l.85-.49A4.66,4.66,0,0,1,146.35,131.31Zm.1,3.53v-2h-1.78v2Zm-.36-.53-.76.31a5.36,5.36,0,0,0-.44-1.23l.75-.34A5.49,5.49,0,0,1,146.09,134.31Zm2.58,3.68v-.65h-3.38V138Zm0,1.57v-.7h-3.38v.7Zm.55-4.72v-2h-1.78v2Zm.35-4a6.45,6.45,0,0,1-1.26.91l-.81-.56a6.49,6.49,0,0,0,1.2-.9Zm-.57,2.5a4.47,4.47,0,0,1-.59,1.26l-.72-.33a5.9,5.9,0,0,0,.59-1.23Z"/>
      <path class="cls-1" d="M158.58,132.53h-4.2v-1H156a7.3,7.3,0,0,0-.41-.9l1.07-.26a5.61,5.61,0,0,1,.49,1.16h1.44Zm-.28,1.74h-3.59v-1h3.59Zm0,1.71h-3.59V135h3.59Zm0,4.66h-1v-.48h-1.52v.76h-1v-4.15h3.58Zm-1-1.46v-1.42h-1.52v1.42ZM165,140l-.51,1a9.18,9.18,0,0,1-2.75-1.41,11,11,0,0,1-2.6,1.44l-.61-.91a7.62,7.62,0,0,0,2.45-1.24,8,8,0,0,1-1.52-2.47h-.54v-1h5.23v1a9.36,9.36,0,0,1-1.62,2.46A7,7,0,0,0,165,140Zm-.14-5.3h-1.56a.72.72,0,0,1-.54-.25.84.84,0,0,1-.24-.58v-2.13h-1.64v.72a3.26,3.26,0,0,1-.4,1.53,2.74,2.74,0,0,1-1.08,1.13l-.74-.73a2.31,2.31,0,0,0,1.17-2.23v-1.41h3.74v2.67a.28.28,0,0,0,.11.22.32.32,0,0,0,.21.09h1ZM163,136.4h-2.39a6.24,6.24,0,0,0,1.16,1.77A6.58,6.58,0,0,0,163,136.4Z"/>
      <path class="cls-1" d="M172.7,131.82h-1.26c-.26,1-.49,1.87-.71,2.48h1.94v6.06h-1v-.59h-1v.87h-1v-4.33a3.54,3.54,0,0,1-.5.58l-.49-1a9.28,9.28,0,0,0,1.65-4h-1.51v-1h3.88Zm-1,7v-3.51h-1v3.51Zm7.55-7.14h-2.5a9.49,9.49,0,0,1-.37,1h2.34v6.06h-3.37l.62.5a8.86,8.86,0,0,1-2.3,1.78l-.62-.86a8.18,8.18,0,0,0,2-1.42h-1.51v-6.06h1.73a6.62,6.62,0,0,0,.41-1h-2.5v-1h6.09Zm-1.57,2.63v-.71h-3.13v.71Zm0,1.71v-.8h-3.13v.8Zm0,1.75v-.85h-3.13v.85Zm1.72,2.45-.65.83a11.94,11.94,0,0,0-2.07-1.38l.66-.77A9.81,9.81,0,0,1,179.39,140.2Z"/>
      <path class="cls-1" d="M193.55,135.25h-4.69v4.34h4v1h-9.11v-1h4v-4.34h-4.65v-1h4.65v-3.76h1.1v3.76h4.69Z"/>
      <path class="cls-1" d="M201,138.72c-1.34.73-2.47,1.3-3.38,1.7l-.26-1c.68-.3,1.12-.5,1.31-.6v-3.43h-1.09v-1h1.09v-2.62h-1.25v-1H201v1h-1.23v2.62h1v1h-1v2.9a11,11,0,0,0,1.17-.62Zm2.26-2.94a6.73,6.73,0,0,1-.62,3.05,6.36,6.36,0,0,1-1.87,2.18l-.8-.72a4.8,4.8,0,0,0,2.26-4,1.17,1.17,0,0,0,0-.23,7,7,0,0,0-.55-.84,13.21,13.21,0,0,0-1.17-1.45l.69-.75a11.5,11.5,0,0,1,1.05,1.31v-3.86h1Zm4.59,4.84h-4.71v-1h2v-3.74h-1.43v-1h1.43v-3.08h-1.51v-1h4.11v1h-1.56v3.08h1.41v1h-1.41v3.74h1.66Z"/>
    </g>
    <g>
      <path class="cls-3" d="M144.67,172.68a22.64,22.64,0,0,1-3.43,1.5l-.23-1c.3-.1.71-.26,1.21-.46v-4.16h-1.07v-1h1.07v-3h1.07v3h.92v1h-.92v3.65a11.35,11.35,0,0,0,1.29-.64Zm6.54-2.91h-6.53v-3.84h6.53Zm-.48,5.14h-1.06v-.41h-3.38v.41h-1v-4.5h5.49Zm-3.38-9.6-.83.51a7.13,7.13,0,0,0-1.11-1l.85-.49A4.66,4.66,0,0,1,147.35,165.31Zm.1,3.53v-2h-1.78v2Zm-.36-.53-.76.31a5.36,5.36,0,0,0-.44-1.23l.75-.34A5.49,5.49,0,0,1,147.09,168.31Zm2.58,3.68v-.65h-3.38V172Zm0,1.57v-.7h-3.38v.7Zm.55-4.72v-2h-1.78v2Zm.35-4a6.45,6.45,0,0,1-1.26.91l-.81-.56a6.49,6.49,0,0,0,1.2-.9Zm-.57,2.5a4.47,4.47,0,0,1-.59,1.26l-.72-.33a5.9,5.9,0,0,0,.59-1.23Z"/>
      <path class="cls-3" d="M159.58,166.53h-4.2v-1H157a7.3,7.3,0,0,0-.41-.9l1.07-.26a5.61,5.61,0,0,1,.49,1.16h1.44Zm-.28,1.74h-3.59v-1h3.59Zm0,1.71h-3.59V169h3.59Zm0,4.66h-1v-.48h-1.52v.76h-1v-4.15h3.58Zm-1-1.46v-1.42h-1.52v1.42ZM166,174l-.51,1a9.18,9.18,0,0,1-2.75-1.41,11,11,0,0,1-2.6,1.44l-.61-.91a7.62,7.62,0,0,0,2.45-1.24,8,8,0,0,1-1.52-2.47h-.54v-1h5.23v1a9.36,9.36,0,0,1-1.62,2.46A7,7,0,0,0,166,174Zm-.14-5.3h-1.56a.72.72,0,0,1-.54-.25.84.84,0,0,1-.24-.58v-2.13h-1.64v.72a3.26,3.26,0,0,1-.4,1.53,2.74,2.74,0,0,1-1.08,1.13l-.74-.73a2.31,2.31,0,0,0,1.17-2.23v-1.41h3.74v2.67a.28.28,0,0,0,.11.22.32.32,0,0,0,.21.09h1ZM164,170.4h-2.39a6.24,6.24,0,0,0,1.16,1.77A6.58,6.58,0,0,0,164,170.4Z"/>
      <path class="cls-3" d="M173.7,165.82h-1.26c-.26,1-.49,1.87-.71,2.48h1.94v6.06h-1v-.59h-1v.87h-1v-4.33a3.54,3.54,0,0,1-.5.58l-.49-1a9.28,9.28,0,0,0,1.65-4h-1.51v-1h3.88Zm-1,7v-3.51h-1v3.51Zm7.55-7.14h-2.5a9.49,9.49,0,0,1-.37,1h2.34v6.06h-3.37l.62.5a8.86,8.86,0,0,1-2.3,1.78l-.62-.86a8.18,8.18,0,0,0,2-1.42h-1.51v-6.06h1.73a6.62,6.62,0,0,0,.41-1h-2.5v-1h6.09Zm-1.57,2.63v-.71h-3.13v.71Zm0,1.71v-.8h-3.13v.8Zm0,1.75v-.85h-3.13v.85Zm1.72,2.45-.65.83a11.94,11.94,0,0,0-2.07-1.38l.66-.77A9.81,9.81,0,0,1,180.39,174.2Z"/>
      <path class="cls-3" d="M194.55,169.25h-4.69v4.34h4v1h-9.11v-1h4v-4.34h-4.65v-1h4.65v-3.76h1.1v3.76h4.69Z"/>
      <path class="cls-3" d="M208.93,174.52h-7.6v.41h-1.08v-4.66a10.15,10.15,0,0,1-1.14,1l-.73-.88a11.19,11.19,0,0,0,3-3.21h-2.62v-1H202a17.09,17.09,0,0,0,.74-1.79l1.05.28c-.18.55-.38,1.05-.58,1.51h5.59v1h-6.14a16,16,0,0,1-1.29,1.91v4.39h3v-2.81h-2.44v-1h2.44v-1.92h1.11v1.92h2.62v1h-2.62v2.81h3.44Z"/>
      <path class="cls-3" d="M216.39,165.74H216v9.18h-1V173.2c-.63.25-1.28.47-1.94.66l-.34-1,.62-.18v-7h-.51v-1h3.55ZM215,167.21v-1.47h-.7v1.47Zm0,2.52V168.2h-.7v1.53Zm0,2.39v-1.4h-.7v1.67A5.43,5.43,0,0,0,215,172.12Zm8.42.63a6.09,6.09,0,0,1-.44,1.89.79.79,0,0,1-.71.41.74.74,0,0,1-.59-.29,4,4,0,0,1-.54-1.09c-.42.47-.88.93-1.39,1.4l-.72-.65a8.52,8.52,0,0,0,1.81-1.95,30.79,30.79,0,0,1-.3-3.73h-4.17v-1h.92a7.66,7.66,0,0,0-.31-1.42h-.32v-1h1.27a4.39,4.39,0,0,0-.31-.85l1-.22a7.48,7.48,0,0,1,.36,1.07h1.28v1h-.34c-.1.49-.22,1-.35,1.42h1c0-1.6,0-2.7,0-3.3h1c0,1.27,0,2.37,0,3.3h1.79v1h-1.74c0,.75,0,1.55.1,2.38a8.61,8.61,0,0,0,.63-2l.88.38a13.28,13.28,0,0,1-1.29,3.11,5.08,5.08,0,0,0,.25.89,1.84,1.84,0,0,0,.18.37,1.13,1.13,0,0,0,.13-.42,6.43,6.43,0,0,0,.12-1.19Zm-3.5.82h-3.1v-4.33h3.1Zm-1-2.71v-.69h-1.17v.69Zm0,1.77v-.88h-1.17v.88Zm0-6.26H218a14,14,0,0,1,.27,1.42h.28C218.72,167.22,218.85,166.75,218.93,166.37Zm4.33.67-.88.35a12.89,12.89,0,0,0-.61-2.18l.85-.33A13.43,13.43,0,0,1,223.26,167Z"/>
      <path class="cls-3" d="M237.63,172.77h-2.36v1a1.17,1.17,0,0,1-.27.78,1.45,1.45,0,0,1-1.13.32l-1.11,0-.27-.94c.8,0,1.28,0,1.45,0s.26-.1.26-.26v-.87h-7v-.87h7v-.37h1.07v.37h2.36Zm-.12-1.55-.89.52c-.22-.29-.39-.48-.5-.6-3.37.19-6.17.28-8.4.24l-.28-.85c.58,0,1.25,0,2,0,1,0,1.81,0,2.42,0v-.64h-3.66v-3.46h3.66v-.57h-4.56V165h4.56v-.6h1v.6h4.49v.82H232.9v.57h3.71v3.46h-.31C236.75,170.34,237.16,170.79,237.51,171.22ZM231.88,174l-.8.75a13.33,13.33,0,0,0-1.86-1.09l.79-.74A11.54,11.54,0,0,1,231.88,174Zm0-6.21v-.59h-2.61v.59Zm0,1.26v-.54h-2.61v.54Zm3.71-1.26v-.59H232.9v.59Zm0,1.26v-.54H232.9v.54Zm0,.82h-2.7v.61c1.1,0,1.92-.09,2.44-.15a1.82,1.82,0,0,0-.23-.24Z"/>
      <path class="cls-3" d="M245.1,172.72c-1.34.73-2.47,1.3-3.39,1.7l-.25-1c.68-.3,1.11-.5,1.31-.6v-3.43h-1.09v-1h1.09v-2.62h-1.25v-1H245v1h-1.22v2.62h1v1h-1v2.9a12,12,0,0,0,1.16-.62Zm2.25-2.94a6.74,6.74,0,0,1-.61,3.05,6.36,6.36,0,0,1-1.87,2.18l-.81-.72a4.77,4.77,0,0,0,2.26-4V170a8.2,8.2,0,0,0-.56-.84,11.23,11.23,0,0,0-1.17-1.45l.7-.75a10.51,10.51,0,0,1,1,1.31v-3.86h1Zm4.6,4.84h-4.72v-1h2v-3.74h-1.43v-1h1.43v-3.08h-1.51v-1h4.1v1h-1.55v3.08h1.41v1h-1.41v3.74H252Z"/>
    </g>
  </g>
</svg>
