<svg id="圖層_1" data-name="圖層 1" xmlns="http://www.w3.org/2000/svg" viewBox="0 0 152 50">
  <defs>
    <style>
      .cls-1 {
        fill: #595757;
      }

      .cls-2, .cls-3 {
        fill: #231815;
      }

      .cls-3, .cls-4 {
        fill-rule: evenodd;
      }

      .cls-4 {
        fill: #cbbf32;
      }
    </style>
  </defs>
  <g>
    <path class="cls-1" d="M64.06,14c.33,0,.5.15.5.47s-.17.47-.5.47H59.3v8.59h5.43c.33,0,.5.16.5.47s-.17.47-.5.47h-12c-.34,0-.51-.16-.51-.47s.17-.47.51-.47h5.43V15H53.47c-.34,0-.51-.16-.51-.47s.17-.47.51-.47Zm18.12-.49c.27,0,.4.13.4.38s-.13.42-.4.42H78.83c0,.24-.19.35-.5.35s-.44-.11-.45-.35H73.79c0,.24-.19.35-.49.35s-.43-.11-.45-.35H69.77c-.27,0-.4-.14-.4-.42s.13-.38.4-.38h3.08v-.25q0-.42.45-.42c.32,0,.49.14.49.42v.25h4.08v-.25c0-.28.15-.42.46-.42s.5.14.5.42v.25Zm-7.09,1.63H73.23v0a.44.44,0,1,0-.88,0v0h-2c-.23,0-.35.1-.35.32s.12.3.35.3h2v.58H69.77c-.23,0-.35.11-.35.33s.12.3.35.3h1.48a1,1,0,0,1-.09.4.74.74,0,0,1-.44.31,5.69,5.69,0,0,1-1,.09c-.23,0-.35.12-.35.3s.12.38.35.38A4.56,4.56,0,0,0,71,18.35a1.1,1.1,0,0,0,.74-.55,1.71,1.71,0,0,0,.19-.81h1.74v.69c0,.42.25.63.73.63h1.12c.23,0,.35-.11.35-.33s-.12-.3-.35-.3h-.83c-.14,0-.22-.09-.22-.27V17h.9q.33,0,.33-.3a.29.29,0,0,0-.33-.33H73.23v-.58h1.86c.21,0,.32-.1.32-.3a.28.28,0,0,0-.32-.32ZM75,18.84c.23,0,.35.09.35.3s-.12.32-.35.32H73.17v.66c.67-.06,1.31-.15,1.92-.25a.29.29,0,0,1,.32.33c0,.23-.11.35-.32.36-1.86.24-3.63.41-5.32.53-.27,0-.4-.14-.4-.42s.13-.37.4-.38q1.33,0,2.52-.09v-.74H70.21a.29.29,0,0,1-.33-.32c0-.21.11-.3.33-.3h2.08v-.58q0-.42.45-.42a.37.37,0,0,1,.43.42v.58Zm3.26-4c.34,0,.5.12.5.37a5,5,0,0,1,0,.52H79.9c.52,0,.78.25.78.73v.91A4.67,4.67,0,0,0,81,19.06c0,.08.08.13.14.13s.35-.45.56-1.35c0-.21.18-.32.44-.33a.4.4,0,0,1,.4.43,5.26,5.26,0,0,1-.26,1.17,2.8,2.8,0,0,1-.58,1.15.81.81,0,0,1-.56.25.73.73,0,0,1-.53-.22,2,2,0,0,1-.54-.89,6.52,6.52,0,0,1-.27-2v-.53a.29.29,0,0,0-.33-.32H78.6A9.43,9.43,0,0,1,78.29,18a2.08,2.08,0,0,1-.13.3c.37.36.72.74,1.07,1.13a.91.91,0,0,1,0,.26c0,.25-.15.37-.45.37a1,1,0,0,1-.29-.05c-.26-.31-.53-.6-.8-.89a4,4,0,0,1-.23.34,4.62,4.62,0,0,1-1.19,1,.56.56,0,0,1-.18.08c-.33,0-.49-.16-.49-.47a.34.34,0,0,1,.22-.33,4.08,4.08,0,0,0,1-1,2.9,2.9,0,0,0,.19-.29l-.9-.87a.71.71,0,0,1-.11-.24c0-.26.15-.38.46-.38a.31.31,0,0,1,.21.1l.71.58a1.31,1.31,0,0,1,.05-.15,5.49,5.49,0,0,0,.19-.95H76.64c-.25,0-.38-.14-.38-.41a.34.34,0,0,1,.38-.38h1.14q0-.25,0-.57c0-.21.16-.32.41-.32Zm1.06,6.25H72.74c-.24,0-.35.1-.35.3s.11.33.35.33h6.54c.22,0,.32-.11.32-.33s-.1-.3-.32-.3Zm2.84,1.25c.27,0,.41.13.41.37s-.14.35-.41.35H79.36c.22.13.43.24.63.34a11.1,11.1,0,0,1,1.64,1c.11.11.17.2.17.26q0,.42-.45.42a.72.72,0,0,1-.46-.16l-1-.67a.3.3,0,0,1-.24.1q-4.83.39-9.22.57c-.27,0-.4-.16-.4-.47s.13-.36.4-.36l2-.05,1-1H69.83c-.27,0-.41-.11-.41-.35s.14-.37.41-.37Zm-3.26,1.38-.7-.33a.46.46,0,0,1-.18-.33H74.62l-1,1q2.81-.11,5.19-.33Zm15.2-10.56h2.73c.68,0,1,.32,1,.95v2.52a.29.29,0,0,0,.08.21,1.23,1.23,0,0,0,.42,0,.35.35,0,0,0,.28-.11.69.69,0,0,0,.09-.4v-.83c0-.22.18-.33.46-.33a.46.46,0,0,1,.5.48A5.1,5.1,0,0,1,99.53,17a1.06,1.06,0,0,1-.37.54,1,1,0,0,1-.63.19h-.69c-.7,0-1-.31-1-.94V14.21c0-.1-.13-.15-.38-.15H94.62c-.22,0-.34,0-.34.15v1.22A2.75,2.75,0,0,1,94,16.78a3.26,3.26,0,0,1-.85,1,1.13,1.13,0,0,1-.55.23.47.47,0,0,1-.5-.48.54.54,0,0,1,.18-.35,2.86,2.86,0,0,0,.78-.85,2.42,2.42,0,0,0,.21-1.1V14.11c0-.63.27-.95.8-.95Zm-1.23,5.2h5.54q.78,0,.78.63a2.25,2.25,0,0,1-.32.9,12.89,12.89,0,0,1-1.59,2.21c-.2.2-.4.41-.61.61a5.72,5.72,0,0,0,.48.32,12.43,12.43,0,0,0,2.25,1.1c.2.1.29.22.29.36,0,.39-.18.58-.55.58a2.59,2.59,0,0,1-.55-.13,10.92,10.92,0,0,1-2.14-1.12c-.22-.14-.44-.28-.64-.43l-.32.24a11.7,11.7,0,0,1-2.54,1.29,2.38,2.38,0,0,1-.64.2c-.41,0-.61-.19-.61-.58s.14-.41.43-.47a12,12,0,0,0,2-.82c.32-.18.62-.36.91-.55-.2-.2-.39-.42-.59-.64a9.29,9.29,0,0,1-1.33-2.82h-.22a.4.4,0,0,1-.45-.46q0-.42.45-.42Zm1.27.88a7.2,7.2,0,0,0,1.21,2.23,3.17,3.17,0,0,0,.53.57l.26-.23a9.12,9.12,0,0,0,1.61-2.1,1.38,1.38,0,0,0,.21-.47ZM91,13.34c.3,0,.45.13.45.41a.4.4,0,0,1-.45.46H87.68a.41.41,0,0,1-.46-.46c0-.28.16-.41.46-.41Zm.56,1.72c.34,0,.5.16.5.48s-.16.47-.5.47H87.12c-.34,0-.51-.16-.51-.47s.17-.48.51-.48Zm-.43,1.88a.38.38,0,0,1,.43.43c0,.31-.15.47-.43.47H87.63a.41.41,0,0,1-.46-.47c0-.29.15-.43.46-.43Zm0,1.9c.28,0,.43.13.43.4s-.15.47-.43.47H87.63c-.31,0-.46-.15-.46-.47s.15-.4.46-.4Zm-3,1.77h2.57c.62,0,.93.28.93.83V24q0,.87-.93.87H88.08q-1,0-1-.87V21.44c0-.55.32-.83,1-.83ZM90.19,24c.27,0,.4-.14.4-.42V21.87c0-.25-.13-.38-.4-.38H88.51a.34.34,0,0,0-.38.38v1.68c0,.28.13.42.38.42Zm26.42-7.13c.33,0,.5.16.5.48a.46.46,0,0,1-.5.52h-2.47V24.6c0,.31-.18.47-.55.47s-.5-.16-.5-.47V17.84h-2.74a.47.47,0,0,1-.52-.52c0-.32.18-.48.52-.48h2.74V13.48c0-.32.17-.47.5-.47s.55.15.55.47v3.36Zm-7.9-3.5c.3,0,.45.13.45.41a.4.4,0,0,1-.45.46H105a.4.4,0,0,1-.45-.46c0-.28.15-.41.45-.41Zm.74,1.72h-5.14c-.35,0-.52.16-.52.48s.17.47.52.47h5.14c.33,0,.5-.16.5-.47s-.17-.48-.5-.48Zm-.5,1.88a.38.38,0,0,1,.43.43c0,.31-.14.47-.43.47h-4.08a.41.41,0,0,1-.46-.47c0-.29.15-.43.46-.43Zm0,1.9c.29,0,.43.13.43.4s-.14.47-.43.47h-4.08c-.31,0-.46-.15-.46-.47s.15-.4.46-.4Zm-3.63,1.77h3.18c.64,0,1,.28,1,.83V24c0,.58-.31.87-1,.87h-3.18c-.65,0-1-.29-1-.87V21.44c0-.55.32-.83,1-.83ZM108,24a.37.37,0,0,0,.41-.42V21.87c0-.25-.14-.38-.41-.38h-2.29a.34.34,0,0,0-.38.38v1.68c0,.28.13.42.38.42Zm15-8.28.07.83h1.64q.39,0,.39.36c0,.29-.13.44-.39.44h-1.57l.06.66h8.35q0-.37.09-.72h-1.56c-.25,0-.38-.14-.38-.42a.34.34,0,0,1,.38-.38h1.66c0-.3.07-.58.1-.82H130c-.25,0-.38-.15-.38-.43a.33.33,0,0,1,.38-.37h2c.05-.46.08-.71.08-.73s-.1-.15-.29-.15H130c-.25,0-.38-.14-.38-.43a.34.34,0,0,1,.38-.37h2.31c.51,0,.76.22.76.65q0,.18-.54,4.17H133a1,1,0,0,1,.88.4,1.28,1.28,0,0,1,.24.86,5.44,5.44,0,0,1-.11,1,.58.58,0,0,1-.62.37c-.33,0-.5-.15-.5-.47a5.32,5.32,0,0,0,.15-.85c0-.3-.14-.45-.43-.45H122.44c-.22,0-.33.09-.33.3v1.1c0,.32-.17.48-.52.48s-.5-.16-.5-.48V18.66c0-.45.24-.68.74-.68h.54l-.32-3.92a1,1,0,0,1,.23-.72,1,1,0,0,1,.71-.23,10.64,10.64,0,0,0,1.92-.21c.28,0,.43.17.43.49s-.16.42-.49.47a14.29,14.29,0,0,1-1.62.1c-.2,0-.3.1-.3.31l.06.64h1.62c.27,0,.41.11.41.35s-.14.43-.41.43ZM128.6,13a.69.69,0,0,0-.3.1,6.21,6.21,0,0,1-.92.71c-.31-.14-.65-.29-1-.43a.73.73,0,0,0-.26-.06q-.39,0-.39.36a.43.43,0,0,0,.1.27c.28.11.53.23.76.34a8.21,8.21,0,0,1-1,.49q-.24.09-.24.27c0,.32.14.47.41.47a.78.78,0,0,0,.26-.09,12.25,12.25,0,0,0,1.49-.68l.75.45a1.19,1.19,0,0,0,.46.1c.27,0,.39-.14.39-.42a.58.58,0,0,0-.12-.25c-.21-.14-.42-.27-.66-.4a4.24,4.24,0,0,0,.55-.44.42.42,0,0,0,.23-.36c0-.29-.14-.43-.44-.43Zm.32,2.47a.65.65,0,0,0-.27.11,11.11,11.11,0,0,1-1,.65c-.31-.14-.68-.29-1.1-.46a1.76,1.76,0,0,0-.27,0c-.27,0-.4.12-.4.37a.33.33,0,0,0,.13.25l.79.35c-.32.16-.67.31-1,.45a.29.29,0,0,0-.21.26c0,.31.12.47.37.47a1.11,1.11,0,0,0,.3-.08c.54-.21,1-.42,1.48-.64l.81.44a.79.79,0,0,0,.45.12c.25,0,.38-.14.38-.42a.76.76,0,0,0-.1-.27l-.67-.37.56-.4a.48.48,0,0,0,.21-.38c0-.27-.15-.41-.45-.41Zm4.54,6.49h-4.72a3,3,0,0,0-.3-.32,12.09,12.09,0,0,0,1.47-.53,6,6,0,0,0,1.16-.65c.17-.12.25-.23.25-.33,0-.38-.29-.57-.88-.57h-6.39a.37.37,0,0,0-.43.42c0,.27.14.4.43.4h5.32c.15,0,.24,0,.24.12s-.09.07-.27.14a4.79,4.79,0,0,1-.74.26l-.87.23-.2-.12a.84.84,0,0,0-.33-.11.52.52,0,0,0-.56.53s0,.07.12.12a2.31,2.31,0,0,1,.68.39l0,0h-6c-.31,0-.46.14-.46.42s.15.48.46.48h6.59a1.93,1.93,0,0,1,.07.57.57.57,0,0,1-.21.42,1,1,0,0,1-.52.27,1.54,1.54,0,0,1-.56.1,12.85,12.85,0,0,1-2.08-.43c-.28,0-.43.19-.43.52a.54.54,0,0,0,.43.52,7.07,7.07,0,0,0,2.14.38A3.07,3.07,0,0,0,128,25a1.82,1.82,0,0,0,.82-.62,1.63,1.63,0,0,0,.36-1,2.22,2.22,0,0,0-.07-.57h4.32q.45,0,.45-.48t-.45-.42Zm16.63-9c.33,0,.5.18.5.54s-.2.41-.61.47c-1.33.14-3.13.26-5.4.37l-.55,0a.56.56,0,0,1-.21.31,14.36,14.36,0,0,1-2.15,1.87,2.09,2.09,0,0,0,.28.17,16,16,0,0,1,2.57,1.68l.7-.69a25.45,25.45,0,0,0,2.06-2.54.61.61,0,0,1,.85-.07.52.52,0,0,1,.17.38.48.48,0,0,1-.11.3,21.68,21.68,0,0,1-1.79,2.19c-.37.37-.77.73-1.2,1.09L149,18.9c-.31-.37-.65-.76-1-1.17a.56.56,0,0,1-.18-.36c0-.29.16-.43.46-.43a.78.78,0,0,1,.34.1c.43.46.81.9,1.13,1.32a12.26,12.26,0,0,1,1.5,2.1.47.47,0,0,1,.15.26q0,.42-.45.42a.63.63,0,0,1-.43-.17c-.31-.46-.59-.87-.85-1.22l-.16,0-4.25.18v4.84c0,.35-.18.53-.56.53s-.56-.18-.56-.53V20l-5.59.15c-.34,0-.5-.19-.5-.57s.16-.46.5-.47q2.73,0,5.19-.06l.1-.07c-1-.69-1.87-1.24-2.56-1.63s-1.27-.67-2-1a.55.55,0,0,1-.17-.37c0-.3.16-.46.49-.46a.86.86,0,0,1,.35.11c.3.15.58.29.85.44a19.15,19.15,0,0,0,2-1.65c-1.54.07-2.68.11-3.39.11-.41,0-.62-.18-.62-.53s.17-.43.52-.43c1.89,0,3.64-.06,5.26-.14q3-.15,5.59-.49Zm-8.45,7.82a.44.44,0,0,0-.4.25,16.61,16.61,0,0,1-3,3.16.6.6,0,0,0-.12.36c0,.35.21.52.62.52a.65.65,0,0,0,.41-.17,17.51,17.51,0,0,0,2.83-3,1,1,0,0,0,.24-.58c0-.35-.18-.52-.56-.52Zm6.2,0c-.34,0-.51.16-.51.47a.54.54,0,0,0,.19.35c.41.45.78.88,1.13,1.29s.87,1.16,1.44,2a.74.74,0,0,0,.5.17.45.45,0,0,0,.51-.52c0-.07-.06-.17-.19-.31a12.59,12.59,0,0,0-1.52-2.07c-.36-.42-.77-.85-1.2-1.3A.86.86,0,0,0,147.84,20.72Z"/>
    <rect class="cls-2" x="51.75" y="28.22" width="99.49" height="0.41"/>
    <path class="cls-1" d="M56.17,37.49a3.15,3.15,0,0,1-1.42.29A2.3,2.3,0,0,1,53,37.09a2.5,2.5,0,0,1-.66-1.81,2.64,2.64,0,0,1,.74-2A2.54,2.54,0,0,1,55,32.58a3.05,3.05,0,0,1,1.21.21v.83a2.2,2.2,0,0,0-1.13-.3,1.76,1.76,0,0,0-1.32.52,1.91,1.91,0,0,0-.51,1.4,1.82,1.82,0,0,0,.48,1.32,1.63,1.63,0,0,0,1.24.49,2.27,2.27,0,0,0,1.24-.33v.77Zm3.34-2.61a.67.67,0,0,0-.43-.11.71.71,0,0,0-.6.32,1.49,1.49,0,0,0-.24.89V37.7h-.82V34.11h.82v.74h0a1.18,1.18,0,0,1,.37-.59.79.79,0,0,1,.55-.22.75.75,0,0,1,.34.07v.77Zm3.73,2.82h-.79v-.56h0a1.18,1.18,0,0,1-1.09.64,1.12,1.12,0,0,1-.83-.29,1,1,0,0,1-.3-.76c0-.67.39-1.07,1.17-1.18l1.07-.15c0-.52-.24-.77-.73-.77a1.77,1.77,0,0,0-1.16.44v-.71A2.48,2.48,0,0,1,61.87,34a1.2,1.2,0,0,1,1.37,1.34V37.7Zm-.79-1.77L61.7,36a1.22,1.22,0,0,0-.53.17.49.49,0,0,0-.18.44.51.51,0,0,0,.16.37.63.63,0,0,0,.44.15.81.81,0,0,0,.62-.27.92.92,0,0,0,.24-.65v-.32ZM66.65,33a.75.75,0,0,0-.37-.09c-.4,0-.59.22-.59.67v.49h.83v.63h-.83v3h-.82v-3h-.61v-.63h.61v-.59a1.13,1.13,0,0,1,.38-.89,1.36,1.36,0,0,1,.93-.33,1.19,1.19,0,0,1,.47.07V33Zm2.87,4.62a1.41,1.41,0,0,1-.63.12.91.91,0,0,1-1-1v-2h-.6v-.63h.6v-.83l.81-.24v1.07h.86v.63h-.86v1.8a.7.7,0,0,0,.12.46.46.46,0,0,0,.38.13.56.56,0,0,0,.36-.12v.65Zm.87-.07v-.76a1.65,1.65,0,0,0,1,.35c.49,0,.74-.15.74-.44a.32.32,0,0,0-.07-.2.66.66,0,0,0-.17-.16l-.25-.12-.33-.12a2.84,2.84,0,0,1-.39-.18,1.46,1.46,0,0,1-.3-.22.85.85,0,0,1-.17-.29.82.82,0,0,1-.06-.37.84.84,0,0,1,.12-.45,1.07,1.07,0,0,1,.33-.34,1.67,1.67,0,0,1,.47-.2,2.35,2.35,0,0,1,.54-.07,2.48,2.48,0,0,1,.89.15v.71a1.51,1.51,0,0,0-.87-.25,1.27,1.27,0,0,0-.28,0,1,1,0,0,0-.21.08.43.43,0,0,0-.13.14.26.26,0,0,0-.05.17.31.31,0,0,0,.05.2.47.47,0,0,0,.14.14,1,1,0,0,0,.23.11l.31.11.42.2a1.23,1.23,0,0,1,.31.22.84.84,0,0,1,.2.29.94.94,0,0,1,.07.39.89.89,0,0,1-.12.47,1.1,1.1,0,0,1-.34.34,1.68,1.68,0,0,1-.49.2,2.65,2.65,0,0,1-.58.06,2.48,2.48,0,0,1-1-.19Zm8.83.11-.46-.49a2,2,0,0,1-.33.24,1.38,1.38,0,0,1-.39.18,3,3,0,0,1-.43.12,3.13,3.13,0,0,1-.44,0,2.5,2.5,0,0,1-.69-.1,1.73,1.73,0,0,1-.52-.28,1.31,1.31,0,0,1-.33-.44,1.25,1.25,0,0,1-.12-.56c0-.57.39-1.06,1.15-1.45a2,2,0,0,1-.53-1.17,1.09,1.09,0,0,1,.11-.48,1,1,0,0,1,.29-.38,1.26,1.26,0,0,1,.44-.25,1.61,1.61,0,0,1,1.09,0,1.16,1.16,0,0,1,.41.22,1.1,1.1,0,0,1,.26.34,1,1,0,0,1,.09.43,1.31,1.31,0,0,1-.06.41,1,1,0,0,1-.19.35,1.65,1.65,0,0,1-.33.31,3.86,3.86,0,0,1-.51.29l.55.59.58.6A1.58,1.58,0,0,0,79,36a2.49,2.49,0,0,0,.11-.29,3,3,0,0,0,.07-.32c0-.11,0-.22,0-.32h.71a2.55,2.55,0,0,1-.61,1.69l.4.41.57.58Zm-1.14-4a.49.49,0,0,0,0-.21.57.57,0,0,0-.12-.18.5.5,0,0,0-.38-.16.77.77,0,0,0-.27,0,.57.57,0,0,0-.21.13.64.64,0,0,0-.13.19.7.7,0,0,0-.05.25,1.5,1.5,0,0,0,.46.84c.5-.26.74-.55.74-.9Zm.26,3-1.28-1.37a1.55,1.55,0,0,0-.56.43.88.88,0,0,0-.17.53.74.74,0,0,0,.07.34.67.67,0,0,0,.19.25.85.85,0,0,0,.28.16,1,1,0,0,0,.35.06,1.69,1.69,0,0,0,1.12-.4Zm4.55.94v-5h1.45c1.86,0,2.78.82,2.78,2.45A2.39,2.39,0,0,1,86.35,37a2.94,2.94,0,0,1-2.07.71Zm.83-4.32V37h.67a1.69,1.69,0,0,0,1.86-1.85c0-1.17-.61-1.76-1.83-1.76Zm7.67,2.74H88.94a1,1,0,0,0,.31.77,1.12,1.12,0,0,0,.8.27,1.76,1.76,0,0,0,1.06-.34v.65a2.38,2.38,0,0,1-1.3.31,1.58,1.58,0,0,1-1.24-.49,2.23,2.23,0,0,1,0-2.74A1.63,1.63,0,0,1,89.84,34,1.42,1.42,0,0,1,91,34.5a2,2,0,0,1,.4,1.31v.31Zm-.79-.57a1.06,1.06,0,0,0-.2-.68.69.69,0,0,0-.56-.25.79.79,0,0,0-.6.26,1.19,1.19,0,0,0-.3.67Zm1.73,2v-.76a1.65,1.65,0,0,0,1,.35c.49,0,.74-.15.74-.44a.27.27,0,0,0-.07-.2.53.53,0,0,0-.17-.16l-.25-.12-.32-.12a3,3,0,0,1-.4-.18,1.16,1.16,0,0,1-.29-.22.88.88,0,0,1-.18-.29,1,1,0,0,1-.06-.37.84.84,0,0,1,.12-.45,1.07,1.07,0,0,1,.33-.34,1.8,1.8,0,0,1,.47-.2A2.5,2.5,0,0,1,93.8,34a2.54,2.54,0,0,1,.9.15v.71a1.56,1.56,0,0,0-.88-.25,1.12,1.12,0,0,0-.27,0,.93.93,0,0,0-.22.08.57.57,0,0,0-.13.14.26.26,0,0,0,0,.17.31.31,0,0,0,0,.2.47.47,0,0,0,.14.14,1.23,1.23,0,0,0,.23.11l.31.11a4.18,4.18,0,0,1,.42.2,1.23,1.23,0,0,1,.31.22.72.72,0,0,1,.2.29.94.94,0,0,1,.07.39.89.89,0,0,1-.12.47,1.1,1.1,0,0,1-.34.34,1.73,1.73,0,0,1-.48.2,2.81,2.81,0,0,1-.59.06,2.48,2.48,0,0,1-1-.19Zm4.13-4.24a.47.47,0,0,1-.34-.13.39.39,0,0,1-.14-.33.42.42,0,0,1,.14-.33.47.47,0,0,1,.34-.13.48.48,0,0,1,.35.13.44.44,0,0,1,0,.66.48.48,0,0,1-.35.13Zm.4,4.35h-.81V34.11h.81V37.7Zm4.73-.29a1.75,1.75,0,0,1-2,2,2.89,2.89,0,0,1-1.22-.24v-.74a2.29,2.29,0,0,0,1.12.34,1.12,1.12,0,0,0,1.28-1.26v-.4h0a1.41,1.41,0,0,1-2.27.21,1.91,1.91,0,0,1-.4-1.28,2.27,2.27,0,0,1,.43-1.46A1.44,1.44,0,0,1,99.71,34a1.15,1.15,0,0,1,1.05.58h0v-.49h.81v3.3Zm-.81-1.36v-.46a.9.9,0,0,0-.25-.65.8.8,0,0,0-.62-.27.9.9,0,0,0-.73.34,1.59,1.59,0,0,0-.26,1,1.34,1.34,0,0,0,.25.85.81.81,0,0,0,.67.31.85.85,0,0,0,.68-.3,1.12,1.12,0,0,0,.26-.78Zm5.46,1.65h-.81v-2c0-.67-.24-1-.71-1a.77.77,0,0,0-.62.28,1,1,0,0,0-.24.7V37.7H103V34.11h.82v.59h0A1.27,1.27,0,0,1,105,34a1.08,1.08,0,0,1,.89.38,1.7,1.7,0,0,1,.31,1.1v2.2Zm3.06,0v-5h1.45c1.86,0,2.78.82,2.78,2.45a2.39,2.39,0,0,1-.77,1.87,2.94,2.94,0,0,1-2.07.71Zm.83-4.32V37h.67a1.69,1.69,0,0,0,1.86-1.85c0-1.17-.61-1.76-1.83-1.76Zm7.67,2.74h-2.45a1,1,0,0,0,.31.77,1.12,1.12,0,0,0,.8.27,1.76,1.76,0,0,0,1.06-.34v.65a2.38,2.38,0,0,1-1.3.31,1.58,1.58,0,0,1-1.24-.49,2.23,2.23,0,0,1,0-2.74,1.63,1.63,0,0,1,1.23-.53,1.38,1.38,0,0,1,1.14.48,1.94,1.94,0,0,1,.41,1.31v.31Zm-.79-.57a1,1,0,0,0-.21-.68.66.66,0,0,0-.56-.25.79.79,0,0,0-.59.26,1.19,1.19,0,0,0-.3.67Zm2.79,1.62h0v2.18H119V34.11h.81v.63h0A1.32,1.32,0,0,1,121,34a1.28,1.28,0,0,1,1.06.48,2,2,0,0,1,.38,1.29,2.23,2.23,0,0,1-.43,1.44,1.41,1.41,0,0,1-1.17.54,1.17,1.17,0,0,1-1.06-.6Zm0-1.42v.45a.93.93,0,0,0,.26.66.79.79,0,0,0,.63.28.83.83,0,0,0,.71-.36,1.63,1.63,0,0,0,.26-1,1.3,1.3,0,0,0-.24-.83.79.79,0,0,0-.65-.3.87.87,0,0,0-.7.31,1.11,1.11,0,0,0-.27.77Zm6.59,2h-.79v-.56h0a1.18,1.18,0,0,1-1.09.64,1.12,1.12,0,0,1-.83-.29,1,1,0,0,1-.3-.76c0-.67.39-1.07,1.17-1.18l1.07-.15c0-.52-.24-.77-.73-.77a1.77,1.77,0,0,0-1.16.44v-.71A2.48,2.48,0,0,1,125,34a1.19,1.19,0,0,1,1.36,1.34V37.7Zm-.78-1.77-.76.11a1.17,1.17,0,0,0-.52.17.49.49,0,0,0-.18.44.47.47,0,0,0,.16.37.63.63,0,0,0,.44.15.78.78,0,0,0,.61-.27.88.88,0,0,0,.25-.65v-.32Zm4.26-1a.69.69,0,0,0-.43-.11.71.71,0,0,0-.6.32,1.49,1.49,0,0,0-.25.89V37.7h-.81V34.11h.81v.74h0a1.18,1.18,0,0,1,.37-.59.77.77,0,0,1,.55-.22.78.78,0,0,1,.34.07v.77Zm3.07,2.78a1.41,1.41,0,0,1-.63.12c-.7,0-1.05-.34-1.05-1v-2h-.6v-.63h.6v-.83l.82-.24v1.07h.86v.63h-.86v1.8a.78.78,0,0,0,.11.46.5.5,0,0,0,.39.13.56.56,0,0,0,.36-.12v.65Zm6.46,0h-.81v-2a1.56,1.56,0,0,0-.16-.82.61.61,0,0,0-.54-.25.66.66,0,0,0-.54.32,1.28,1.28,0,0,0-.22.76v2h-.82v-2c0-.66-.24-1-.71-1a.63.63,0,0,0-.54.3,1.33,1.33,0,0,0-.21.78v2H134V34.11h.82v.57h0A1.24,1.24,0,0,1,136,34a1,1,0,0,1,.65.21.92.92,0,0,1,.38.54,1.29,1.29,0,0,1,1.2-.75c.79,0,1.18.49,1.18,1.46V37.7Zm4.43-1.58h-2.45a1,1,0,0,0,.31.77,1.12,1.12,0,0,0,.8.27,1.76,1.76,0,0,0,1.06-.34v.65a2.38,2.38,0,0,1-1.3.31,1.58,1.58,0,0,1-1.24-.49,2.23,2.23,0,0,1,0-2.74,1.65,1.65,0,0,1,1.24-.53,1.41,1.41,0,0,1,1.14.48,1.94,1.94,0,0,1,.4,1.31v.31Zm-.79-.57a1.06,1.06,0,0,0-.2-.68.69.69,0,0,0-.56-.25.79.79,0,0,0-.6.26,1.19,1.19,0,0,0-.3.67Zm5.16,2.15h-.81v-2c0-.67-.24-1-.72-1A.77.77,0,0,0,146,35a1,1,0,0,0-.24.7V37.7H145V34.11h.82v.59h0A1.29,1.29,0,0,1,147,34a1.08,1.08,0,0,1,.89.38,1.7,1.7,0,0,1,.31,1.1v2.2Zm3.28,0a1.41,1.41,0,0,1-.63.12.91.91,0,0,1-1-1v-2h-.6v-.63h.6v-.83l.81-.24v1.07h.86v.63h-.86v1.8a.7.7,0,0,0,.12.46.46.46,0,0,0,.38.13.56.56,0,0,0,.36-.12Z"/>
    <g>
      <path class="cls-3" d="M3.69,32.72h0c1.14.12,4.12-1.4,7.54-3.32s6.12-3.78,6.63-4.83h0l0,0a2.38,2.38,0,1,1,1.64,2.79h-.08c-1.15-.1-4.12,1.36-7.52,3.32s-6.15,3.81-6.64,4.86h0a.16.16,0,0,0,0,.06,2.37,2.37,0,0,1-1.13,1.53,2.38,2.38,0,1,1-2.38-4.13A2.35,2.35,0,0,1,3.69,32.72Z"/>
      <path class="cls-3" d="M36.81,32.72h0c-1.14.12-4.11-1.4-7.54-3.32s-6.12-3.78-6.63-4.83h0s0,0,0,0a2.38,2.38,0,1,0-3.52,2.57,2.4,2.4,0,0,0,1.88.22H21c1.16-.1,4.12,1.36,7.52,3.32s6.15,3.81,6.64,4.86h0a.16.16,0,0,1,0,.06,2.44,2.44,0,0,0,1.13,1.53,2.39,2.39,0,0,0,2.39-4.13A2.37,2.37,0,0,0,36.81,32.72Z"/>
      <path class="cls-3" d="M3.69,12.75h0c1.14.12,4.12-1.4,7.54-3.32s6.12-3.78,6.63-4.83h0l0,0a2.38,2.38,0,1,1,1.64,2.79h-.08c-1.15-.1-4.12,1.36-7.52,3.32S5.81,14.45,5.32,15.5h0a.16.16,0,0,0,0,.06,2.38,2.38,0,1,1-1.6-2.81Z"/>
      <path class="cls-3" d="M36.81,12.75h0c-1.14.12-4.11-1.4-7.54-3.32S23.12,5.65,22.61,4.6h0s0,0,0,0a2.38,2.38,0,1,0-3.52,2.57,2.4,2.4,0,0,0,1.88.22H21c1.16-.1,4.12,1.36,7.52,3.32s6.15,3.81,6.64,4.86h0a.16.16,0,0,1,0,.06,2.44,2.44,0,0,0,1.13,1.53,2.39,2.39,0,1,0,.47-4.34Z"/>
      <path class="cls-3" d="M1.33,16.8v0h0c.67.93.85,4.26.9,8.19S2,32.2,1.37,33.17h0l0,0a2.39,2.39,0,1,0,3.24,0l-.05-.06h0c-.66-1-.88-4.25-.88-8.18s.22-7.23.88-8.18h0l0,0a2.38,2.38,0,1,0-3.23,0Z"/>
      <path class="cls-3" d="M35.91,16.8l0,0h0c.67.93.84,4.26.89,8.19s-.21,7.19-.87,8.16h0l0,0a2.39,2.39,0,1,0,3.24,0l0-.06h0c-.66-1-.88-4.25-.88-8.18s.22-7.23.89-8.18h0l0,0A2.41,2.41,0,0,0,39.9,15a2.39,2.39,0,1,0-4,1.77Z"/>
      <path class="cls-3" d="M18.63,6.83v0h0c.67.93.85,4.27.9,8.19s-.21,7.19-.87,8.17h0l0,.05A2.36,2.36,0,0,0,17.85,25a2.39,2.39,0,1,0,4-1.74l-.05-.06h0c-.67-.95-.88-4.25-.88-8.18s.22-7.23.88-8.17h0l0-.05a2.38,2.38,0,1,0-3.23,0Z"/>
      <path class="cls-2" d="M10,35.85V35a.79.79,0,0,1-.35.19A.1.1,0,0,1,9.52,35a.08.08,0,0,1,0-.07l.12-.06.2-.12a.86.86,0,0,0,.13-.14l.08-.09a.08.08,0,0,1,.06,0,.13.13,0,0,1,.09,0,.21.21,0,0,1,0,.11v1.12c0,.13,0,.2-.15.2a.18.18,0,0,1-.1,0,.21.21,0,0,1,0-.12Zm1.75-.51a.61.61,0,0,1-.16.12.52.52,0,0,1-.18,0,.58.58,0,0,1-.19,0,.45.45,0,0,1-.14-.1.4.4,0,0,1-.1-.15.57.57,0,0,1,0-.18.41.41,0,0,1,0-.19.54.54,0,0,1,.1-.16.59.59,0,0,1,.17-.1.46.46,0,0,1,.21,0,.6.6,0,0,1,.24.05.46.46,0,0,1,.18.13.65.65,0,0,1,.11.22,1.36,1.36,0,0,1,0,.3,1.49,1.49,0,0,1,0,.33.67.67,0,0,1-.12.24.45.45,0,0,1-.19.15.6.6,0,0,1-.48,0,.65.65,0,0,1-.15-.12.3.3,0,0,1,0-.14.12.12,0,0,1,.11-.11.11.11,0,0,1,.08,0,.11.11,0,0,1,.06.07.18.18,0,0,0,.08.09.16.16,0,0,0,.12,0l.11,0,.09-.08a.73.73,0,0,0,.09-.37Zm0-.3a.25.25,0,0,0,0-.12.31.31,0,0,0,0-.1.24.24,0,0,0-.08-.06.23.23,0,0,0-.11,0,.25.25,0,0,0-.17.08.37.37,0,0,0-.06.21.33.33,0,0,0,.06.21.25.25,0,0,0,.18.08l.12,0a.32.32,0,0,0,.1-.1.29.29,0,0,0,0-.14Zm1.62-.25h-.49l-.06.32A.63.63,0,0,1,13,35a.58.58,0,0,1,.19,0,.4.4,0,0,1,.15.1.33.33,0,0,1,.1.14.41.41,0,0,1,0,.19.43.43,0,0,1-.07.25.5.5,0,0,1-.19.19A.69.69,0,0,1,13,36a.57.57,0,0,1-.31-.07.45.45,0,0,1-.16-.14.37.37,0,0,1-.05-.15.09.09,0,0,1,0-.07.12.12,0,0,1,.09,0,.13.13,0,0,1,.13.1.35.35,0,0,0,.11.13.3.3,0,0,0,.16,0,.23.23,0,0,0,.14,0,.2.2,0,0,0,.09-.11.33.33,0,0,0,0-.15.38.38,0,0,0,0-.16.18.18,0,0,0-.09-.1.32.32,0,0,0-.14,0c-.06,0-.1,0-.12,0a.28.28,0,0,0-.11.07.28.28,0,0,1-.12,0,.12.12,0,0,1-.09,0,.1.1,0,0,1,0-.08.26.26,0,0,1,0-.07l.09-.47a.17.17,0,0,1,.05-.12.17.17,0,0,1,.13,0h.55c.11,0,.16,0,.16.12a.09.09,0,0,1,0,.08.21.21,0,0,1-.12,0Zm.83-.23h.69a.24.24,0,0,1,.14,0,.12.12,0,0,1,0,.1.25.25,0,0,1,0,.11l-.12.15a1.15,1.15,0,0,0-.14.2,1.42,1.42,0,0,0-.13.3s0,.09,0,.12a.93.93,0,0,1,0,.14.74.74,0,0,0,0,.12.48.48,0,0,1-.06.14.21.21,0,0,1-.11,0,.15.15,0,0,1-.1,0,.17.17,0,0,1,0-.13.75.75,0,0,1,0-.17c0-.07,0-.15.09-.25a1.53,1.53,0,0,1,.16-.31,3.05,3.05,0,0,1,.22-.32h-.55a.23.23,0,0,1-.13,0,.11.11,0,0,1,0-.18Z"/>
      <path class="cls-4" d="M18.63,26.76v0h0c.67.93.85,4.26.9,8.19s-.21,7.19-.87,8.16h0l0,0a2.39,2.39,0,1,0,3.24,0l-.05-.06h0c-.67-1-.88-4.25-.88-8.18s.22-7.23.88-8.18h0l0-.06A2.35,2.35,0,0,0,22.62,25a2.39,2.39,0,1,0-4,1.77Z"/>
      <path class="cls-4" d="M3.69,37.25h0c1.14-.12,4.12,1.4,7.54,3.32s6.12,3.78,6.63,4.83h0l0,.05a2.38,2.38,0,1,0,1.64-2.79h-.08c-1.15.1-4.12-1.36-7.52-3.32S5.81,35.55,5.32,34.5h0a.16.16,0,0,1,0-.06,2.38,2.38,0,1,0-1.6,2.81Z"/>
      <path class="cls-4" d="M36.81,37.25h0c-1.14-.12-4.11,1.4-7.54,3.32s-6.12,3.78-6.63,4.83h0s0,0,0,.05a2.38,2.38,0,1,1-3.52-2.57,2.4,2.4,0,0,1,1.88-.22H21c1.16.1,4.12-1.36,7.52-3.32s6.15-3.81,6.64-4.86h0a.16.16,0,0,0,0-.06,2.44,2.44,0,0,1,1.13-1.53,2.39,2.39,0,1,1,.47,4.34Z"/>
      <path class="cls-4" d="M3.69,17.27h0c1.14-.11,4.12,1.4,7.54,3.32s6.12,3.78,6.63,4.84h0a.17.17,0,0,0,0,.05,2.39,2.39,0,1,0,1.64-2.78h-.08c-1.15.09-4.12-1.37-7.52-3.33s-6.15-3.8-6.64-4.85h0s0,0,0-.06a2.33,2.33,0,0,0-1.13-1.52,2.38,2.38,0,1,0-2.38,4.13A2.35,2.35,0,0,0,3.69,17.27Z"/>
      <path class="cls-4" d="M36.81,17.27h0c-1.14-.11-4.11,1.4-7.54,3.32s-6.12,3.78-6.63,4.84h0l0,.05A2.35,2.35,0,0,1,21.45,27a2.39,2.39,0,0,1-2.39-4.13,2.35,2.35,0,0,1,1.88-.21H21c1.16.09,4.12-1.37,7.52-3.33s6.15-3.8,6.64-4.85h0s0,0,0-.06a2.39,2.39,0,1,1,3.52,2.61A2.37,2.37,0,0,1,36.81,17.27Z"/>
      <path class="cls-4" d="M20.29,21.74A3.21,3.21,0,1,0,23.5,25,3.21,3.21,0,0,0,20.29,21.74Z"/>
    </g>
  </g>
</svg>
