<svg width="225" height="45" viewBox="0 0 225 45" fill="none" xmlns="http://www.w3.org/2000/svg">
<path fill-rule="evenodd" clip-rule="evenodd" d="M69.4046 20.489C69.2776 19.849 69.2736 19.192 69.1876 18.546C69.0976 17.867 68.9636 17.192 68.9356 16.506C68.8876 15.383 69.0216 14.263 69.0116 13.141C69.0106 13.052 69.0406 12.848 68.9766 12.768C68.8916 12.66 68.8306 12.621 68.7956 12.598C68.6976 12.534 68.7266 12.483 68.7806 12.391C68.7956 12.366 68.8136 12.334 68.8366 12.293C69.0546 11.896 68.9836 11.633 68.7426 11.19C68.6096 10.905 68.3656 10.59 68.1716 10.458C67.9606 10.314 67.8356 10.307 67.5876 10.292C67.4436 10.284 67.2656 10.273 67.0126 10.233C66.4726 10.131 66.0786 9.941 65.8186 9.815C65.7556 9.784 65.7006 9.757 65.6436 9.732C65.5316 9.666 65.1876 9.625 64.7226 9.625C63.2286 9.625 61.7766 10.064 60.3466 10.447C59.6876 10.623 59.0196 10.827 58.3296 10.804C57.9346 10.79 57.5366 10.582 57.1396 10.647C56.7126 10.717 56.5666 11.064 56.3506 11.395L56.3386 11.414C55.9786 11.967 55.8656 12.832 55.7106 13.466C55.5736 14.025 55.6016 14.606 55.5126 15.172C55.4246 15.735 55.2356 16.276 55.0676 16.819C54.8896 17.394 54.7136 17.981 54.4006 18.5C54.2126 18.812 54.0426 19.083 54.0846 19.458C54.1266 19.817 54.3106 20.138 54.4456 20.467C54.6156 20.883 54.7626 21.306 54.9036 21.731C54.9786 21.958 54.9626 22.215 55.0616 22.432C55.1516 22.63 55.3816 22.779 55.3886 23.01C55.3966 23.265 55.4096 23.691 55.5296 23.764C55.6976 23.868 55.8446 23.918 55.9786 23.918C56.2426 23.918 56.4276 23.713 56.6246 23.496C57.0566 23.02 57.4766 23.152 58.0696 23.124C59.0376 23.078 59.9446 22.688 60.9146 22.638C61.5676 22.604 62.2216 22.651 62.8746 22.666C63.5086 22.681 64.1366 22.602 64.7696 22.602C65.1816 22.602 65.2666 22.658 65.2966 22.718L65.3226 22.768C65.4306 22.987 65.5806 23.285 65.8036 23.372C66.2766 23.556 66.7206 23.751 67.1766 23.979C67.6276 24.205 68.1116 24.426 68.6266 24.426C68.9486 24.426 69.1546 24.22 69.2666 23.934C69.6586 22.927 69.6126 21.531 69.4046 20.489ZM63.9076 11.175C63.9566 11.08 64.0196 11.05 64.0906 11.049C64.2336 11.048 64.3756 11.122 64.5086 11.162L64.5536 11.175L64.5506 11.273C64.5336 11.754 64.5096 11.858 63.9196 11.913L63.8836 11.916L63.8636 11.888C63.7926 11.785 63.8056 11.37 63.9076 11.175ZM62.9406 13.362L62.9176 13.263C63.1406 13.325 63.2526 13.308 63.2866 13.559C63.3426 13.97 63.3486 14.387 63.3616 14.801C63.3616 14.807 63.3706 15.06 63.3706 15.06L63.3436 15.08C63.0586 15.277 62.7876 15.612 62.5016 15.966C62.0496 16.525 61.5846 17.102 61.0066 17.18L60.8696 17.199L60.9486 17.087C61.0616 16.926 61.2036 16.673 61.3536 16.405C61.6116 15.945 61.9036 15.422 62.1656 15.16C63.1606 14.298 63.1396 14.209 62.9406 13.362ZM60.1856 15.305C60.1236 15.305 60.0656 15.284 60.0126 15.243C59.8356 15.111 59.9436 14.965 60.0636 14.847C60.1836 14.729 60.2926 14.608 60.3686 14.458C60.4426 14.309 60.4866 14.143 60.6046 14.02C60.7296 13.888 60.9126 13.823 61.0716 13.745C61.3806 13.593 61.8016 13.226 62.1926 13.237C62.2826 13.239 62.3726 13.261 62.4576 13.312C62.4296 13.34 62.3956 13.358 62.3596 13.38C62.1386 13.512 61.9276 13.63 61.7636 13.835C61.3726 14.323 60.9296 15.304 60.1856 15.305ZM57.4876 13.031C57.4876 13.029 57.5566 12.809 57.6236 12.568L57.6306 12.542L57.6546 12.53C57.9566 12.382 58.2606 12.302 58.5546 12.225C58.9996 12.108 59.4596 11.987 59.9486 11.621C60.2576 11.437 61.5516 11.183 62.1826 11.183C62.4116 11.183 62.5216 11.754 62.5416 11.869L62.5506 11.924L62.4976 11.939C62.3136 11.986 62.0306 12.002 61.7556 12.017C60.8546 12.066 59.9876 12.329 59.1416 12.631C58.6926 12.791 58.1206 13.137 57.6356 13.137C57.5706 13.137 57.5256 13.121 57.4986 13.089L57.4766 13.063L57.4876 13.031ZM58.5396 21.339C58.5826 21.421 58.7576 21.484 58.9106 21.484C59.0796 21.484 59.2926 21.441 59.5626 21.455C59.7546 21.465 60.1986 21.526 60.1986 21.526C60.0906 21.512 59.9026 21.591 59.7916 21.61C59.0406 21.733 58.2266 21.881 57.4626 21.881C56.6856 21.881 56.4226 21 56.3246 20.374C56.1866 19.496 56.0046 18.417 56.1706 17.545C56.3066 16.829 56.6176 16.152 56.6526 15.417C56.6646 15.147 56.6956 14.784 56.8486 14.545L56.8656 14.519L56.8966 14.517C57.1386 14.505 57.3886 14.505 57.6236 14.441C57.8386 14.383 58.0496 14.291 58.2766 14.291C58.4296 14.291 58.7406 14.361 58.7826 14.538C58.8056 14.632 58.7266 14.715 58.5846 14.866C58.3706 15.092 58.1886 15.362 57.9406 15.551C57.5166 15.875 56.9336 16.209 56.8776 16.801C56.8686 16.905 57.2126 17.028 57.2916 17.063C57.7676 17.283 58.1336 17.17 58.5876 16.958C58.7406 16.886 58.9006 16.812 59.0556 16.764L59.0726 16.76H59.0826C59.1116 16.76 59.1376 16.778 59.1476 16.805C59.1936 16.93 58.6426 17.595 58.6366 17.6C58.1866 17.987 57.5476 18.095 57.1506 18.548C57.0516 18.66 56.9846 18.76 56.9806 18.881C56.9696 19.262 57.3376 19.33 57.6076 19.48C57.8906 19.638 58.1806 19.745 58.5016 19.629C59.0746 19.422 59.4636 18.97 60.0826 18.812C60.6446 18.668 61.2296 18.645 61.7906 18.5C62.2186 18.389 62.7066 18.264 63.0146 17.922C63.3116 17.593 63.3116 17.593 63.6946 16.978L63.7116 16.949H63.7456C63.8176 16.949 63.8856 16.962 63.9656 16.98C64.0076 16.991 64.0396 17.02 64.0526 17.064C64.1156 17.282 63.6696 17.986 63.6086 18.046C62.8006 18.861 61.4926 19.286 60.4376 19.679C59.8986 19.88 59.3546 20.074 58.9616 20.514C58.8326 20.654 58.4246 21.127 58.5396 21.339ZM66.6186 21.831C66.2916 21.8 66.2226 21.393 66.0516 21.179C66.0476 21.173 66.0416 21.168 66.0376 21.161C65.8576 20.948 65.6016 20.865 65.3266 20.865C64.8466 20.865 64.3766 21.022 63.9006 21.068C63.3706 21.118 62.8376 21.107 62.3086 21.16C61.9106 21.201 61.5066 21.243 61.1126 21.311C60.9096 21.346 60.6796 21.39 60.4876 21.415C60.6976 21.049 61.3186 20.799 61.6956 20.662C62.1526 20.497 62.6256 20.324 62.9046 20.139L62.9256 20.129L62.9416 20.128C62.9506 20.128 62.9586 20.128 62.9666 20.128C62.9826 20.128 63.0276 20.128 63.0576 20.165C63.0886 20.203 63.0266 20.282 62.9876 20.339C63.1256 20.313 63.3126 20.226 63.3726 20.2C63.5336 20.136 63.6896 20.056 63.8216 19.942C64.0856 19.712 64.1966 19.361 64.3846 19.075C64.5116 18.882 64.6876 18.583 64.9296 18.521C64.9386 18.518 64.9506 18.517 64.9596 18.517C65.2016 18.517 65.2876 18.837 65.3556 19.018C65.4906 19.381 65.6656 19.73 65.8046 20.093C65.8846 20.303 65.9476 20.526 66.0946 20.702C66.3286 20.98 66.7776 20.915 67.0956 20.884C67.1666 20.876 67.4166 20.817 67.4166 20.817C67.4166 20.817 67.4176 21.907 66.6186 21.831ZM67.5016 14.738C67.4966 14.879 67.4926 15.014 67.4906 15.142C67.4846 15.733 67.4596 16.332 67.4346 16.913C67.4086 17.518 67.3816 18.143 67.3776 18.76V18.799L67.3426 18.815C67.3266 18.822 67.3116 18.83 67.2976 18.837C66.9306 19.022 66.6596 18.485 66.5226 18.22C66.3626 17.912 66.2676 17.578 66.1766 17.245C66.1086 17 66.0456 16.769 65.9586 16.607L65.9436 16.579L65.9586 16.551C66.0976 16.285 66.2726 16.041 66.4116 15.776C66.5586 15.493 66.6906 15.202 66.8436 14.923C66.9466 14.734 67.1736 14.375 67.1026 14.145C66.8476 13.723 66.5316 13.499 66.1856 13.499C65.9076 13.499 65.6546 13.643 65.4646 13.84C65.1146 14.204 65.4346 14.822 65.1616 15.241L65.1166 15.309L65.0636 15.246C65.0376 15.215 64.6176 14.764 64.5276 14.709L64.5066 14.696L64.5006 14.673C64.4976 14.661 64.1966 13.428 64.3556 13.292C64.5396 13.135 64.8376 13.112 65.0686 13.109C65.3316 13.106 65.6386 13.222 65.8836 13.083C66.0586 12.984 66.1916 12.794 66.2396 12.601C66.3316 12.239 66.2846 12.049 66.0506 11.819L66.1096 11.717C67.3386 12.072 67.5376 13.709 67.5016 14.738Z" fill="white"/>
<path fill-rule="evenodd" clip-rule="evenodd" d="M84.8255 15.604C85.2425 15.563 85.6745 15.6 86.0435 15.762L86.1245 15.797L86.0625 15.86C85.2835 16.637 85.0955 17.796 84.3705 18.611C83.7665 19.291 82.9135 19.816 82.1255 20.26C81.7105 20.494 81.2445 20.59 80.8055 20.77C80.4245 20.928 80.1415 21.269 79.7495 21.395C79.4675 21.484 79.1325 21.462 78.8415 21.474C78.0475 21.508 77.2405 21.569 76.4575 21.699C76.1105 21.757 75.8805 22.256 75.8675 22.567C75.8565 22.849 76.1165 23.045 76.3255 23.183C76.5835 23.356 76.7865 23.417 77.0855 23.306C77.4105 23.186 77.7565 23.16 78.0915 23.081C78.5635 22.972 79.0285 22.825 79.5045 22.736C79.9885 22.645 80.4745 22.653 80.9635 22.616C82.1105 22.528 83.1505 21.908 84.3225 22.159C84.6605 22.232 84.9895 22.345 85.3275 22.415C86.0925 22.575 86.8925 22.473 87.6605 22.387C88.4905 22.293 89.2965 22.282 90.1315 22.28C90.4465 22.28 91.0975 22.34 91.3275 22.06C91.6245 21.633 91.7425 21.303 91.6835 21.051C91.5595 20.511 90.8355 20.329 90.4305 20.06C90.1615 19.88 89.7635 19.954 89.4625 19.988C88.5455 20.09 87.6635 20.412 86.7415 20.473C86.2665 20.505 85.6805 20.506 85.2385 20.305C85.2385 20.305 85.2045 20.289 85.2025 20.289C85.0365 20.213 85.6315 19.515 85.6895 19.444C86.1705 18.876 86.6285 18.138 86.7725 17.398C86.8815 16.839 87.0725 16.704 87.4895 16.406C87.5815 16.341 87.6885 16.288 87.7675 16.206C87.8505 16.118 87.8675 16.004 87.9395 15.91L87.9545 15.889L87.9795 15.886C88.3705 15.84 88.7535 15.75 89.1345 15.652C89.4915 15.558 89.8295 15.471 90.2495 15.437C90.3175 15.432 90.3755 15.395 90.4205 15.326C90.5245 15.168 90.5385 14.887 90.4865 14.733C90.3615 14.364 89.9885 14.084 89.6525 13.921C89.3595 13.779 89.0475 13.779 88.7315 13.829C88.4105 13.879 88.0795 13.924 87.7605 13.99C87.5505 14.034 87.3535 14.138 87.1405 14.166C86.5145 14.248 85.8925 14.106 85.2825 13.984L85.2435 13.977L85.2355 13.938C85.1615 13.588 84.9875 13.27 84.8045 12.967C84.6485 12.712 84.4065 12.412 84.4215 12.097C84.4565 11.33 83.7525 10.61 82.9705 10.779C82.8655 10.802 82.3735 10.986 82.3875 11.14C82.4255 11.573 82.3165 12.021 82.4305 12.448C82.5575 12.917 83.0075 13.162 83.1925 13.595C83.2575 13.747 83.3835 13.901 83.5155 14C83.6035 14.081 83.5395 14.258 83.5185 14.311L83.5115 14.329L83.4955 14.34C83.3215 14.45 83.1075 14.431 82.9125 14.468C82.7105 14.506 82.5245 14.6 82.3285 14.659C81.6735 14.856 80.9125 15.076 80.2245 15.076C80.0735 15.076 79.9785 15.049 79.9255 14.99C79.8985 14.961 79.8845 14.926 79.8815 14.886C79.8725 14.761 78.9175 14.877 78.8165 14.91C78.3395 15.064 77.8965 15.665 78.0785 16.185C78.2065 16.55 78.9105 16.533 79.2165 16.533C79.7515 16.533 80.2895 16.456 80.8085 16.33C81.1745 16.241 81.5125 16.062 81.8935 16.043C81.9075 16.067 81.8995 16.085 81.8925 16.112C81.8435 16.299 81.8015 16.374 81.6275 16.483C81.2945 16.694 81.0115 16.97 80.7315 17.247C80.4595 17.516 80.1425 17.785 79.9755 18.138C79.8115 18.482 79.7035 19.421 79.8755 19.815C80.0615 20.239 80.8155 19.847 81.0285 19.65C81.3555 19.349 81.6105 18.983 81.8555 18.616C82.0675 18.296 82.3975 17.958 82.5345 17.601C82.6675 17.258 82.6415 16.879 82.7835 16.529C82.8435 16.382 82.9025 16.229 82.9485 16.065L82.9605 16.026L83.0015 16.022C83.6235 15.955 84.1995 15.666 84.8255 15.604Z" fill="white"/>
<path d="M110.922 22.429C110.23 22.184 109.446 22.588 108.737 22.573C108.368 22.563 107.999 22.531 107.63 22.531C107.58 22.531 107.531 22.531 107.484 22.533L107.432 22.534C107.46 22.443 107.483 22.291 107.5 22.146C107.838 22.094 108.191 22.084 108.566 22.078C109.221 22.067 110.133 22.094 110.452 21.828C110.545 21.736 110.587 21.572 110.604 21.466C110.608 21.44 110.611 21.416 110.616 21.392C110.687 21.025 110.562 20.793 110.234 20.679C109.981 20.591 109.656 20.579 109.395 20.569C109.321 20.567 109.253 20.563 109.201 20.56L109.052 20.573C108.472 20.627 107.926 20.677 107.377 20.742L107.333 20.747L107.315 20.706C107.294 20.658 107.234 20.583 107.213 20.559L107.157 20.493L107.239 20.463C107.82 20.251 108.359 20.234 108.968 20.277C109.227 20.297 109.482 20.262 109.739 20.276C109.823 20.28 110.044 20.303 110.05 20.173C110.07 19.825 110.243 19.446 110.123 19.102C110.037 18.853 109.758 18.618 109.819 18.331C109.851 18.176 110.088 18.103 110.197 18.02C110.263 17.969 110.306 17.94 110.307 17.854C110.309 17.722 110.241 17.586 110.232 17.454C110.227 17.388 110.224 17.353 110.207 17.327C109.989 17.141 109.63 17.075 109.352 17.075C109.035 17.074 108.744 17.183 108.459 17.312C108.117 17.468 107.785 17.594 107.408 17.611C107.046 17.627 106.677 17.578 106.326 17.69C105.278 18.024 104.224 17.852 103.159 17.991C102.935 18.021 102.727 18.111 102.513 18.179C102.428 18.206 102.252 18.218 102.192 18.284C102.121 18.601 102.398 19.017 102.871 19.296C102.88 19.302 102.895 19.312 102.93 19.312C102.97 19.312 103.019 19.3 103.077 19.288C103.159 19.27 103.251 19.251 103.357 19.251C103.375 19.251 103.394 19.252 103.413 19.253L103.47 19.256V19.491L103.442 19.509C103.326 19.579 103.192 19.648 103.047 19.722C102.556 19.971 102 20.254 102 20.753C102.013 20.837 102.1 20.878 102.267 20.952C102.41 21.015 102.565 21.141 102.719 21.163C102.877 21.188 103.039 21.106 103.182 21.055C103.772 20.845 104.424 20.821 105.014 20.658C105.157 20.618 105.3 20.632 105.444 20.659L105.494 20.668V20.718C105.494 20.731 105.5 20.751 105.506 20.776C105.528 20.852 105.559 20.97 105.493 21.148L105.486 21.166L105.47 21.177C105.279 21.303 105.068 21.405 104.852 21.478C104.218 21.691 103.417 21.821 102.751 21.737C102.507 21.707 102.27 21.537 102.037 21.674C101.867 21.773 101.701 21.882 101.535 21.99C101.341 22.117 101.139 22.255 101.349 22.468C101.48 22.602 101.647 22.7 101.794 22.816C101.985 22.966 102.12 23.02 102.365 22.997C102.609 22.972 102.842 22.892 103.082 22.847C103.696 22.735 104.332 22.618 104.967 22.59L105.049 22.586L105.029 22.664C104.905 23.151 104.165 23.308 103.75 23.384C103.105 23.503 102.449 23.485 101.8 23.41C101.715 23.399 101.617 23.384 101.514 23.366C101.331 23.337 101.104 23.268 100.925 23.341C100.755 23.408 100.636 23.561 100.496 23.673C100.376 23.767 100.21 23.882 100.211 24.055C100.211 24.219 100.392 24.368 100.501 24.468C100.761 24.706 100.955 24.856 101.293 24.878C101.321 24.88 101.35 24.88 101.38 24.88C101.784 24.882 102.179 24.776 102.576 24.719C103.039 24.654 103.502 24.587 103.953 24.46C104.462 24.316 104.961 24.127 105.489 24.067C106.029 24.004 106.573 24.059 107.114 24.091C108.668 24.18 110.261 24.312 111.806 24.057C111.939 24.035 112.007 23.868 112.01 23.768C111.989 23.54 111.913 23.281 111.795 23.084C111.611 22.771 111.259 22.549 110.922 22.429ZM106.732 19C106.407 19.014 106.11 19.184 105.785 19.184H105.742L105.728 19.142C105.716 19.106 105.703 19.067 105.688 19.029C105.672 18.981 105.654 18.933 105.641 18.888L105.627 18.843L105.669 18.818C105.87 18.705 106.158 18.719 106.38 18.672C106.648 18.615 106.908 18.589 107.171 18.577C107.419 18.567 107.667 18.568 107.924 18.568H107.993L107.983 18.636C107.961 18.8 107.89 18.86 107.774 18.909C107.437 19.049 107.084 18.983 106.732 19Z" fill="white"/>
<path d="M114.65 17.455C114.589 17.082 114.504 16.667 114.096 16.538C113.829 16.454 113.544 16.463 113.276 16.39C112.999 16.315 112.738 16.188 112.475 16.077C112.139 15.934 111.805 15.854 111.453 15.765C110.8 15.598 110.066 15.302 109.385 15.488C109.112 15.563 108.878 15.725 108.616 15.827C108.368 15.925 108.099 15.976 107.841 16.037C107.266 16.17 106.68 16.285 106.09 16.287C105.062 16.291 103.974 16.309 102.993 16.652C102.899 16.685 102.803 16.725 102.716 16.777C102.64 16.822 102.568 16.905 102.475 16.917C102.13 16.958 101.994 16.479 101.66 16.467C101.512 16.461 101.361 16.453 101.214 16.475C101.05 16.498 100.905 16.578 100.756 16.642C100.405 16.794 100.027 16.893 99.7341 17.151C99.4971 17.359 99.3141 17.625 99.0311 17.777C98.6351 17.991 98.3091 18.316 97.9031 18.509C97.7251 18.595 97.5541 18.645 97.3581 18.645C97.2291 18.645 96.9871 18.585 96.8801 18.691C96.4791 19.098 97.5111 19.96 97.8781 19.96C98.5681 19.96 98.8411 19.34 99.3451 19.021C99.6371 18.836 99.9841 18.758 100.292 18.611C100.643 18.444 100.975 18.238 101.311 18.043C101.679 17.829 101.915 17.622 101.979 17.185C101.98 17.185 101.987 17.134 101.987 17.134H102.039C102.191 17.134 102.391 17.432 102.483 17.534C102.805 17.886 103.05 17.964 103.512 17.826C103.758 17.752 104.006 17.687 104.258 17.636C104.549 17.577 104.844 17.536 105.138 17.506C106.138 17.403 107.211 17.484 108.176 17.171C108.476 17.073 108.766 16.942 109.072 16.862C110.098 16.593 111.364 16.884 112.307 17.314L112.332 17.325L112.339 17.349C112.433 17.63 111.459 17.921 111.332 18.141C111.28 18.232 111.207 18.525 111.273 18.628C111.436 18.88 112.195 18.8 112.43 18.777C112.905 18.731 113.367 18.604 113.839 18.532C113.916 18.519 114.14 18.509 114.178 18.426C114.307 18.133 114.706 17.792 114.65 17.455Z" fill="white"/>
<path d="M101.938 12.853C102.184 13.116 102.474 13.426 102.825 13.541L102.85 13.549L102.861 13.574L102.873 13.605C102.917 13.7 102.879 13.854 102.829 13.936C102.598 14.316 102.303 14.626 102.493 15.1C102.643 15.472 102.971 15.768 103.247 16.047C103.394 16.195 103.798 16.162 104.004 16.155C104.013 16.155 104.022 16.155 104.031 16.155C104.514 16.146 105.025 16.135 105.495 16.018C106.362 15.802 107.225 15.644 108.115 15.548C108.386 15.519 108.923 15.596 109.093 15.324C109.237 15.097 109.452 14.908 109.661 14.742C109.845 14.597 110.09 14.483 110.174 14.248C110.277 13.953 110.296 13.361 109.882 13.292C109.056 13.156 108.178 13.189 107.346 13.208C106.754 13.221 106.148 13.211 105.562 13.306C105.256 13.356 104.955 13.43 104.652 13.492C104.56 13.511 104.385 13.58 104.294 13.549C104.204 13.516 104.086 13.363 104.002 13.298C104.27 13.218 104.54 13.147 104.81 13.077C105.419 12.918 105.988 12.823 106.618 12.815C107.427 12.805 108.236 12.816 109.045 12.806C109.396 12.803 109.87 12.76 110.138 12.51C110.275 12.383 110.66 11.804 110.434 11.657C110.345 11.597 109.865 11.557 109.773 11.553C109.375 11.534 108.979 11.603 108.585 11.652C108.393 11.675 108.191 11.735 108.001 11.677V11.634C108 11.583 107.995 11.526 107.99 11.466L107.984 11.412L108.037 11.4C108.369 11.326 108.721 11.328 109.058 11.3C109.495 11.265 109.93 11.219 110.363 11.147C110.692 11.091 110.916 11.075 110.845 10.705C110.799 10.456 110.727 10.099 110.467 9.986C110.054 9.807 109.518 9.925 109.097 10.016C108.962 10.046 107.607 10.423 107.576 10.334C107.571 10.318 107.567 10.3 107.561 10.284C107.472 9.946 107.253 9.615 106.954 9.43C106.724 9.286 106.281 9.091 106.055 9.347C105.889 9.534 105.957 9.696 105.927 9.923C105.909 10.057 105.862 10.189 105.821 10.317C105.782 10.44 105.742 10.566 105.715 10.663L105.707 10.692L105.678 10.703C105.245 10.867 104.748 11.014 104.295 10.838C104.075 10.753 103.826 10.782 103.596 10.784C103.325 10.787 103.057 10.763 102.785 10.776C102.612 10.784 102.382 10.788 102.234 10.892C102.038 11.028 101.936 11.154 101.923 11.278C101.901 11.479 102.089 11.663 102.211 11.799C102.356 11.96 102.472 12.178 102.525 12.266C102.578 12.354 102.614 12.401 102.614 12.401C102.457 12.436 102.307 12.484 102.163 12.531C102.054 12.563 101.799 12.705 101.938 12.853ZM105.041 14.568L105.045 14.565L105.05 14.564C105.583 14.354 106.558 14.3 107.269 14.26C107.383 14.254 107.489 14.248 107.588 14.242L107.653 14.238L107.652 14.302C107.65 14.468 107.495 14.52 107.346 14.57L107.29 14.59C107.008 14.689 106.601 14.737 106.24 14.781C105.927 14.819 105.631 14.854 105.512 14.914C105.444 14.947 105.358 14.965 105.268 14.965C105.148 14.965 105.009 14.93 104.98 14.835C104.955 14.76 104.964 14.615 105.041 14.568ZM103.013 12.209C103.138 12.095 103.363 12.03 103.558 11.997C103.558 11.997 104.045 11.94 104.424 11.94C104.616 11.94 104.896 11.937 105.171 11.952L105.235 11.955C105.242 11.956 105.22 12.021 105.206 12.056C105.164 12.156 105.112 12.201 105.112 12.201L105.088 12.207C104.852 12.262 104.609 12.288 104.319 12.288C104.167 12.288 104.018 12.281 103.875 12.274C103.737 12.268 103.608 12.262 103.48 12.262C103.278 12.262 103.115 12.278 102.969 12.313L102.853 12.34L103.013 12.209Z" fill="white"/>
<path d="M144.719 12.2151C144.897 12.3111 145.089 12.3881 145.283 12.4431C145.843 12.6021 146.405 12.4181 146.933 12.2351C147.413 12.0691 148.434 11.9851 148.757 11.5611C148.821 11.4741 148.853 11.3951 148.862 11.2921C148.873 11.1571 148.543 11.0131 148.451 10.9511C147.902 10.5861 147.238 10.5921 146.612 10.7091C146.077 10.8101 145.351 10.9141 144.872 11.1791C144.842 11.1961 144.814 11.2141 144.787 11.2341C144.643 11.3441 144.542 11.5061 144.451 11.6581C144.285 11.9351 144.491 12.0931 144.719 12.2151Z" fill="white"/>
<path d="M124.171 13.888C124.556 14.156 124.894 14.563 125.348 14.713C125.619 14.803 125.932 14.832 126.213 14.783C126.281 14.771 126.531 14.743 126.531 14.635C126.531 14.042 126.453 13.733 126.268 13.601C125.774 13.25 125.256 12.929 124.796 12.533C124.509 12.286 124.121 11.59 123.773 11.473C123.675 11.466 123.579 11.459 123.48 11.459C123.073 11.459 122.98 11.564 122.719 11.927C122.673 11.991 122.603 12.059 122.591 12.14C122.552 12.385 122.788 12.754 122.938 12.934C123.272 13.342 123.744 13.593 124.171 13.888Z" fill="white"/>
<path d="M126 16.4889C125.927 16.3929 125.84 16.2979 125.73 16.2409C125.706 16.2279 125.679 16.2219 125.651 16.2219C125.511 16.2219 125.342 16.3689 125.231 16.4679L125.138 16.5499L125.099 16.5009C125.099 16.4479 124.952 16.2839 124.922 16.2299C124.868 16.1359 124.818 16.0399 124.759 15.9489C124.554 15.6339 124.2 15.5769 123.977 15.2939C123.8 15.0709 123.762 14.7509 123.495 14.6009C123.269 14.4759 122.957 14.4529 122.702 14.4429C122.432 14.4329 122.113 14.4769 121.954 14.7199C121.809 14.9389 121.789 15.2649 121.852 15.5139C121.914 15.7589 122.124 15.9269 122.305 16.0859C122.721 16.4549 123.248 16.8519 123.798 16.9809C124.044 17.0389 124.295 16.9979 124.543 17.0339L124.644 17.0489L124.582 17.1299C124.507 17.2299 124.366 17.2229 124.271 17.2969C124.169 17.3789 124.105 17.4989 124.027 17.6009C123.869 17.8069 123.701 17.9879 123.504 18.1569C122.698 18.8499 122.178 19.8439 121.414 20.5869C121.171 20.8239 120.991 20.9979 120.658 21.0899C120.46 21.1469 120.244 21.1919 120.077 21.3199C119.988 21.3879 119.713 21.7429 119.64 21.8259C119.512 21.9719 119.375 22.1719 119.469 22.3699C119.608 22.6649 120.08 22.9069 120.38 22.9109H120.386C121.184 22.9109 122.171 21.7379 122.69 21.2219C123.138 20.7769 123.426 20.2289 123.794 19.7219C124.176 19.1939 124.567 18.6829 125.036 18.2299C125.468 17.8139 125.962 17.4109 126.18 16.8329L126.172 16.7579C126.164 16.6729 126.051 16.5539 126 16.4889Z" fill="white"/>
<path d="M128.268 17.061C128.437 17.014 128.521 16.766 128.601 16.629C128.694 16.474 128.954 16.052 129.102 15.665C129.208 15.795 129.331 15.91 129.485 15.981C129.651 16.057 129.831 16.133 130.013 16.162C130.032 16.165 130.059 16.169 130.091 16.172C130.2 16.182 130.362 16.182 130.394 16.108C130.397 16.1 130.4 16.085 130.405 16.074C130.543 16.034 130.75 15.967 130.854 15.925C130.979 15.875 131.661 15.643 131.817 15.59L131.818 15.584C131.945 15.553 132.058 15.397 132.151 15.313C132.357 15.125 132.702 14.782 132.772 14.5C132.838 14.23 132.611 14.03 132.464 13.828C132.36 13.685 132.122 13.574 131.954 13.55C131.945 13.55 131.936 13.549 131.926 13.549C131.745 13.549 131.386 13.729 131.265 13.803C131.145 13.878 130.559 14.058 130.366 14.1C130.248 14.126 130.039 14.159 129.888 14.183C129.727 14.108 129.529 14.079 129.359 14.079C129.036 14.079 128.749 14.439 128.494 14.594C128.484 14.6 128.478 14.607 128.476 14.618C128.466 14.686 128.501 14.777 128.554 14.872C128.463 14.992 128.366 15.117 128.235 15.185C128.074 15.27 127.883 15.298 127.714 15.361L127.537 15.429L127.641 15.271C127.984 14.792 128.26 14.229 128.457 13.678C128.536 13.461 128.643 13.319 128.568 13.08C128.551 13.027 128.47 12.988 128.407 12.977C128.095 12.921 128.079 12.796 128.074 12.748C128.054 12.566 128.541 12.229 128.642 12.079C128.734 11.945 128.796 11.8 128.829 11.65C128.902 11.738 129.061 11.795 129.146 11.803C129.159 11.804 129.173 11.805 129.186 11.805C129.357 11.809 129.519 11.72 129.687 11.71C130.017 11.689 130.337 11.625 130.664 11.582C130.904 11.551 131.16 11.563 131.393 11.491C131.874 11.344 132.4 11.524 132.874 11.342L132.896 11.333C133.037 11.279 133.098 11.232 133.176 11.104C133.247 10.988 133.333 10.895 133.359 10.755C133.423 10.382 132.763 10.203 132.491 10.18C132.476 10.179 132.461 10.178 132.443 10.178C132.213 10.178 131.988 10.226 131.761 10.276C131.71 10.139 131.565 10.037 131.431 10.005C131.197 9.94804 130.947 9.99504 130.711 9.95104C130.509 9.91304 130.366 9.97404 130.173 10.028C129.97 10.084 129.97 10.486 129.97 10.658V10.839C129.801 10.902 129.638 10.98 129.466 11.039C129.249 11.113 129.024 11.158 128.803 11.22C128.792 11.181 128.787 11.144 128.77 11.105C128.684 10.921 128.579 10.799 128.319 10.583C128.248 10.523 128.142 10.493 128.006 10.493C127.81 10.493 127.622 10.557 127.616 10.558C127.169 10.686 127.098 11.693 126.799 12.037C126.587 12.28 126.309 12.527 126.27 12.866C126.245 13.089 126.401 13.232 126.521 13.395C126.748 13.706 126.71 14.127 126.939 14.432C127.005 14.521 127.217 14.579 127.217 14.7C127.217 14.763 127.188 14.832 127.147 14.928L127.12 14.992C127.056 15.147 126.939 15.28 126.858 15.425C126.771 15.58 126.681 15.733 126.557 15.862C126.378 16.049 126.173 16.233 126.128 16.5C126.081 16.767 126.69 17.078 126.892 17.086C127.077 17.094 127.267 17.057 127.452 17.055C127.594 17.054 127.735 17.054 127.877 17.056C128.005 17.058 128.144 17.095 128.268 17.061ZM131.045 14.449C131.047 14.449 131.114 14.438 131.114 14.438C131.114 14.557 131.14 14.7 131.087 14.81C131.077 14.83 131.063 14.845 131.048 14.861C130.943 14.896 130.841 14.95 130.738 14.986C130.608 15.032 130.471 15.057 130.336 15.075C130.313 14.896 130.286 14.718 130.226 14.56C130.447 14.63 130.83 14.485 131.045 14.449Z" fill="white"/>
<path d="M129.831 12.738C130.174 12.738 130.522 12.7 130.862 12.661C131.199 12.624 131.482 12.479 131.733 12.256C131.826 12.171 131.92 12.069 131.919 11.933C131.919 11.858 131.858 11.697 131.759 11.697C131.752 11.697 131.745 11.697 131.738 11.699C131.413 11.775 131.148 11.869 130.805 11.876C130.453 11.882 130.101 11.844 129.752 11.908C129.639 11.929 129.532 12.017 129.449 12.093C129.395 12.143 129.229 12.262 129.22 12.332C129.201 12.504 129.343 12.627 129.484 12.685C129.568 12.719 129.689 12.738 129.831 12.738Z" fill="white"/>
<path d="M128.978 13.594C128.996 13.721 129.133 13.833 129.252 13.863C129.279 13.869 129.306 13.873 129.332 13.873C129.454 13.874 129.577 13.817 129.696 13.795C130.257 13.691 130.737 13.735 131.29 13.503C131.594 13.376 132.036 13.197 132.064 12.814C132.069 12.74 132.056 12.697 132.044 12.684C132.043 12.684 132.024 12.665 131.938 12.665C131.801 12.665 131.618 12.71 131.568 12.729C131.193 12.867 130.792 12.964 130.391 12.972C130.159 12.976 129.927 12.94 129.696 12.974C129.519 12.999 129.267 13.076 129.151 13.222C129.078 13.313 128.96 13.468 128.978 13.594Z" fill="white"/>
<path d="M136.233 14.56C136.183 14.53 136.129 14.514 136.075 14.499C136.027 14.486 135.983 14.474 135.946 14.451C135.89 14.417 135.879 14.374 135.869 14.342C135.863 14.318 135.859 14.302 135.839 14.283C135.839 14.283 135.834 14.281 135.822 14.281C135.718 14.281 135.477 14.397 135.365 14.476C135.268 14.543 135.114 14.584 134.991 14.617C134.93 14.633 134.872 14.647 134.848 14.66C134.497 14.834 134.812 14.193 134.859 14.097C134.978 13.86 135.124 13.639 135.254 13.408C135.526 12.929 135.518 12.309 135.831 11.862C135.92 11.734 135.859 11.579 135.813 11.499C135.644 11.194 135.352 11.253 135.055 11.288C134.382 11.369 134.751 12.386 134.193 12.544C134.061 12.582 133.952 12.527 133.829 12.494C133.886 12.383 133.937 12.271 133.984 12.156C134.162 11.704 134.53 11.475 134.833 11.118C135.025 10.89 135.275 10.559 135.333 10.26C135.392 9.95697 135.208 9.90597 134.954 9.79697C134.708 9.69197 134.593 9.68697 134.379 9.86497C134.292 9.93697 134.192 9.99397 134.039 10.08C133.831 10.196 133.71 10.694 133.578 10.895C133.398 11.165 133.184 11.411 132.983 11.665C132.675 12.056 132.301 12.598 132.791 13.015C132.877 13.089 133.009 13.069 133.113 13.1C133.209 13.129 133.301 13.171 133.391 13.217L133.454 13.25L133.411 13.307C133.399 13.322 133.38 13.346 133.354 13.374C133.221 13.524 133.113 13.7 133.014 13.874C132.867 14.133 132.809 14.488 132.707 14.773C132.611 15.045 132.454 15.395 132.526 15.69C132.551 15.792 132.643 15.935 132.747 15.971C133.026 16.07 133.443 16.052 133.744 16.113C134.147 16.195 134.571 16.283 134.983 16.223C135.087 16.208 135.191 16.172 135.302 16.098C135.614 15.892 135.829 15.55 136.051 15.255C136.171 15.093 136.249 14.934 136.287 14.769C136.325 14.617 136.313 14.609 136.233 14.56Z" fill="white"/>
<path d="M134.63 19.0739C134.176 18.8629 133.759 18.7299 133.252 18.7999C132.977 18.8379 132.702 18.9749 132.434 19.0509C132.117 19.1409 131.795 19.2189 131.478 19.3149C131.119 19.4219 130.276 19.5959 130.222 19.6099C130.189 19.6179 130.021 19.7049 129.992 19.6649C129.971 19.6339 129.949 19.5959 129.947 19.5609C129.946 19.5379 129.95 19.5099 129.953 19.4809C129.958 19.4329 129.961 19.3919 129.955 19.3569C129.986 19.3449 130.016 19.3339 130.047 19.3219C130.521 19.1369 131.081 18.9669 131.58 18.8729C131.766 18.8369 131.926 18.8199 132.112 18.8009C132.292 18.7919 132.45 18.8049 132.609 18.7579C132.715 18.7259 132.767 18.6569 132.857 18.5989C132.936 18.5479 133.023 18.5149 133.093 18.4509C133.323 18.2369 133.503 18.0339 133.77 17.8569C133.939 17.7449 134.331 17.3979 134.353 17.2949C134.44 16.9189 134.031 16.8089 133.803 16.6699C133.222 16.3119 132.465 16.1609 131.796 16.0899C131.784 16.0889 131.772 16.0879 131.759 16.0879C131.144 16.0879 130.583 16.3809 130.024 16.5999C129.48 16.8109 128.919 16.9769 128.373 17.1859C128.122 17.2809 127.66 17.4679 127.52 17.7159C127.44 17.8549 127.509 18.0149 127.585 18.1399C127.646 18.2339 127.862 18.5039 127.989 18.5219C128.302 18.5669 128.749 18.5309 129.062 18.3319C129.508 18.0519 129.785 17.7479 130.325 17.6189C130.803 17.5039 131.299 17.4969 131.779 17.3949C131.879 17.3739 132.132 17.2769 132.197 17.3979C132.228 17.4539 132.208 17.5869 132.174 17.7189C131.71 17.7979 131.243 17.8849 130.78 17.9709C130.126 18.0919 129.545 18.4109 128.966 18.6609C128.748 18.7549 128.519 18.8329 128.292 18.9039C128.265 18.9119 128.126 18.9349 128.078 18.9559C128.073 18.9579 128.068 18.9589 128.066 18.9599C128 19.0019 127.941 19.0429 127.941 19.2289C127.941 19.2879 127.989 19.3669 128.034 19.4409C128.239 19.7819 128.101 20.1939 128.294 20.5289C128.376 20.6699 128.648 20.7419 128.742 20.7579C129.504 20.8839 130.47 20.6039 131.227 20.5029C131.799 20.4259 132.371 20.2349 132.952 20.2349C133.167 20.2349 133.381 20.2199 133.294 20.5149C133.135 21.0459 132.815 21.6289 132.567 22.1249C132.173 22.9109 130.227 22.9369 129.516 22.7499C129.194 22.6649 128.895 22.5149 128.575 22.4249C128.423 22.3819 127.91 22.2409 127.783 22.4119C127.742 22.4689 127.785 22.6119 127.794 22.6759C127.833 22.9459 128.13 23.1729 128.319 23.3519C129.2 24.1839 130.524 24.4149 131.69 24.5049C132.134 24.5399 132.489 24.5749 132.796 24.5049C133.126 24.4309 133.403 24.2349 133.679 23.7879C134.087 23.1249 134.292 22.4329 134.624 21.7349C134.815 21.3329 135.307 20.9469 135.367 20.5099C135.41 20.2139 135.417 19.8549 135.283 19.5779C135.159 19.3179 134.875 19.1879 134.63 19.0739Z" fill="white"/>
<path d="M157.762 16.481C157.636 16.481 157.544 16.564 157.447 16.654C157.407 16.69 157.366 16.728 157.322 16.758C157.158 16.876 157.074 17.087 156.931 17.229C156.755 17.404 156.535 17.529 156.357 17.701C156.176 17.875 156.033 18.182 155.787 18.272C155.536 18.364 155.232 18.184 155.027 18.056C154.814 17.923 154.659 17.729 154.528 17.518C154.173 16.948 153.803 16.385 154.031 15.68C154.163 15.271 154.463 14.897 154.423 14.446C154.404 14.24 154.007 14.139 153.854 14.048C153.632 13.918 153.388 13.715 153.118 13.715C152.968 13.715 152.722 13.776 152.548 13.855C152.433 13.907 152.311 13.959 152.189 14.007C152.242 13.899 152.296 13.792 152.342 13.679C152.386 13.57 152.532 13.356 152.543 13.216C152.823 13.211 153.101 13.202 153.382 13.182C153.941 13.141 154.526 13.086 155.076 12.984C155.446 12.915 155.579 12.755 155.457 12.375C155.35 12.045 155.122 11.714 154.785 11.581C154.167 11.338 153.467 11.378 152.776 11.487C153.044 11.316 153.27 11.09 153.412 10.759C153.817 9.80396 152.455 9.53796 151.83 9.68296C151.564 9.74396 151.624 10.193 151.542 10.388C151.413 10.694 151.101 10.888 150.866 11.108C150.646 11.312 150.467 11.553 150.239 11.749C150.071 11.893 149.851 11.986 149.638 12.077C149.071 12.201 148.506 12.335 147.945 12.482C147.269 12.658 146.6 12.928 145.892 12.931C145.371 12.932 143.31 12.393 143.711 13.59C143.819 13.914 144.32 14.132 144.617 14.244C144.693 14.272 144.766 14.291 144.842 14.303C145.145 14.353 145.44 14.283 145.75 14.218C145.868 14.193 145.985 14.173 146.104 14.151C146.12 14.251 146.141 14.389 146.158 14.537C145.965 14.577 145.771 14.616 145.58 14.666C145.241 14.758 144.905 14.891 144.552 14.903C144.345 14.909 144.166 14.803 143.963 14.803C143.947 14.803 143.933 14.803 143.917 14.805C143.776 14.815 143.547 14.996 143.468 15.068C143.183 15.324 142.927 16.001 143.203 16.359C143.285 16.463 143.418 16.501 143.564 16.506C143.773 16.514 144.008 16.456 144.16 16.425C144.738 16.311 145.284 16.049 145.869 15.968C145.956 15.956 146.04 15.939 146.127 15.922C146.112 16.075 146.099 16.225 146.085 16.35C145.629 16.508 145.162 16.623 144.692 16.727C144.206 16.834 143.739 17.023 143.256 17.122C142.984 17.178 142.699 17.193 142.42 17.189C142.18 17.186 141.968 17.117 141.758 17.27C141.583 17.395 141.423 17.585 141.355 17.79C141.266 18.058 141.505 18.769 141.82 18.84C141.831 18.843 141.849 18.845 141.884 18.845C142.685 18.845 143.414 18.324 144.144 18.098C144.722 17.919 145.319 17.817 145.916 17.72C145.877 17.997 145.838 18.203 145.793 18.282C145.693 18.459 145.561 18.685 145.338 18.723C145.128 18.759 145.023 18.565 144.849 18.486C144.821 18.473 144.786 18.466 144.743 18.466C144.465 18.466 143.521 18.749 143.686 19.168C143.735 19.293 143.833 19.393 143.896 19.512C144.194 20.086 144.749 20.192 145.321 20.383C145.505 20.445 145.83 20.702 146.083 20.729C145.862 20.767 145.64 20.795 145.415 20.81C144.808 20.849 143.91 20.449 143.37 20.807C142.884 21.13 143.195 22.096 143.762 22.163C143.853 22.173 143.945 22.178 144.036 22.178C145.107 22.178 146.192 21.872 147.265 21.807C147.309 21.804 147.355 21.803 147.4 21.801C147.392 21.811 147.385 21.818 147.378 21.828C147.059 22.358 146.867 22.766 146.248 22.995C145.86 23.137 144.997 23.193 144.87 23.687C144.75 24.158 145.328 24.472 145.744 24.593C145.805 24.61 145.86 24.624 145.912 24.633C146.784 24.79 147.614 24.286 148.454 24.132C149.219 23.991 149.992 23.933 150.761 23.801C150.95 23.768 151.312 23.665 151.528 23.603C151.724 23.993 152.253 24.404 152.641 24.495C152.671 24.502 152.706 24.505 152.743 24.505C153.145 24.505 153.682 24.217 153.896 23.881C154.016 23.694 154.208 23.225 154.044 23.024C153.66 22.543 153.198 21.973 152.924 21.423C152.844 21.264 152.726 21.156 152.589 21.08C153.199 21.093 153.813 20.992 154.121 20.378C154.185 20.249 154.278 20.066 154.309 19.891C154.516 20.009 154.753 20.071 154.941 20.228C155.12 20.38 155.264 20.566 155.514 20.585C155.57 20.59 155.624 20.59 155.681 20.588C156.04 20.567 156.406 20.397 156.649 20.127C156.865 19.885 157.013 19.591 157.219 19.338C157.497 18.999 157.695 18.64 157.881 18.242C158.105 17.767 158.607 16.911 158.488 16.769C158.319 16.625 157.978 16.481 157.762 16.481ZM152.069 15.377C152.228 15.37 152.463 15.302 152.478 15.499C152.501 15.803 152.535 16.107 152.59 16.406C152.466 16.389 152.319 16.4 152.204 16.347C152.003 16.257 151.822 16.115 151.656 15.972C151.566 15.895 151.447 15.858 151.311 15.844C151.337 15.763 151.358 15.681 151.388 15.601C151.395 15.58 151.407 15.56 151.414 15.538C151.626 15.458 151.845 15.388 152.069 15.377ZM150.611 22.155C150.024 22.238 149.359 22.822 148.754 22.585C148.508 22.488 148.646 22.359 148.783 22.17C148.916 21.988 149.077 21.813 149.18 21.61C149.306 21.572 149.433 21.53 149.556 21.474C150.062 21.243 150.537 21.115 151.03 21.061C151.21 21.371 151.275 21.689 151.301 22.013C151.149 22.048 150.731 22.139 150.611 22.155ZM153.338 19.43C152.887 19.373 152.535 19.357 152.071 19.39C151.495 19.433 150.935 19.606 150.36 19.658C148.949 19.786 147.625 20.423 146.236 20.694C146.254 20.684 146.273 20.683 146.29 20.668C146.529 20.449 146.81 20.189 146.971 19.906C147.104 19.672 147.047 19.432 147.08 19.176C147.116 18.896 147.168 18.619 147.225 18.343C147.292 18.013 147.352 17.694 147.403 17.375C147.642 17.294 147.882 17.212 148.127 17.146C148.496 17.045 148.95 16.901 148.613 16.455C148.591 16.427 148.57 16.399 148.551 16.372C148.345 16.062 147.889 16.01 147.564 16.01C147.545 16.01 147.529 16.008 147.51 16.008C147.51 15.949 147.514 15.893 147.511 15.833C147.508 15.75 147.517 15.668 147.523 15.584C147.553 15.577 147.585 15.568 147.616 15.562C147.821 15.515 148.105 15.548 148.261 15.374C148.383 15.237 148.376 15.022 148.376 14.852C148.376 14.664 148.163 14.215 147.96 14.183C147.949 14.181 147.939 14.181 147.928 14.181C147.873 14.181 147.8 14.195 147.72 14.216C147.721 14.203 147.724 14.191 147.725 14.179C147.732 14.066 147.602 13.977 147.528 13.906C147.515 13.893 147.505 13.883 147.493 13.87C148.353 13.68 149.207 13.463 150.079 13.329C150.431 13.274 150.781 13.249 151.132 13.236C151.094 13.651 150.758 14.05 150.519 14.369C150.369 14.37 150.218 14.37 150.068 14.374C149.717 14.381 149.102 14.39 149.055 14.859C149.037 15.037 149.288 15.169 149.4 15.274C149.518 15.386 149.623 15.519 149.754 15.617C149.751 15.621 149.748 15.627 149.747 15.633C149.642 15.943 149.596 16.127 149.555 16.29L149.549 16.312C149.403 16.901 148.74 17.271 148.452 17.781C148.387 17.896 148.232 18.077 148.189 18.236C148.101 18.241 148.01 18.242 147.932 18.256C147.697 18.295 147.531 18.398 147.423 18.79C147.365 19.002 147.362 19.031 147.464 19.332C147.54 19.568 147.616 19.69 147.746 19.742C148.073 19.872 148.574 19.697 148.897 19.616C149.306 19.512 149.71 19.385 150.128 19.319C150.739 19.224 151.42 19.285 151.976 18.968C152 18.956 152.023 18.943 152.045 18.931C152.172 18.863 152.305 18.791 152.453 18.593C152.568 18.44 152.662 18.207 152.543 18.024C152.452 17.884 152.278 17.976 152.121 17.981C151.939 17.985 151.325 17.988 151.325 17.988C151.271 17.988 151.217 17.987 151.158 17.985C150.928 17.979 150.697 17.989 150.469 18.005C150.472 17.854 150.579 17.695 150.657 17.564C150.721 17.451 150.784 17.336 150.844 17.219C150.977 17.252 151.185 17.305 151.282 17.334C151.345 17.351 151.402 17.387 151.465 17.425C151.606 17.51 151.736 17.537 151.869 17.538C152.07 17.539 152.27 17.476 152.499 17.455C152.619 17.444 152.776 17.402 152.896 17.367C153.109 17.803 153.419 18.199 153.646 18.625C153.752 18.828 153.844 19.038 153.914 19.257C153.93 19.309 153.944 19.361 153.959 19.414C153.753 19.394 153.514 19.453 153.338 19.43Z" fill="white"/>
<path d="M166.952 13.3099C167.186 13.2929 167.428 13.2269 167.58 13.1789C168.186 12.9869 168.831 12.8159 169.403 12.5299C169.933 12.2649 170.115 11.6889 170.01 11.1309C169.947 10.7919 169.704 10.7889 169.45 10.6139C169.088 10.3649 168.884 10.3919 168.486 10.5749C168.221 10.6969 168.013 10.8429 167.813 10.9829C167.611 11.1249 167.049 11.5609 166.704 11.8469C166.369 12.1209 166.332 12.3679 166.292 12.8159C166.252 13.2499 166.592 13.3359 166.952 13.3099Z" fill="white"/>
<path d="M172.935 19.335C172.885 19.007 173.004 18.673 173.048 18.338C173.145 18.397 173.241 18.455 173.318 18.514C173.531 18.678 173.814 18.943 174.106 18.929C174.131 18.928 174.156 18.925 174.179 18.919C174.793 18.787 175.023 18.086 174.739 17.596C174.497 17.18 174.049 16.867 173.64 16.628C173.537 16.568 173.156 16.233 172.986 16.082C172.985 16.065 172.985 16.049 172.984 16.034C173.224 15.983 173.465 15.941 173.71 15.928C173.986 15.914 174.286 15.965 174.547 15.845C174.837 15.714 175.049 15.342 175.252 15.103L175.267 15.085C175.423 14.903 175.348 14.763 175.348 14.763C175.242 14.617 175.152 14.492 174.946 14.338C174.405 13.933 173.524 14.152 172.792 14.415C172.782 14.106 172.791 13.801 172.816 13.495C173.228 13.336 173.642 13.188 174.052 13.024C174.447 12.866 174.518 12.614 174.523 12.216C174.526 12.08 174.505 12.007 174.4 11.941C173.98 11.679 173.463 11.821 173.016 11.868C173.02 11.84 173.024 11.812 173.029 11.783C173.079 11.407 173.076 10.986 172.652 10.837C172.626 10.829 172.602 10.82 172.581 10.812C172.328 10.711 171.583 10.605 171.382 10.824C171.351 10.859 171.323 10.883 171.302 10.905C171.212 10.991 171.196 11.007 171.205 11.317C171.24 12.365 171.291 13.4 171.164 14.449C171.149 14.57 171.146 14.683 171.143 14.791C171.142 14.876 171.139 14.958 171.131 15.037C170.491 15.256 169.825 15.441 169.18 15.478C168.854 15.497 168.636 15.4 168.412 15.663C168.087 16.04 168.736 16.572 169.023 16.727C169.158 16.8 169.297 16.839 169.44 16.853C169.808 16.891 170.195 16.772 170.557 16.665C170.485 16.786 170.417 16.97 170.377 17.032C170.252 17.223 170.096 17.392 169.929 17.548C169.597 17.855 169.214 18.1 168.86 18.378C168.594 18.585 168.046 18.84 167.778 19.168C167.792 18.946 167.808 18.723 167.829 18.502C167.889 17.829 167.753 17.156 167.808 16.483C167.833 16.164 167.87 15.93 167.896 15.76C167.9 15.736 167.902 15.72 167.904 15.699C167.96 15.635 168.001 15.585 168.024 15.557C168.263 15.265 168.673 15.182 168.923 14.899C169.251 14.528 169.015 13.86 168.86 13.472C168.814 13.361 168.701 13.306 168.509 13.306C168.041 13.306 167.53 13.524 167.183 13.828C166.93 14.05 166.804 14.39 166.537 14.591C165.75 15.182 165.235 16.018 164.518 16.675C164.004 17.148 163.326 17.494 162.688 17.77C162.468 17.865 161.913 18.282 162.077 18.577C162.309 18.994 163.302 18.992 163.701 19.005C163.75 19.006 163.794 19.008 163.835 19.008C163.962 19.008 164.052 18.994 164.159 18.926C164.894 18.463 165.563 17.872 166.282 17.38C166.297 17.37 166.314 17.356 166.33 17.343C166.579 18.523 165.995 19.554 166.026 20.699C166.036 21.101 165.904 21.505 165.973 21.907C166.026 22.219 166.547 22.779 166.81 22.952C166.938 23.036 167.048 23.074 167.145 23.076C167.819 23.084 167.791 21.29 167.763 20.835C167.747 20.579 167.743 20.321 167.745 20.065C167.868 20.176 168.147 20.376 168.319 20.426C168.35 20.433 168.379 20.437 168.4 20.435C168.655 20.4 168.844 20.095 169.06 19.974C169.362 19.807 169.653 19.667 169.918 19.432C170.095 19.275 170.25 19.152 170.395 18.972C170.515 18.82 170.688 18.73 170.807 18.588C170.835 18.555 170.995 18.285 171.11 18.09C171.082 18.412 171.043 18.733 170.979 19.045C170.914 19.356 170.714 19.664 170.68 19.975C170.641 20.332 170.865 20.56 171.103 20.783C171.314 20.98 171.512 21.145 171.714 21.211C171.959 21.292 172.21 21.23 172.501 20.911C172.871 20.51 173.018 19.871 172.935 19.335Z" fill="white"/>
<path d="M176.349 14.808C176.425 14.84 176.466 14.857 176.489 14.868C176.504 14.874 176.51 14.878 176.511 14.878C176.521 14.878 176.536 14.879 176.574 14.886C176.595 14.889 176.615 14.891 176.637 14.891C176.81 14.891 177.015 14.787 177.168 14.739C177.484 14.641 177.801 14.54 178.119 14.448C178.385 14.37 178.712 14.231 178.994 14.244C179.09 14.248 179.206 14.318 179.301 14.305C179.528 14.27 179.706 14.086 179.83 13.907C179.854 13.871 180.241 13.389 180.048 13.314C179.61 13.146 179.238 12.922 178.782 12.871C178.529 12.844 178.253 13.004 178 13.059C177.427 13.183 176.836 13.193 176.252 13.229C175.814 13.255 175.221 13.339 175.314 13.925C175.388 14.396 175.964 14.647 176.349 14.808Z" fill="white"/>
<path d="M181.659 14.9741C181.386 14.8121 181.05 14.7451 180.736 14.7131C180.411 14.6791 180.066 14.6261 179.741 14.6121C179.4 14.5991 179.034 14.6731 178.701 14.7371C177.924 14.8891 177.182 15.2061 176.4 15.3311C176.038 15.3891 175.544 15.1981 175.254 15.4861C174.961 15.7781 174.894 16.3831 174.869 16.7611C174.848 17.0981 174.963 17.2531 175.323 17.2531C175.77 17.2531 176.218 17.1431 176.667 17.0781C176.731 17.2331 176.747 17.3881 176.762 17.5971C176.771 17.7041 176.78 17.8251 176.798 17.9681C176.932 19.0351 176.993 20.0391 176.908 21.1161C176.879 21.4731 176.831 21.5521 176.571 21.6751C175.923 21.9791 175.213 21.9351 174.521 21.8831C173.984 21.8431 173.454 21.8701 172.924 21.9721C172.51 22.0531 172.285 22.3081 172.689 22.6181C172.884 22.7671 173.148 22.7861 173.347 22.9481C173.674 23.2151 173.916 23.3781 174.324 23.5051C174.742 23.6361 176.243 24.0531 176.58 24.1081C176.894 24.1591 177.238 24.2271 177.841 24.2461C178.135 24.2541 178.521 23.7601 178.575 23.4581C178.602 23.3071 178.571 22.9281 178.534 22.2711C178.479 21.2991 178.497 20.3141 178.552 19.3431C178.592 18.6041 178.6 17.8011 178.838 17.0961C178.889 16.9471 178.935 16.8051 178.933 16.6951C179.112 16.6631 179.293 16.6371 179.48 16.6261C180.082 16.5911 180.706 16.6241 181.293 16.5141C181.488 16.4771 181.776 16.4211 182.03 16.3501C182.288 16.2791 182.342 16.2491 182.333 16.0931C182.312 15.6621 182.03 15.1921 181.659 14.9741Z" fill="white"/>
<path d="M203.199 22.288C202.544 21.845 201.734 21.769 201.044 21.4C200.009 20.847 198.965 20.445 198.019 19.726C197.248 19.14 196.764 18.258 196.199 17.491C195.84 17.004 195.497 16.506 195.156 16.005C196.062 15.969 196.962 15.96 197.878 15.814C198.293 15.748 199.14 15.812 199.463 15.515C199.819 15.189 199.791 14.504 199.74 14.071C199.68 13.571 198.607 13.475 198.244 13.446C197.542 13.39 196.832 13.52 196.16 13.716C195.68 13.856 195.213 14.034 194.745 14.215C194.892 13.204 195.016 12.19 195.168 11.18C195.216 10.862 195.317 10.551 195.2 10.235C195.106 9.98199 194.882 9.71899 194.587 9.71899C194.2 9.71899 193.462 9.98399 193.595 10.477C193.615 10.554 193.637 10.64 193.648 10.738C193.736 11.609 193.734 12.318 193.5 13.171C193.357 13.69 193.211 14.261 193.064 14.821C192.771 14.909 192.475 14.986 192.172 15.039C191.232 15.206 190.287 15.122 189.341 15.107C188.854 15.098 187.839 15.095 187.871 15.817C187.89 16.253 188.037 16.825 188.394 17.004C188.547 17.08 188.708 17.124 188.873 17.141C189.71 17.228 190.677 16.666 191.432 16.489C191.845 16.392 192.261 16.313 192.679 16.246C192.432 17.174 192.201 18.1 191.673 18.922C191.019 19.94 190.137 20.815 189.143 21.503C188.779 21.756 187.315 22.547 187.373 23.174C187.414 23.626 187.129 24.681 187.87 24.681C187.976 24.681 188.1 24.665 188.228 24.634C190.22 24.156 191.651 22.708 192.639 20.979C192.99 20.366 193.419 19.729 193.652 19.06C193.796 18.65 194.081 17.699 194.244 17.109C194.76 17.608 195.023 18.276 195.354 18.904C195.583 19.341 195.896 19.41 196.125 19.847C196.324 20.23 196.497 20.743 196.654 21.148C196.92 21.831 197.259 22.587 197.902 22.996C198.624 23.453 199.734 23.654 200.574 23.679C200.643 23.681 200.712 23.681 200.781 23.68C201.029 23.676 201.277 23.65 201.522 23.613C201.745 23.579 201.963 23.522 202.186 23.49C202.587 23.432 202.815 23.411 203.127 23.371C203.351 23.342 203.493 23.249 203.597 23.017C203.734 22.71 203.415 22.434 203.199 22.288Z" fill="white"/>
<path d="M211.143 16.7559C211.159 16.5709 211.146 16.4429 211.114 16.3539C211.36 16.2739 211.656 16.1039 211.725 16.0709C211.913 15.9819 212.09 15.9029 212.15 15.6839C212.268 15.2519 212.285 14.8259 212.272 14.3809C212.26 13.9409 211.987 13.5659 211.758 13.2109C211.585 12.9399 211.437 12.6439 211.197 12.4219C210.983 12.2239 210.694 12.2559 210.432 12.3069C210.307 12.3309 209.909 12.3919 209.916 12.5809C209.948 13.3589 209.666 14.3659 210.124 15.0529C210.366 15.4149 210.703 15.7379 210.752 16.1879C210.568 16.2169 210.341 16.3089 210.114 16.3559C209.294 16.5289 208.645 17.4379 207.999 17.9179C207.576 18.2319 207.543 18.8509 207.859 19.2589C207.953 19.3799 208.064 19.4509 208.188 19.4839C208.857 19.6639 209.881 18.7259 210.249 18.3699C210.692 17.9409 211.086 17.3869 211.143 16.7559Z" fill="white"/>
<path d="M223.116 15.063C222.856 14.963 221.117 14.787 220.495 14.741C220.617 14.449 220.719 14.152 220.751 13.986C220.815 13.645 220.941 13.274 221.024 12.94C221.114 12.583 221.134 12.213 221.215 11.854C221.275 11.582 221.378 11.327 221.414 11.049C221.457 10.725 221.319 10.623 221.111 10.469C221.041 10.417 220.969 10.364 220.896 10.296C220.647 10.066 220.417 9.962 220.154 9.962C219.427 9.962 218.724 10.038 218.021 10.229C217.762 10.3 217.467 10.514 217.579 10.82C217.648 11.005 217.8 11.155 217.838 11.166C217.851 11.169 217.887 11.173 217.979 11.173C218.267 11.173 219.396 10.865 219.491 11.271C219.512 11.358 219.505 11.46 219.49 11.566C219.474 11.566 219.458 11.566 219.446 11.57C218.973 11.676 218.099 11.458 217.791 11.936C217.722 12.042 217.7 12.125 217.722 12.191C217.758 12.303 217.935 12.377 218.113 12.444C218.268 12.502 218.417 12.531 218.566 12.531C218.813 12.531 219.054 12.471 219.297 12.431C219.262 12.599 219.224 12.765 219.186 12.932C218.834 13.022 218.427 12.98 218.079 12.999C217.874 13.011 217.782 13.015 217.693 13.224C217.55 13.565 217.669 13.766 217.906 13.982C218.132 14.188 218.356 14.213 218.525 14.213C218.603 14.213 218.683 14.218 218.761 14.216C218.735 14.294 218.712 14.372 218.695 14.451C218.677 14.533 218.617 14.622 218.54 14.709C218.163 14.73 217.816 14.775 217.488 14.833C217.488 14.791 217.487 14.751 217.486 14.713C217.472 14.372 217.263 14.094 217.049 13.844C217.018 13.809 216.931 13.734 216.812 13.64C216.96 13.426 217.083 13.147 217.127 13.015C217.198 12.8 217.129 12.646 217.002 12.529C217.22 12.425 217.393 12.192 217.399 12.047C217.408 11.781 216.976 11.49 216.821 11.309C216.796 11.278 216.772 11.254 216.748 11.227C217.078 10.939 217.327 10.577 217.276 10.101C217.27 10.03 217.251 10.012 217.247 10.009C216.986 9.799 216.339 9.297 215.999 9.514C215.823 9.628 215.754 9.836 215.679 10.055C215.641 10.169 215.603 10.287 215.545 10.399C215.51 10.47 215.462 10.547 215.413 10.626C214.986 10.615 214.575 10.793 214.161 10.874C214.145 10.706 214.105 10.545 214.016 10.405C213.809 10.075 213.573 9.901 213.274 9.854C213.196 9.842 213.119 9.836 213.045 9.836C212.848 9.836 212.688 9.878 212.58 9.96C212.435 10.07 212.364 10.298 212.257 10.645L212.206 10.804C212.043 11.312 212.353 11.761 212.387 12.263C212.416 12.701 212.393 13.145 212.48 13.579C212.553 13.952 212.625 14.322 212.661 14.702C212.668 14.775 212.673 15.406 212.665 15.728C212.655 15.728 212.646 15.728 212.634 15.728C212.155 15.68 211.946 16.376 211.946 16.381C212.017 16.65 212.743 16.738 212.965 16.766C213.496 16.832 214.028 16.742 214.548 16.639C215.553 16.436 216.544 16.026 217.569 15.957C218.64 15.885 219.707 16.084 220.777 16.092C220.966 16.094 221.327 16.151 221.342 16.154L221.409 16.165L221.389 16.23C221.236 16.75 220.165 17.441 220.864 17.922C220.963 17.99 221.07 18.094 221.194 18.113C221.468 18.153 222.5 17.706 223.01 17.342C223.498 16.993 224.009 16.658 224.312 16.121C224.631 15.558 223.52 15.218 223.116 15.063ZM213.967 14.278C213.95 13.863 213.948 13.449 213.963 13.034C213.963 13.063 213.967 13.091 213.98 13.116C214.048 13.257 214.315 13.268 214.44 13.343C214.602 13.439 214.728 13.584 214.842 13.735C214.659 13.897 214.181 14.163 213.967 14.278ZM215.509 12.848C215.037 12.697 214.593 12.687 214.117 12.809C214.033 12.83 213.971 12.924 213.963 13.016C213.969 12.869 213.979 12.722 213.988 12.574C214.348 12.544 214.753 12.355 215.067 12.219C215.219 12.154 215.364 12.078 215.511 12.004C215.566 12.062 215.622 12.122 215.678 12.182C215.75 12.259 215.819 12.331 215.881 12.394C215.756 12.519 215.664 12.686 215.597 12.809C215.583 12.832 215.573 12.85 215.563 12.871C215.545 12.863 215.524 12.853 215.509 12.848ZM214.349 11.181C214.37 11.198 214.392 11.217 214.416 11.237C214.498 11.306 214.62 11.372 214.744 11.437C214.724 11.455 214.705 11.477 214.685 11.493C214.485 11.668 214.233 11.813 214.057 11.913C214.109 11.607 214.178 11.271 214.164 10.958C214.192 11.049 214.251 11.1 214.349 11.181ZM214.08 15.629C214.081 15.608 214.081 15.588 214.081 15.563C214.073 15.425 214.052 15.291 214.031 15.155C214.153 15.201 214.287 15.234 214.391 15.247C214.459 15.257 214.514 15.259 214.545 15.252C214.854 15.192 215.104 14.951 215.383 14.819C215.441 14.792 215.519 14.743 215.604 14.685C215.624 14.709 215.644 14.733 215.665 14.758C215.795 14.917 215.925 15.075 216.029 15.181C215.417 15.35 214.801 15.523 214.08 15.629Z" fill="white"/>
<path d="M221.149 18.441C220.95 18.441 220.653 18.522 220.393 18.591C219.83 18.744 219.29 18.726 218.712 18.762C218.506 18.775 218.3 18.804 218.096 18.836C218.128 18.806 218.16 18.776 218.192 18.743C218.55 18.37 218.975 18.075 219.408 17.795C219.584 17.682 219.925 17.561 219.913 17.311C219.904 17.142 219.733 16.78 219.379 16.51C219.007 16.226 218.42 16.285 217.979 16.307C217.357 16.339 216.754 16.498 216.157 16.661C215.052 16.962 213.955 17.255 212.82 17.435C212.529 17.48 212.111 17.526 211.896 17.751C211.753 17.901 211.902 18.113 211.902 18.113C212.144 18.504 212.834 18.671 213.211 18.69C213.964 18.728 214.694 18.334 215.363 18.039C215.606 17.933 217.589 16.887 217.613 17.436C217.624 17.698 217.354 18.214 217.151 18.379C217.12 18.404 217.079 18.42 217.039 18.436C216.849 18.256 216.623 18.106 216.368 18.066C216.151 18.031 215.725 18.113 215.673 18.388C215.658 18.461 215.714 18.53 215.778 18.608C215.789 18.622 215.8 18.637 215.812 18.652C215.933 18.807 215.999 18.99 216.063 19.183C214.987 19.323 214.235 19.511 213.113 19.792C212.797 19.872 212.083 19.973 211.758 19.964C211.441 19.956 210.857 19.827 210.578 20.043C210.224 20.318 210.094 20.448 210.131 20.724C210.156 20.926 210.327 20.975 210.524 21.123C210.695 21.252 210.913 21.382 211.089 21.33C211.529 21.198 212.109 21.093 212.517 21.001C213.066 20.878 213.332 20.868 213.892 20.798C214.662 20.7 215.433 20.632 216.205 20.557C216.199 20.696 216.196 20.817 216.196 20.897C216.196 20.999 216.202 21.102 216.21 21.219C216.223 21.423 216.236 21.676 216.225 22.034C216.205 22.56 216.162 22.627 215.985 22.822L215.955 22.855C215.76 23.072 215.369 23.198 214.915 23.328C214.011 23.586 212.967 23.308 212.04 23.357C211.894 23.365 211.769 23.371 211.681 23.371C211.492 23.371 211.437 23.514 211.439 23.55C211.469 24.266 212.582 24.459 213.094 24.683C213.689 24.942 214.293 25.052 214.918 25.21C215.053 25.245 215.19 25.28 215.329 25.312C216.205 25.502 216.798 25.219 217.288 24.488C217.611 24.007 217.589 23.455 217.638 22.902C217.71 22.082 217.668 21.247 217.624 20.426C217.624 20.417 217.625 20.406 217.625 20.397C218.554 20.274 219.496 20.122 220.432 20.14C221.138 20.153 221.86 20.503 222.407 19.867C222.898 19.292 221.639 18.441 221.149 18.441Z" fill="white"/>
<path d="M60.711 35.188H59.3L56.74 31.287C56.591 31.06 56.486 30.889 56.429 30.773H56.411C56.434 30.992 56.446 31.329 56.446 31.777V35.188H55.125V28.981H56.632L59.097 32.76C59.209 32.932 59.314 33.099 59.409 33.266H59.427C59.404 33.121 59.392 32.838 59.392 32.413V28.98H60.713V35.188H60.711Z" fill="white"/>
<path d="M66.4888 35.1899H65.1928V34.5519H65.1757C64.8777 35.0499 64.4378 35.2969 63.8548 35.2969C63.4248 35.2969 63.0857 35.1759 62.8387 34.9319C62.5917 34.6879 62.4688 34.3619 62.4688 33.9559C62.4688 33.0949 62.9777 32.5989 63.9967 32.4669L65.2007 32.3059C65.2007 31.8199 64.9378 31.5779 64.4128 31.5779C63.8848 31.5779 63.3828 31.7349 62.9058 32.0489V31.0199C63.0968 30.9209 63.3578 30.8339 63.6878 30.7599C64.0188 30.6839 64.3197 30.6489 64.5897 30.6489C65.8547 30.6489 66.4868 31.2769 66.4868 32.5399V35.1899H66.4888ZM65.2017 33.3889V33.0899L64.3967 33.1929C63.9517 33.2519 63.7298 33.4539 63.7298 33.7969C63.7298 33.9519 63.7838 34.0799 63.8918 34.1799C63.9988 34.2789 64.1458 34.3299 64.3308 34.3299C64.5878 34.3299 64.7968 34.2389 64.9588 34.0629C65.1208 33.8849 65.2017 33.6599 65.2017 33.3889Z" fill="white"/>
<path d="M71.047 35.1401C70.845 35.2441 70.54 35.2981 70.133 35.2981C69.169 35.2981 68.687 34.7981 68.687 33.7961V31.7651H67.968V30.7571H68.687V29.7981L70.051 29.4091V30.7571H71.048V31.7651H70.05V33.5591C70.05 34.0201 70.234 34.2511 70.6 34.2511C70.744 34.2511 70.893 34.2091 71.046 34.1251V35.1401H71.047Z" fill="white"/>
<path d="M73.3114 30.056C73.0804 30.056 72.8914 29.986 72.7444 29.85C72.5974 29.713 72.5234 29.544 72.5234 29.343C72.5234 29.141 72.5974 28.971 72.7444 28.841C72.8914 28.713 73.0804 28.647 73.3114 28.647C73.5454 28.647 73.7344 28.713 73.8804 28.841C74.0264 28.971 74.0994 29.141 74.0994 29.343C74.0994 29.552 74.0264 29.724 73.8804 29.856C73.7344 29.988 73.5444 30.056 73.3114 30.056ZM73.9864 35.188H72.6174V30.756H73.9864V35.188Z" fill="white"/>
<path d="M78.0499 35.2979C77.3109 35.2979 76.7299 35.0919 76.3069 34.6769C75.8839 34.2629 75.6719 33.7009 75.6719 32.9899C75.6719 32.2569 75.8919 31.6839 76.3299 31.2679C76.7679 30.8529 77.3629 30.6489 78.1109 30.6489C78.8469 30.6489 79.4239 30.8529 79.8419 31.2679C80.2609 31.6839 80.4689 32.2309 80.4689 32.9119C80.4689 33.6489 80.2539 34.2299 79.8229 34.6579C79.3919 35.0829 78.8009 35.2979 78.0499 35.2979ZM78.0849 31.6959C77.7609 31.6959 77.5099 31.8049 77.3309 32.0289C77.1519 32.2529 77.0619 32.5659 77.0619 32.9729C77.0619 33.8249 77.4059 34.2499 78.0929 34.2499C78.7479 34.2499 79.0749 33.8119 79.0749 32.9369C79.0759 32.1099 78.7449 31.6959 78.0849 31.6959Z" fill="white"/>
<path d="M86.4382 35.188H85.0742V32.725C85.0742 32.039 84.8282 31.696 84.3392 31.696C84.1022 31.696 83.9062 31.787 83.7542 31.967C83.6022 32.151 83.5253 32.38 83.5253 32.661V35.187H82.1562V30.755H83.5253V31.455H83.5423C83.8683 30.916 84.3432 30.647 84.9662 30.647C85.9472 30.647 86.4382 31.254 86.4382 32.473V35.188Z" fill="white"/>
<path d="M92.0034 35.1899H90.7084V34.5519H90.6914C90.3934 35.0499 89.9544 35.2969 89.3704 35.2969C88.9404 35.2969 88.6024 35.1759 88.3544 34.9319C88.1074 34.6879 87.9844 34.3619 87.9844 33.9559C87.9844 33.0949 88.4934 32.5989 89.5114 32.4669L90.7164 32.3059C90.7164 31.8199 90.4534 31.5779 89.9284 31.5779C89.4004 31.5779 88.8984 31.7349 88.4214 32.0489V31.0199C88.6114 30.9209 88.8724 30.8339 89.2024 30.7599C89.5344 30.6839 89.8344 30.6489 90.1064 30.6489C91.3714 30.6489 92.0034 31.2769 92.0034 32.5399V35.1899ZM90.7174 33.3889V33.0899L89.9124 33.1929C89.4674 33.2519 89.2454 33.4539 89.2454 33.7969C89.2454 33.9519 89.2994 34.0799 89.4074 34.1799C89.5154 34.2789 89.6624 34.3299 89.8474 34.3299C90.1044 34.3299 90.3134 34.2389 90.4744 34.0629C90.6364 33.8849 90.7174 33.6599 90.7174 33.3889Z" fill="white"/>
<path d="M95.2586 28.626H93.8906V35.189H95.2586V28.626Z" fill="white"/>
<path d="M104.944 30.12H103.173V35.19H101.77V30.12H100.008V28.981H104.944V30.12Z" fill="white"/>
<path d="M110.135 35.19H108.841V34.552H108.823C108.526 35.05 108.085 35.297 107.503 35.297C107.073 35.297 106.734 35.176 106.487 34.932C106.241 34.688 106.117 34.362 106.117 33.956C106.117 33.095 106.627 32.599 107.645 32.467L108.849 32.306C108.849 31.82 108.588 31.578 108.062 31.578C107.533 31.578 107.031 31.735 106.554 32.049V31.02C106.744 30.921 107.005 30.834 107.336 30.76C107.666 30.684 107.967 30.649 108.239 30.649C109.502 30.649 110.135 31.277 110.135 32.54V35.19ZM108.849 33.389V33.09L108.044 33.193C107.599 33.252 107.377 33.454 107.377 33.797C107.377 33.952 107.431 34.08 107.539 34.18C107.647 34.279 107.794 34.33 107.979 34.33C108.236 34.33 108.446 34.239 108.607 34.063C108.768 33.885 108.849 33.66 108.849 33.389Z" fill="white"/>
<path d="M112.71 30.056C112.479 30.056 112.291 29.986 112.143 29.85C111.995 29.713 111.922 29.544 111.922 29.343C111.922 29.141 111.995 28.971 112.143 28.841C112.29 28.713 112.478 28.647 112.71 28.647C112.943 28.647 113.132 28.713 113.28 28.841C113.426 28.971 113.499 29.141 113.499 29.343C113.499 29.552 113.427 29.724 113.28 29.856C113.133 29.987 112.944 30.056 112.71 30.056ZM113.387 35.188H112.017V30.756H113.387V35.188Z" fill="white"/>
<path d="M121.757 30.7571L120.48 35.1891H119.042L118.389 32.5921C118.346 32.4201 118.322 32.2301 118.315 32.0261H118.289C118.269 32.2511 118.24 32.4351 118.203 32.5761L117.501 35.1891H116.081L114.828 30.7571H116.224L116.833 33.6501C116.863 33.7841 116.884 33.9501 116.899 34.1441H116.923C116.939 33.9411 116.963 33.7701 117.002 33.6311L117.763 30.7571H119.067L119.752 33.6501C119.771 33.7221 119.789 33.8871 119.814 34.1521H119.843C119.858 33.9851 119.881 33.8171 119.912 33.6501L120.488 30.7571H121.757Z" fill="white"/>
<path d="M126.894 35.19H125.598V34.552H125.581C125.282 35.05 124.844 35.297 124.26 35.297C123.83 35.297 123.492 35.176 123.245 34.932C122.998 34.688 122.874 34.362 122.874 33.956C122.874 33.095 123.385 32.599 124.403 32.467L125.606 32.306C125.606 31.82 125.344 31.578 124.819 31.578C124.291 31.578 123.788 31.735 123.312 32.049V31.02C123.501 30.921 123.763 30.834 124.093 30.76C124.423 30.684 124.725 30.649 124.995 30.649C126.26 30.649 126.892 31.277 126.892 32.54V35.19H126.894ZM125.606 33.389V33.09L124.8 33.193C124.356 33.252 124.134 33.454 124.134 33.797C124.134 33.952 124.188 34.08 124.296 34.18C124.404 34.279 124.551 34.33 124.736 34.33C124.992 34.33 125.202 34.239 125.364 34.063C125.526 33.885 125.606 33.66 125.606 33.389Z" fill="white"/>
<path d="M133.055 35.188H131.691V32.725C131.691 32.039 131.445 31.696 130.956 31.696C130.719 31.696 130.523 31.787 130.371 31.967C130.218 32.151 130.141 32.38 130.141 32.661V35.187H128.773V30.755H130.141V31.455H130.159C130.485 30.916 130.961 30.647 131.584 30.647C132.565 30.647 133.057 31.254 133.057 32.473V35.188H133.055Z" fill="white"/>
<path d="M143.377 32.4999C143.377 34.3659 142.507 35.2979 140.769 35.2979C139.084 35.2979 138.242 34.3869 138.242 32.5669V28.9819H139.644V32.5839C139.644 33.5879 140.037 34.0909 140.822 34.0909C141.593 34.0909 141.978 33.6069 141.978 32.6359V28.9829H143.377V32.4999Z" fill="white"/>
<path d="M149.679 35.188H148.315V32.725C148.315 32.039 148.07 31.696 147.579 31.696C147.342 31.696 147.147 31.787 146.995 31.967C146.842 32.151 146.766 32.38 146.766 32.661V35.187H145.398V30.755H146.766V31.455H146.783C147.109 30.916 147.585 30.647 148.208 30.647C149.19 30.647 149.681 31.254 149.681 32.473V35.188H149.679Z" fill="white"/>
<path d="M152.25 30.056C152.02 30.056 151.829 29.986 151.683 29.85C151.537 29.713 151.461 29.544 151.461 29.343C151.461 29.141 151.536 28.971 151.683 28.841C151.829 28.713 152.02 28.647 152.25 28.647C152.484 28.647 152.673 28.713 152.819 28.841C152.965 28.971 153.038 29.141 153.038 29.343C153.038 29.552 152.965 29.724 152.819 29.856C152.673 29.987 152.484 30.056 152.25 30.056ZM152.926 35.188H151.558V30.756H152.926V35.188Z" fill="white"/>
<path d="M159.1 30.7571L157.45 35.1891H155.891L154.32 30.7571H155.784L156.554 33.4881C156.641 33.7981 156.692 34.0601 156.706 34.2771H156.725C156.744 34.0711 156.797 33.8161 156.884 33.5141L157.671 30.7561H159.1V30.7571Z" fill="white"/>
<path d="M164.467 33.3639H161.575C161.62 34.0069 162.026 34.3289 162.792 34.3289C163.278 34.3289 163.708 34.2139 164.077 33.9819V34.969C163.667 35.188 163.135 35.2969 162.479 35.2969C161.762 35.2969 161.208 35.0989 160.812 34.7019C160.416 34.3049 160.219 33.7519 160.219 33.0409C160.219 32.3059 160.433 31.7229 160.86 31.2929C161.287 30.8599 161.812 30.6479 162.435 30.6479C163.082 30.6479 163.582 30.8369 163.935 31.2219C164.289 31.6059 164.466 32.1269 164.466 32.7859V33.3639H164.467ZM163.198 32.5229C163.198 31.8879 162.942 31.5699 162.427 31.5699C162.207 31.5699 162.018 31.6609 161.858 31.8429C161.698 32.0249 161.6 32.2489 161.565 32.5229H163.198Z" fill="white"/>
<path d="M168.97 31.99C168.805 31.901 168.614 31.855 168.394 31.855C168.096 31.855 167.864 31.964 167.696 32.182C167.529 32.401 167.445 32.696 167.445 33.073V35.19H166.078V30.756H167.445V31.578H167.463C167.681 30.976 168.069 30.677 168.633 30.677C168.777 30.677 168.89 30.694 168.971 30.729V31.99H168.97Z" fill="white"/>
<path d="M170.109 35.0729V33.9639C170.336 34.0999 170.559 34.2009 170.784 34.2679C171.008 34.3329 171.218 34.3689 171.418 34.3689C171.66 34.3689 171.852 34.3339 171.992 34.2679C172.132 34.2019 172.202 34.0999 172.202 33.9639C172.202 33.8789 172.17 33.8069 172.106 33.7479C172.043 33.6899 171.96 33.6389 171.862 33.5979C171.762 33.5549 171.653 33.5149 171.534 33.4799C171.417 33.4449 171.302 33.4059 171.192 33.3629C171.016 33.2969 170.86 33.2259 170.726 33.1499C170.591 33.0739 170.48 32.9849 170.389 32.8829C170.298 32.7809 170.229 32.6639 170.18 32.5309C170.133 32.3969 170.109 32.2399 170.109 32.0579C170.109 31.8099 170.164 31.5969 170.272 31.4169C170.379 31.2389 170.525 31.0919 170.706 30.9789C170.886 30.8659 171.092 30.7809 171.324 30.7269C171.556 30.6729 171.799 30.6489 172.05 30.6489C172.246 30.6489 172.446 30.6629 172.649 30.6919C172.85 30.7229 173.048 30.7659 173.247 30.8239V31.8809C173.073 31.7809 172.888 31.7049 172.689 31.6549C172.492 31.6029 172.297 31.5789 172.107 31.5789C172.017 31.5789 171.932 31.5869 171.854 31.6029C171.774 31.6179 171.705 31.6419 171.643 31.6709C171.583 31.7019 171.535 31.7389 171.5 31.7859C171.465 31.8359 171.448 31.8899 171.448 31.9499C171.448 32.0299 171.474 32.0999 171.525 32.1579C171.578 32.2169 171.645 32.2649 171.729 32.3069C171.813 32.3479 171.906 32.3849 172.009 32.4179C172.111 32.4529 172.212 32.4859 172.314 32.5219C172.496 32.5839 172.66 32.6539 172.808 32.7279C172.954 32.8049 173.08 32.8909 173.186 32.9929C173.292 33.0949 173.372 33.2119 173.429 33.3479C173.485 33.4849 173.513 33.6459 173.513 33.8329C173.513 34.0959 173.455 34.3189 173.342 34.5069C173.227 34.6909 173.076 34.8439 172.887 34.9619C172.699 35.0769 172.48 35.1639 172.233 35.2159C171.988 35.2699 171.731 35.2959 171.464 35.2959C170.977 35.2979 170.526 35.2239 170.109 35.0729Z" fill="white"/>
<path d="M175.796 30.056C175.565 30.056 175.376 29.986 175.229 29.85C175.083 29.713 175.008 29.544 175.008 29.343C175.008 29.141 175.082 28.971 175.229 28.841C175.376 28.713 175.565 28.647 175.796 28.647C176.029 28.647 176.22 28.713 176.365 28.841C176.511 28.971 176.584 29.141 176.584 29.343C176.584 29.552 176.511 29.724 176.365 29.856C176.219 29.988 176.029 30.056 175.796 30.056ZM176.472 35.188H175.103V30.756H176.472V35.188Z" fill="white"/>
<path d="M181.101 35.1399C180.9 35.2439 180.594 35.2979 180.188 35.2979C179.224 35.2979 178.741 34.7979 178.741 33.7959V31.7649H178.023V30.7569H178.741V29.7979L180.105 29.4089V30.7569H181.101V31.7649H180.105V33.5589C180.105 34.0199 180.289 34.2509 180.656 34.2509C180.8 34.2509 180.949 34.2089 181.101 34.1249V35.1399Z" fill="white"/>
<path d="M186.895 30.757L185.093 35.544C184.66 36.697 184.008 37.273 183.135 37.273C182.803 37.273 182.531 37.234 182.318 37.16V36.069C182.499 36.176 182.697 36.23 182.911 36.23C183.264 36.23 183.508 36.062 183.648 35.732L183.88 35.182L182.079 30.756H183.595L184.421 33.452C184.474 33.619 184.514 33.817 184.543 34.045H184.56C184.586 33.88 184.634 33.684 184.704 33.46L185.54 30.756H186.895V30.757Z" fill="white"/>
<path d="M193.604 35.2979C192.866 35.2979 192.285 35.0919 191.862 34.6769C191.439 34.2629 191.227 33.7009 191.227 32.9899C191.227 32.2569 191.447 31.6839 191.885 31.2679C192.323 30.8529 192.917 30.6489 193.666 30.6489C194.4 30.6489 194.978 30.8529 195.397 31.2679C195.815 31.6839 196.024 32.2309 196.024 32.9119C196.024 33.6489 195.809 34.2299 195.377 34.6579C194.946 35.0829 194.355 35.2979 193.604 35.2979ZM193.639 31.6959C193.316 31.6959 193.065 31.8049 192.885 32.0289C192.706 32.2529 192.617 32.5659 192.617 32.9729C192.617 33.8249 192.96 34.2499 193.647 34.2499C194.301 34.2499 194.63 33.8119 194.63 32.9369C194.631 32.1099 194.299 31.6959 193.639 31.6959Z" fill="white"/>
<path d="M200.603 29.674C200.426 29.604 200.258 29.57 200.096 29.57C199.657 29.57 199.438 29.807 199.438 30.283V30.757H200.452V31.765H199.438V35.189H198.074V31.765H197.328V30.757H198.074V30.207C198.074 29.7 198.238 29.293 198.568 28.985C198.896 28.675 199.344 28.52 199.91 28.52C200.187 28.52 200.419 28.549 200.603 28.607V29.674Z" fill="white"/>
<path d="M210.744 35.188H209.22L208.779 33.808H206.57L206.133 35.188H204.617L206.876 28.981H208.535L210.744 35.188ZM208.457 32.734L207.791 30.649C207.741 30.492 207.707 30.305 207.687 30.088H207.653C207.638 30.27 207.602 30.449 207.545 30.63L206.869 32.734H208.457Z" fill="white"/>
<path d="M215.073 31.99C214.908 31.901 214.716 31.855 214.497 31.855C214.2 31.855 213.967 31.964 213.8 32.182C213.632 32.401 213.549 32.696 213.549 33.073V35.19H212.18V30.756H213.549V31.578H213.566C213.783 30.976 214.172 30.677 214.736 30.677C214.881 30.677 214.993 30.694 215.074 30.729V31.99H215.073Z" fill="white"/>
<path d="M219.186 35.1399C218.985 35.2439 218.679 35.2979 218.273 35.2979C217.308 35.2979 216.827 34.7979 216.827 33.7959V31.7649H216.109V30.7569H216.827V29.7979L218.191 29.4089V30.7569H219.186V31.7649H218.191V33.5589C218.191 34.0199 218.375 34.2509 218.74 34.2509C218.885 34.2509 219.034 34.2089 219.186 34.1249V35.1399Z" fill="white"/>
<path d="M220.469 35.0729V33.9639C220.695 34.0999 220.918 34.2009 221.143 34.2679C221.367 34.3329 221.578 34.3689 221.778 34.3689C222.019 34.3689 222.212 34.3339 222.351 34.2679C222.491 34.2019 222.561 34.0999 222.561 33.9639C222.561 33.8789 222.53 33.8069 222.465 33.7479C222.402 33.6899 222.32 33.6389 222.22 33.5979C222.121 33.5549 222.012 33.5149 221.893 33.4799C221.775 33.4449 221.662 33.4059 221.552 33.3629C221.375 33.2969 221.22 33.2259 221.086 33.1499C220.952 33.0739 220.839 32.9849 220.748 32.8829C220.657 32.7809 220.588 32.6639 220.54 32.5309C220.493 32.3969 220.469 32.2399 220.469 32.0579C220.469 31.8099 220.523 31.5969 220.631 31.4169C220.739 31.2389 220.885 31.0919 221.065 30.9789C221.246 30.8659 221.452 30.7809 221.683 30.7269C221.915 30.6729 222.159 30.6489 222.41 30.6489C222.605 30.6489 222.805 30.6629 223.008 30.6919C223.21 30.7229 223.408 30.7659 223.606 30.8239V31.8809C223.432 31.7809 223.247 31.7049 223.049 31.6549C222.851 31.6029 222.656 31.5789 222.466 31.5789C222.377 31.5789 222.291 31.5869 222.213 31.6029C222.134 31.6179 222.064 31.6419 222.002 31.6709C221.942 31.7019 221.894 31.7389 221.86 31.7859C221.824 31.8359 221.807 31.8899 221.807 31.9499C221.807 32.0299 221.833 32.0999 221.886 32.1579C221.938 32.2169 222.004 32.2649 222.088 32.3069C222.172 32.3479 222.265 32.3849 222.368 32.4179C222.471 32.4529 222.572 32.4859 222.673 32.5219C222.855 32.5839 223.02 32.6539 223.167 32.7279C223.313 32.8049 223.439 32.8909 223.546 32.9929C223.65 33.0949 223.732 33.2119 223.787 33.3479C223.845 33.4849 223.872 33.6459 223.872 33.8329C223.872 34.0959 223.815 34.3189 223.701 34.5069C223.587 34.6909 223.436 34.8439 223.247 34.9619C223.057 35.0769 222.84 35.1639 222.593 35.2159C222.346 35.2699 222.09 35.2959 221.823 35.2959C221.336 35.2979 220.885 35.2239 220.469 35.0729Z" fill="white"/>
<path d="M15.8493 9.74288C15.8553 9.74288 15.8613 9.74288 15.8673 9.74288H37.8223C37.8283 9.74288 37.8343 9.74288 37.8393 9.74288C38.8443 9.74288 39.6603 8.92788 39.6603 7.92288C39.6603 6.91988 38.8483 6.10588 37.8463 6.10288V6.10088H33.1073V4.38088H33.1053C33.1053 4.37088 33.1073 4.36088 33.1073 4.35088C33.1073 3.27388 32.2343 2.40088 31.1573 2.40088C30.0803 2.40088 29.2073 3.27488 29.2073 4.35088C29.2073 4.36088 29.2083 4.37088 29.2093 4.38088V6.10088H24.4823V4.39888C24.4823 4.39088 24.4833 4.38288 24.4833 4.37588C24.4833 3.29888 23.6103 2.42588 22.5333 2.42588C21.4563 2.42588 20.5833 3.29888 20.5833 4.37588C20.5833 4.37688 20.5833 4.37988 20.5833 4.38088H20.5823V6.10088H15.8483V6.10288C14.8443 6.10388 14.0313 6.91788 14.0313 7.92288C14.0283 8.92788 14.8443 9.74288 15.8493 9.74288Z" fill="white"/>
<path d="M40.7649 33.8929V33.8909H26.4329V32.2099C26.4329 31.6579 26.5729 31.5419 27.0909 31.5419H29.8439C30.8699 31.5419 31.2869 30.9479 31.2869 30.2019V29.0849C31.2869 28.3379 30.6809 27.9299 29.9339 27.9299H24.2459C23.0259 27.9299 22.5729 28.6669 22.5729 29.4809V33.8909H13.1259C13.1119 33.8899 13.0979 33.8879 13.0829 33.8879C12.0279 33.8879 11.1719 34.7429 11.1719 35.7999C11.1719 36.8549 12.0279 37.7109 13.0829 37.7109C13.0869 37.7109 13.0899 37.7099 13.0939 37.7099V37.7129H40.7249C40.7379 37.7129 40.7509 37.7149 40.7649 37.7149C41.8209 37.7149 42.6769 36.8599 42.6769 35.8039C42.6749 34.7489 41.8199 33.8939 40.7649 33.8929Z" fill="white"/>
<path d="M33.9844 39.4449V39.4409H19.5514V39.4449C18.4784 39.4479 17.6094 40.3169 17.6094 41.3909C17.6094 42.4649 18.4804 43.3359 19.5554 43.3359C19.5824 43.3359 19.6094 43.3329 19.6364 43.3319H33.8924C33.9194 43.3329 33.9454 43.3359 33.9734 43.3359C35.0484 43.3359 35.9194 42.4649 35.9194 41.3909C35.9174 40.3199 35.0534 39.4529 33.9844 39.4449Z" fill="white"/>
<path d="M45.8713 22.5599C45.8563 22.5599 45.8423 22.5609 45.8283 22.5609H44.5433V16.5759C44.5433 13.5239 42.7493 11.5199 39.8053 11.5199L27.9853 11.5189V13.5519C27.9853 15.8679 26.6513 17.3229 23.2753 17.3229C21.9373 17.3229 21.6623 17.8129 21.6623 18.2939L21.6423 19.3429C21.6423 20.1759 22.0083 20.4399 23.5283 20.4399C23.5283 20.4399 28.6573 20.4419 28.6723 20.4419C30.9913 20.4419 31.2913 20.0719 31.2913 17.9089L31.2883 15.1619L34.5513 15.1609V18.1839C34.5513 21.2989 33.6353 23.1599 30.5073 23.1599L21.2003 23.1169C19.1533 23.1169 18.5193 21.6289 18.5193 20.5329V17.6359C18.5193 15.3869 19.6563 14.6079 21.5083 14.6079C23.5293 14.6079 24.5633 14.0719 24.5633 12.6469V11.5199H11.4233H11.4223H11.4153C10.4133 11.5239 9.60231 12.3379 9.60231 13.3399C9.60231 14.3419 10.4133 15.1549 11.4153 15.1599V15.1609H15.1133V16.9449H8.61431C8.61231 16.9449 8.61031 16.9449 8.60831 16.9449C7.60331 16.9449 6.78831 17.7599 6.78831 18.7659C6.78831 19.7689 7.60031 20.5829 8.60331 20.5859V20.5879H15.1123V22.5619H7.93231C7.91831 22.5619 7.90431 22.5609 7.89031 22.5609C6.88531 22.5609 6.07031 23.3759 6.07031 24.3809C6.07031 25.3869 6.88531 26.1999 7.89031 26.1999C7.89131 26.1999 7.89331 26.1999 7.89431 26.1999V26.2049L33.1613 26.1979C36.9653 26.1979 38.3313 22.8289 38.3313 19.3179V15.1619H40.7373V24.6229C40.7373 25.2609 41.2863 26.1999 42.1543 26.1999L45.8903 26.2049V26.1999C46.8863 26.1889 47.6913 25.3799 47.6913 24.3809C47.6913 23.3749 46.8763 22.5599 45.8713 22.5599Z" fill="white"/>
<path d="M18.9136 29.771V29.532C18.9136 28.927 19.0516 28.073 19.2956 28.021H9.63056V28.025C9.62656 28.025 9.62256 28.023 9.61856 28.023C8.50556 28.023 7.60156 28.926 7.60156 30.04C7.60156 31.155 8.50456 32.058 9.61856 32.058C9.63456 32.058 9.64956 32.056 9.66456 32.056H19.4276C18.8356 31.926 18.9136 30.403 18.9136 29.771Z" fill="white"/>
<path d="M44.0426 28.023C44.0396 28.023 44.0356 28.024 44.0316 28.024V28.021H34.3876C34.7006 28.143 34.7476 28.926 34.7476 29.532V29.771C34.7476 30.403 34.8196 31.925 34.2266 32.055H43.9956C44.0116 32.055 44.0266 32.057 44.0426 32.057C45.1566 32.057 46.0596 31.154 46.0596 30.041C46.0586 28.927 45.1556 28.023 44.0426 28.023Z" fill="white"/>
</svg>
