<svg width="308" height="71" viewBox="0 0 308 71" fill="none" xmlns="http://www.w3.org/2000/svg">
<g filter="url(#filter0_d)">
<path fill-rule="evenodd" clip-rule="evenodd" d="M85.9804 36.0862C85.8094 35.2282 85.8034 34.3472 85.6894 33.4812C85.5684 32.5712 85.3904 31.6672 85.3514 30.7482C85.2874 29.2442 85.4674 27.7432 85.4534 26.2392C85.4524 26.1202 85.4924 25.8462 85.4074 25.7402C85.2924 25.5962 85.2124 25.5442 85.1644 25.5122C85.0334 25.4262 85.0724 25.3582 85.1444 25.2352C85.1634 25.2022 85.1884 25.1592 85.2184 25.1042C85.5114 24.5712 85.4164 24.2193 85.0924 23.6273C84.9154 23.2443 84.5864 22.8222 84.3274 22.6462C84.0444 22.4532 83.8774 22.4442 83.5444 22.4252C83.3524 22.4142 83.1124 22.4003 82.7734 22.3463C82.0504 22.2103 81.5224 21.9542 81.1734 21.7852C81.0894 21.7442 81.0154 21.7082 80.9404 21.6752C80.7904 21.5852 80.3284 21.5312 79.7054 21.5312C77.7034 21.5312 75.7584 22.1192 73.8414 22.6322C72.9594 22.8682 72.0634 23.1422 71.1404 23.1112C70.6104 23.0932 70.0774 22.8142 69.5454 22.9012C68.9734 22.9952 68.7784 23.4592 68.4894 23.9032L68.4724 23.9293C67.9894 24.6693 67.8394 25.8282 67.6314 26.6772C67.4484 27.4262 67.4864 28.2042 67.3674 28.9622C67.2494 29.7172 66.9964 30.4412 66.7714 31.1682C66.5324 31.9392 66.2974 32.7242 65.8764 33.4202C65.6244 33.8372 65.3964 34.2022 65.4544 34.7032C65.5104 35.1852 65.7564 35.6142 65.9384 36.0562C66.1664 36.6112 66.3624 37.1792 66.5514 37.7482C66.6524 38.0512 66.6314 38.3952 66.7634 38.6872C66.8834 38.9522 67.1914 39.1502 67.2014 39.4612C67.2114 39.8022 67.2294 40.3722 67.3884 40.4712C67.6144 40.6102 67.8114 40.6782 67.9904 40.6782C68.3434 40.6782 68.5924 40.4032 68.8564 40.1132C69.4354 39.4752 69.9964 39.6522 70.7924 39.6142C72.0884 39.5532 73.3044 39.0312 74.6044 38.9632C75.4794 38.9172 76.3554 38.9802 77.2304 39.0012C78.0794 39.0212 78.9204 38.9142 79.7684 38.9142C80.3214 38.9142 80.4354 38.9892 80.4764 39.0702L80.5104 39.1382C80.6564 39.4302 80.8554 39.8292 81.1554 39.9462C81.7894 40.1922 82.3844 40.4532 82.9944 40.7592C83.5984 41.0622 84.2474 41.3582 84.9364 41.3582C85.3674 41.3582 85.6434 41.0822 85.7934 40.6992C86.3194 39.3512 86.2584 37.4802 85.9804 36.0862ZM78.6154 23.6063C78.6814 23.4803 78.7654 23.4382 78.8604 23.4372C79.0504 23.4352 79.2424 23.5353 79.4204 23.5893L79.4804 23.6072L79.4754 23.7383C79.4534 24.3823 79.4204 24.5222 78.6304 24.5952L78.5834 24.5993L78.5564 24.5613C78.4614 24.4243 78.4784 23.8693 78.6154 23.6063ZM77.3194 26.5372L77.2884 26.4052C77.5864 26.4872 77.7364 26.4652 77.7824 26.8012C77.8574 27.3512 77.8644 27.9102 77.8834 28.4652C77.8834 28.4742 77.8954 28.8132 77.8954 28.8132L77.8594 28.8382C77.4764 29.1022 77.1144 29.5512 76.7304 30.0262C76.1264 30.7742 75.5014 31.5472 74.7284 31.6532L74.5454 31.6782L74.6514 31.5272C74.8024 31.3122 74.9924 30.9732 75.1934 30.6142C75.5394 29.9962 75.9314 29.2962 76.2824 28.9462C77.6144 27.7912 77.5864 27.6722 77.3194 26.5372ZM73.6284 29.1402C73.5474 29.1402 73.4694 29.1122 73.3974 29.0582C73.1604 28.8802 73.3054 28.6862 73.4654 28.5272C73.6254 28.3692 73.7714 28.2062 73.8734 28.0042C73.9734 27.8052 74.0314 27.5822 74.1894 27.4172C74.3574 27.2412 74.6024 27.1542 74.8164 27.0492C75.2294 26.8452 75.7934 26.3542 76.3174 26.3682C76.4384 26.3712 76.5584 26.4022 76.6724 26.4692C76.6344 26.5072 76.5894 26.5322 76.5414 26.5612C76.2444 26.7382 75.9624 26.8962 75.7424 27.1702C75.2184 27.8242 74.6254 29.1382 73.6284 29.1402ZM70.0144 26.0942C70.0154 26.0912 70.1074 25.7962 70.1974 25.4732L70.2074 25.4382L70.2404 25.4223C70.6454 25.2233 71.0524 25.1162 71.4464 25.0132C72.0424 24.8562 72.6584 24.6942 73.3144 24.2052C73.7274 23.9582 75.4624 23.6182 76.3074 23.6182C76.6124 23.6182 76.7614 24.3842 76.7874 24.5373L76.8004 24.6102L76.7284 24.6292C76.4824 24.6932 76.1024 24.7142 75.7344 24.7342C74.5274 24.8012 73.3664 25.1512 72.2334 25.5562C71.6324 25.7712 70.8654 26.2352 70.2144 26.2352C70.1284 26.2352 70.0694 26.2142 70.0314 26.1702L70.0014 26.1362L70.0144 26.0942ZM71.4234 37.2252C71.4824 37.3342 71.7154 37.4182 71.9204 37.4182C72.1474 37.4182 72.4334 37.3612 72.7954 37.3792C73.0534 37.3922 73.6474 37.4742 73.6474 37.4742C73.5024 37.4542 73.2504 37.5612 73.1024 37.5862C72.0944 37.7512 71.0044 37.9502 69.9824 37.9502C68.9404 37.9502 68.5894 36.7702 68.4574 35.9302C68.2724 34.7542 68.0284 33.3082 68.2514 32.1402C68.4344 31.1822 68.8514 30.2732 68.8964 29.2892C68.9134 28.9272 68.9554 28.4412 69.1594 28.1212L69.1814 28.0862L69.2234 28.0842C69.5464 28.0682 69.8814 28.0662 70.1954 27.9822C70.4844 27.9042 70.7664 27.7802 71.0704 27.7802C71.2764 27.7802 71.6924 27.8732 71.7494 28.1112C71.7794 28.2372 71.6744 28.3482 71.4824 28.5502C71.1964 28.8522 70.9524 29.2152 70.6204 29.4682C70.0524 29.9012 69.2714 30.3492 69.1964 31.1422C69.1834 31.2822 69.6454 31.4452 69.7504 31.4932C70.3874 31.7862 70.8794 31.6362 71.4874 31.3512C71.6934 31.2552 71.9064 31.1552 72.1144 31.0912L72.1374 31.0852H72.1494C72.1894 31.0852 72.2234 31.1092 72.2374 31.1452C72.2994 31.3132 71.5604 32.2032 71.5514 32.2102C70.9504 32.7292 70.0944 32.8722 69.5614 33.4802C69.4294 33.6312 69.3394 33.7652 69.3344 33.9262C69.3194 34.4362 69.8124 34.5272 70.1744 34.7292C70.5534 34.9402 70.9424 35.0822 71.3724 34.9272C72.1394 34.6502 72.6624 34.0442 73.4904 33.8322C74.2424 33.6402 75.0264 33.6092 75.7784 33.4132C76.3524 33.2642 77.0054 33.0962 77.4184 32.6392C77.8164 32.1982 77.8164 32.1982 78.3284 31.3742L78.3524 31.3362H78.3974C78.4944 31.3362 78.5844 31.3552 78.6924 31.3782C78.7494 31.3912 78.7914 31.4302 78.8084 31.4892C78.8944 31.7822 78.2954 32.7252 78.2144 32.8062C77.1304 33.8982 75.3794 34.4672 73.9644 34.9942C73.2434 35.2622 72.5144 35.5232 71.9864 36.1132C71.8154 36.3062 71.2704 36.9402 71.4234 37.2252ZM82.2474 37.8832C81.8094 37.8412 81.7164 37.2972 81.4884 37.0102C81.4824 37.0022 81.4754 36.9942 81.4694 36.9862C81.2294 36.7022 80.8854 36.5892 80.5174 36.5892C79.8744 36.5892 79.2444 36.8002 78.6054 36.8612C77.8964 36.9292 77.1814 36.9132 76.4724 36.9842C75.9384 37.0372 75.3994 37.0962 74.8704 37.1862C74.5974 37.2332 74.2904 37.2902 74.0324 37.3252C74.3134 36.8342 75.1444 36.5002 75.6524 36.3152C76.2644 36.0932 76.8974 35.8632 77.2714 35.6142L77.3004 35.6012L77.3224 35.6002C77.3334 35.5992 77.3444 35.5992 77.3554 35.5992C77.3754 35.5992 77.4354 35.5992 77.4784 35.6512C77.5184 35.7002 77.4364 35.8062 77.3834 35.8832C77.5674 35.8472 77.8184 35.7312 77.8994 35.6982C78.1154 35.6112 78.3244 35.5042 78.5004 35.3512C78.8554 35.0422 79.0024 34.5732 79.2554 34.1902C79.4264 33.9312 79.6614 33.5312 79.9864 33.4482C79.9994 33.4452 80.0124 33.4432 80.0254 33.4432C80.3494 33.4432 80.4664 33.8722 80.5554 34.1132C80.7364 34.6012 80.9704 35.0682 81.1574 35.5552C81.2654 35.8362 81.3494 36.1362 81.5464 36.3702C81.8604 36.7432 82.4614 36.6562 82.8874 36.6132C82.9824 36.6032 83.3164 36.5252 83.3164 36.5252C83.3164 36.5252 83.3164 37.9842 82.2474 37.8832ZM83.4294 28.3802C83.4224 28.5682 83.4164 28.7502 83.4144 28.9202C83.4064 29.7122 83.3724 30.5162 83.3394 31.2932C83.3054 32.1042 83.2694 32.9422 83.2634 33.7672V33.8182L83.2164 33.8402C83.1954 33.8502 83.1754 33.8602 83.1554 33.8702C82.6644 34.1182 82.3014 33.3992 82.1174 33.0452C81.9034 32.6332 81.7764 32.1852 81.6534 31.7392C81.5634 31.4112 81.4774 31.1012 81.3624 30.8832L81.3424 30.8452L81.3624 30.8072C81.5484 30.4512 81.7834 30.1242 81.9694 29.7682C82.1664 29.3902 82.3424 29.0002 82.5484 28.6262C82.6864 28.3742 82.9904 27.8922 82.8954 27.5842C82.5544 27.0192 82.1304 26.7202 81.6674 26.7202C81.2944 26.7202 80.9544 26.9122 80.7004 27.1772C80.2334 27.6652 80.6594 28.4922 80.2944 29.0532L80.2344 29.1462L80.1634 29.0612C80.1274 29.0192 79.5664 28.4142 79.4454 28.3412L79.4174 28.3242L79.4094 28.2932C79.4054 28.2772 79.0024 26.6262 79.2154 26.4432C79.4624 26.2312 79.8614 26.2012 80.1714 26.1982C80.5244 26.1942 80.9344 26.3502 81.2634 26.1632C81.4974 26.0302 81.6764 25.7772 81.7414 25.5172C81.8634 25.0322 81.8014 24.7772 81.4864 24.4682L81.5654 24.3332C83.2114 24.8102 83.4774 27.0012 83.4294 28.3802Z" fill="#52505A"/>
<path fill-rule="evenodd" clip-rule="evenodd" d="M106.64 29.5414C107.199 29.4864 107.777 29.5364 108.271 29.7534L108.379 29.8014L108.295 29.8854C107.251 30.9284 106.999 32.4794 106.028 33.5714C105.219 34.4824 104.076 35.1854 103.021 35.7794C102.463 36.0934 101.839 36.2214 101.252 36.4644C100.741 36.6754 100.363 37.1334 99.8372 37.3014C99.4602 37.4214 99.0122 37.3924 98.6212 37.4094C97.5582 37.4554 96.4772 37.5364 95.4272 37.7094C94.9622 37.7864 94.6542 38.4564 94.6372 38.8724C94.6222 39.2494 94.9712 39.5104 95.2512 39.6984C95.5972 39.9304 95.8692 40.0114 96.2692 39.8624C96.7052 39.7004 97.1682 39.6654 97.6182 39.5604C98.2502 39.4134 98.8712 39.2184 99.5102 39.0994C100.158 38.9784 100.81 38.9884 101.465 38.9384C103.002 38.8214 104.396 37.9894 105.966 38.3274C106.419 38.4244 106.858 38.5754 107.312 38.6704C108.337 38.8844 109.409 38.7464 110.438 38.6314C111.55 38.5064 112.632 38.4904 113.749 38.4884C114.172 38.4874 115.044 38.5694 115.352 38.1934C115.749 37.6234 115.907 37.1794 115.829 36.8414C115.663 36.1194 114.692 35.8754 114.15 35.5144C113.789 35.2744 113.256 35.3724 112.852 35.4174C111.623 35.5544 110.443 35.9864 109.207 36.0684C108.57 36.1114 107.785 36.1124 107.192 35.8424C107.192 35.8424 107.146 35.8214 107.145 35.8204C106.924 35.7194 107.719 34.7824 107.798 34.6884C108.442 33.9264 109.055 32.9384 109.249 31.9474C109.396 31.1994 109.651 31.0174 110.209 30.6184C110.332 30.5304 110.476 30.4604 110.581 30.3494C110.693 30.2314 110.716 30.0794 110.812 29.9514L110.833 29.9234L110.867 29.9194C111.391 29.8564 111.903 29.7364 112.413 29.6044C112.892 29.4804 113.345 29.3624 113.908 29.3174C113.999 29.3104 114.076 29.2594 114.137 29.1674C114.276 28.9564 114.295 28.5784 114.225 28.3724C114.058 27.8774 113.559 27.5024 113.109 27.2854C112.715 27.0954 112.296 27.0964 111.873 27.1624C111.442 27.2294 110.999 27.2884 110.573 27.3784C110.291 27.4374 110.028 27.5764 109.742 27.6134C108.904 27.7234 108.07 27.5334 107.253 27.3694L107.201 27.3594L107.19 27.3074C107.091 26.8394 106.858 26.4134 106.612 26.0074C106.404 25.6644 106.08 25.2644 106.099 24.8414C106.146 23.8154 105.201 22.8494 104.154 23.0764C104.014 23.1064 103.355 23.3534 103.372 23.5594C103.423 24.1394 103.277 24.7404 103.431 25.3114C103.6 25.9394 104.203 26.2684 104.451 26.8494C104.538 27.0534 104.707 27.2584 104.885 27.3934C105.002 27.5014 104.917 27.7394 104.888 27.8094L104.878 27.8334L104.856 27.8474C104.623 27.9964 104.337 27.9704 104.076 28.0194C103.805 28.0704 103.556 28.1964 103.292 28.2754C102.415 28.5384 101.395 28.8334 100.473 28.8334C100.271 28.8334 100.143 28.7964 100.072 28.7184C100.037 28.6804 100.018 28.6334 100.014 28.5794C100.001 28.4114 98.7222 28.5674 98.5862 28.6114C97.9482 28.8174 97.3542 29.6234 97.5982 30.3194C97.7702 30.8094 98.7132 30.7854 99.1222 30.7854C99.8382 30.7854 100.56 30.6824 101.255 30.5144C101.745 30.3954 102.198 30.1564 102.709 30.1314C102.727 30.1634 102.716 30.1874 102.707 30.2234C102.641 30.4734 102.584 30.5754 102.352 30.7214C101.906 31.0034 101.526 31.3734 101.151 31.7434C100.785 32.1044 100.361 32.4634 100.137 32.9364C99.9192 33.3964 99.7732 34.6554 100.004 35.1834C100.253 35.7504 101.263 35.2264 101.549 34.9624C101.986 34.5594 102.328 34.0694 102.655 33.5764C102.94 33.1474 103.38 32.6934 103.565 32.2154C103.743 31.7554 103.709 31.2494 103.897 30.7794C103.976 30.5814 104.058 30.3774 104.119 30.1574L104.134 30.1044L104.188 30.0984C105.029 30.0104 105.801 29.6244 106.64 29.5414Z" fill="#52505A"/>
<path d="M141.61 38.6837C140.682 38.3547 139.634 38.8967 138.683 38.8747C138.188 38.8637 137.695 38.8187 137.2 38.8187C137.133 38.8187 137.068 38.8197 137.003 38.8217L136.934 38.8237C136.971 38.7007 137.002 38.4977 137.026 38.3037C137.479 38.2357 137.953 38.2217 138.454 38.2127C139.331 38.1967 140.554 38.2337 140.982 37.8777C141.107 37.7547 141.164 37.5357 141.185 37.3937C141.19 37.3587 141.195 37.3257 141.201 37.2947C141.296 36.8037 141.128 36.4917 140.689 36.3397C140.35 36.2217 139.915 36.2047 139.566 36.1917C139.467 36.1877 139.375 36.1837 139.306 36.1787L139.107 36.1977C138.33 36.2697 137.597 36.3367 136.863 36.4247L136.803 36.4317L136.779 36.3767C136.752 36.3127 136.671 36.2127 136.643 36.1797L136.567 36.0907L136.677 36.0507C137.456 35.7677 138.179 35.7437 138.995 35.8017C139.342 35.8267 139.684 35.7817 140.028 35.7997C140.14 35.8057 140.436 35.8367 140.445 35.6627C140.471 35.1957 140.704 34.6877 140.543 34.2277C140.426 33.8937 140.055 33.5777 140.136 33.1937C140.18 32.9867 140.496 32.8897 140.644 32.7767C140.732 32.7097 140.79 32.6717 140.792 32.5567C140.795 32.3807 140.703 32.1977 140.69 32.0197C140.684 31.9327 140.679 31.8857 140.658 31.8497C140.364 31.6017 139.885 31.5127 139.511 31.5117C139.086 31.5107 138.696 31.6567 138.314 31.8307C137.857 32.0387 137.412 32.2077 136.906 32.2307C136.423 32.2517 135.927 32.1867 135.457 32.3367C134.052 32.7847 132.642 32.5537 131.213 32.7407C130.912 32.7807 130.635 32.9007 130.348 32.9917C130.234 33.0277 129.999 33.0447 129.918 33.1337C129.823 33.5597 130.194 34.1137 130.829 34.4877C130.841 34.4967 130.861 34.5087 130.908 34.5087C130.961 34.5087 131.027 34.4947 131.104 34.4777C131.213 34.4537 131.337 34.4277 131.479 34.4277C131.504 34.4277 131.53 34.4287 131.556 34.4307L131.631 34.4357V34.7487L131.593 34.7727C131.439 34.8677 131.257 34.9607 131.065 35.0577C130.407 35.3917 129.663 35.7707 129.662 36.4397C129.679 36.5517 129.796 36.6077 130.019 36.7047C130.211 36.7887 130.418 36.9577 130.625 36.9887C130.837 37.0207 131.053 36.9127 131.247 36.8437C132.036 36.5607 132.91 36.5287 133.7 36.3107C133.891 36.2577 134.084 36.2767 134.276 36.3117L134.342 36.3237V36.3907C134.342 36.4087 134.349 36.4357 134.358 36.4677C134.386 36.5717 134.429 36.7287 134.34 36.9657L134.331 36.9897L134.309 37.0037C134.054 37.1727 133.77 37.3107 133.48 37.4077C132.631 37.6927 131.558 37.8657 130.666 37.7547C130.338 37.7137 130.023 37.4877 129.71 37.6697C129.482 37.8027 129.259 37.9487 129.038 38.0927C128.777 38.2627 128.508 38.4477 128.789 38.7327C128.966 38.9107 129.188 39.0447 129.385 39.1987C129.642 39.3997 129.822 39.4727 130.15 39.4397C130.476 39.4067 130.789 39.2977 131.11 39.2397C131.933 39.0887 132.785 38.9337 133.636 38.8947L133.745 38.8897L133.718 38.9947C133.553 39.6467 132.561 39.8557 132.005 39.9577C131.14 40.1167 130.263 40.0927 129.393 39.9937C129.278 39.9807 129.148 39.9587 129.01 39.9357C128.765 39.8947 128.461 39.8037 128.22 39.8997C127.994 39.9897 127.832 40.1957 127.645 40.3437C127.484 40.4717 127.261 40.6247 127.262 40.8557C127.263 41.0767 127.506 41.2757 127.652 41.4107C127.999 41.7317 128.259 41.9297 128.713 41.9587C128.75 41.9607 128.789 41.9627 128.829 41.9627C129.371 41.9647 129.898 41.8227 130.432 41.7467C131.052 41.6597 131.673 41.5687 132.277 41.3987C132.958 41.2067 133.628 40.9537 134.335 40.8727C135.058 40.7897 135.787 40.8637 136.511 40.9057C138.593 41.0247 140.728 41.2017 142.798 40.8607C142.976 40.8317 143.067 40.6067 143.071 40.4737C143.043 40.1687 142.939 39.8207 142.783 39.5567C142.534 39.1407 142.061 38.8437 141.61 38.6837ZM135.996 34.0887C135.561 34.1077 135.163 34.3357 134.728 34.3357H134.669L134.651 34.2797C134.635 34.2297 134.616 34.1787 134.598 34.1267C134.575 34.0627 134.552 33.9987 134.534 33.9387L134.515 33.8767L134.571 33.8447C134.84 33.6937 135.225 33.7117 135.522 33.6477C135.881 33.5717 136.23 33.5367 136.581 33.5207C136.912 33.5057 137.245 33.5077 137.59 33.5077H137.683L137.67 33.5997C137.64 33.8177 137.544 33.8987 137.389 33.9647C136.941 34.1547 136.468 34.0677 135.996 34.0887Z" fill="#52505A"/>
<path d="M146.599 32.0207C146.517 31.5207 146.405 30.9647 145.857 30.7917C145.501 30.6787 145.119 30.6897 144.758 30.5927C144.386 30.4927 144.037 30.3227 143.684 30.1727C143.235 29.9827 142.786 29.8747 142.316 29.7547C141.44 29.5307 140.458 29.1357 139.545 29.3837C139.18 29.4827 138.864 29.7007 138.515 29.8397C138.184 29.9707 137.823 30.0397 137.477 30.1197C136.708 30.2977 135.923 30.4517 135.13 30.4547C133.753 30.4607 132.296 30.4847 130.982 30.9427C130.855 30.9867 130.726 31.0407 130.611 31.1097C130.509 31.1707 130.411 31.2817 130.288 31.2967C129.827 31.3527 129.644 30.7097 129.196 30.6937C128.997 30.6867 128.796 30.6757 128.597 30.7047C128.378 30.7367 128.184 30.8427 127.984 30.9287C127.514 31.1317 127.007 31.2657 126.614 31.6117C126.297 31.8907 126.052 32.2467 125.673 32.4517C125.143 32.7387 124.706 33.1727 124.161 33.4337C123.923 33.5477 123.693 33.6137 123.43 33.6147C123.257 33.6147 122.933 33.5337 122.791 33.6777C122.252 34.2227 123.636 35.3767 124.128 35.3767C125.052 35.3767 125.417 34.5467 126.094 34.1177C126.484 33.8707 126.948 33.7667 127.363 33.5687C127.833 33.3447 128.278 33.0687 128.728 32.8067C129.22 32.5207 129.538 32.2427 129.624 31.6567C129.624 31.6557 129.634 31.5877 129.634 31.5877H129.704C129.908 31.5877 130.175 31.9887 130.299 32.1247C130.731 32.5957 131.059 32.7017 131.678 32.5157C132.007 32.4167 132.34 32.3307 132.676 32.2617C133.066 32.1817 133.461 32.1277 133.856 32.0877C135.195 31.9507 136.631 32.0587 137.925 31.6387C138.327 31.5077 138.715 31.3327 139.125 31.2257C140.5 30.8647 142.197 31.2547 143.46 31.8307L143.492 31.8457L143.503 31.8787C143.628 32.2537 142.323 32.6427 142.153 32.9377C142.082 33.0607 141.985 33.4527 142.073 33.5897C142.291 33.9277 143.309 33.8207 143.623 33.7897C144.26 33.7287 144.88 33.5567 145.512 33.4617C145.616 33.4457 145.916 33.4317 145.966 33.3197C146.139 32.9287 146.673 32.4717 146.599 32.0207Z" fill="#52505A"/>
<path d="M129.569 25.8543C129.899 26.2073 130.287 26.6223 130.757 26.7773L130.791 26.7883L130.805 26.8213L130.822 26.8633C130.88 26.9903 130.828 27.1973 130.762 27.3063C130.452 27.8163 130.057 28.2313 130.312 28.8653C130.513 29.3633 130.953 29.7603 131.323 30.1343C131.519 30.3323 132.061 30.2883 132.336 30.2803C132.349 30.2803 132.36 30.2793 132.372 30.2793C133.02 30.2673 133.703 30.2533 134.333 30.0963C135.495 29.8063 136.652 29.5963 137.843 29.4663C138.206 29.4273 138.925 29.5293 139.154 29.1653C139.346 28.8603 139.635 28.6073 139.915 28.3863C140.161 28.1923 140.489 28.0393 140.6 27.7233C140.74 27.3293 140.764 26.5353 140.211 26.4433C139.106 26.2603 137.929 26.3053 136.814 26.3303C136.021 26.3483 135.208 26.3343 134.423 26.4623C134.013 26.5293 133.61 26.6273 133.203 26.7103C133.081 26.7353 132.846 26.8283 132.725 26.7853C132.604 26.7423 132.445 26.5363 132.332 26.4493C132.69 26.3433 133.052 26.2463 133.414 26.1523C134.231 25.9403 134.992 25.8133 135.837 25.8023C136.92 25.7883 138.004 25.8033 139.087 25.7913C139.558 25.7863 140.192 25.7303 140.552 25.3943C140.735 25.2233 141.252 24.4493 140.95 24.2513C140.829 24.1723 140.186 24.1183 140.063 24.1123C139.53 24.0883 138.999 24.1813 138.472 24.2453C138.215 24.2763 137.945 24.3583 137.69 24.2793L137.689 24.2213C137.687 24.1523 137.682 24.0753 137.673 23.9953L137.665 23.9233L137.735 23.9073C138.179 23.8093 138.65 23.8103 139.103 23.7743C139.688 23.7273 140.272 23.6663 140.85 23.5683C141.292 23.4933 141.591 23.4713 141.498 22.9763C141.435 22.6423 141.341 22.1643 140.992 22.0133C140.438 21.7733 139.72 21.9313 139.155 22.0543C138.973 22.0933 137.158 22.5993 137.117 22.4783C137.11 22.4573 137.104 22.4343 137.099 22.4123C136.979 21.9593 136.687 21.5153 136.285 21.2673C135.975 21.0753 135.381 20.8133 135.08 21.1553C134.859 21.4073 134.948 21.6233 134.908 21.9283C134.885 22.1063 134.82 22.2843 134.766 22.4553C134.714 22.6213 134.661 22.7883 134.624 22.9183L134.613 22.9573L134.575 22.9713C133.994 23.1913 133.329 23.3883 132.72 23.1523C132.426 23.0383 132.093 23.0773 131.785 23.0803C131.423 23.0833 131.062 23.0513 130.699 23.0683C130.466 23.0793 130.159 23.0853 129.96 23.2233C129.698 23.4053 129.561 23.5743 129.543 23.7403C129.514 24.0103 129.765 24.2563 129.929 24.4383C130.123 24.6543 130.279 24.9453 130.35 25.0643C130.421 25.1833 130.469 25.2443 130.469 25.2443C130.257 25.2913 130.058 25.3563 129.865 25.4183C129.726 25.4673 129.384 25.6563 129.569 25.8543ZM133.727 28.1523L133.733 28.1483L133.74 28.1453C134.454 27.8643 135.76 27.7923 136.714 27.7393C136.865 27.7313 137.009 27.7233 137.142 27.7153L137.229 27.7103L137.228 27.7973C137.226 28.0183 137.018 28.0883 136.818 28.1553L136.743 28.1803C136.365 28.3123 135.819 28.3783 135.337 28.4363C134.917 28.4863 134.521 28.5343 134.362 28.6143C134.272 28.6583 134.156 28.6833 134.037 28.6833C133.876 28.6833 133.69 28.6363 133.652 28.5093C133.612 28.4103 133.623 28.2163 133.727 28.1523ZM131.01 24.9933C131.176 24.8393 131.479 24.7533 131.74 24.7083C131.74 24.7083 132.393 24.6323 132.901 24.6323C133.158 24.6323 133.533 24.6283 133.901 24.6473L133.987 24.6523C133.997 24.6523 133.967 24.7403 133.947 24.7873C133.891 24.9203 133.822 24.9813 133.822 24.9813L133.788 24.9893C133.473 25.0633 133.146 25.0973 132.759 25.0973C132.554 25.0973 132.355 25.0883 132.163 25.0793C131.979 25.0703 131.806 25.0623 131.635 25.0623C131.363 25.0623 131.146 25.0843 130.95 25.1303L130.795 25.1673L131.01 24.9933Z" fill="#52505A"/>
<path d="M186.885 25.0009C187.124 25.1289 187.38 25.2319 187.641 25.3059C188.391 25.5189 189.145 25.2719 189.852 25.0269C190.497 24.8039 191.862 24.6919 192.294 24.1229C192.383 24.0059 192.424 23.9009 192.436 23.7629C192.452 23.5829 192.008 23.3879 191.885 23.3069C191.15 22.8179 190.259 22.8249 189.422 22.9819C188.705 23.1169 187.733 23.2559 187.09 23.6109C187.05 23.6329 187.012 23.6579 186.976 23.6859C186.784 23.8329 186.648 24.0509 186.525 24.2539C186.304 24.6239 186.58 24.8369 186.885 25.0009Z" fill="#52505A"/>
<path d="M159.357 27.2413C159.874 27.5993 160.326 28.1453 160.934 28.3473C161.298 28.4683 161.716 28.5063 162.094 28.4413C162.186 28.4253 162.521 28.3873 162.521 28.2423C162.521 27.4493 162.415 27.0343 162.168 26.8583C161.507 26.3883 160.813 25.9573 160.197 25.4263C159.813 25.0953 159.293 24.1633 158.826 24.0073C158.696 23.9973 158.565 23.9893 158.435 23.9893C157.889 23.9893 157.764 24.1293 157.416 24.6153C157.354 24.7023 157.26 24.7913 157.244 24.9003C157.193 25.2293 157.509 25.7233 157.708 25.9653C158.154 26.5103 158.786 26.8463 159.357 27.2413Z" fill="#52505A"/>
<path d="M161.804 30.726C161.704 30.597 161.588 30.469 161.442 30.394C161.409 30.377 161.374 30.369 161.335 30.369C161.147 30.369 160.922 30.567 160.773 30.699L160.649 30.807L160.597 30.743C160.597 30.672 160.4 30.451 160.359 30.38C160.287 30.254 160.22 30.125 160.141 30.004C159.868 29.581 159.393 29.506 159.094 29.128C158.856 28.828 158.807 28.4 158.447 28.199C158.145 28.031 157.726 28 157.386 27.988C157.024 27.975 156.598 28.033 156.384 28.359C156.191 28.652 156.163 29.09 156.247 29.424C156.33 29.751 156.612 29.976 156.854 30.19C157.413 30.685 158.119 31.216 158.855 31.389C159.184 31.466 159.521 31.412 159.852 31.459L159.988 31.478L159.905 31.587C159.805 31.72 159.616 31.712 159.49 31.811C159.352 31.919 159.267 32.081 159.162 32.217C158.95 32.493 158.726 32.735 158.462 32.962C157.382 33.892 156.685 35.223 155.661 36.219C155.335 36.536 155.094 36.769 154.648 36.893C154.382 36.967 154.094 37.028 153.871 37.201C153.752 37.293 153.383 37.767 153.286 37.879C153.116 38.075 152.932 38.341 153.057 38.608C153.242 39.004 153.876 39.328 154.277 39.333H154.287C155.356 39.333 156.678 37.761 157.371 37.071C157.972 36.473 158.359 35.739 158.852 35.059C159.364 34.353 159.889 33.669 160.517 33.062C161.094 32.504 161.757 31.965 162.047 31.19L162.037 31.089C162.023 30.973 161.871 30.813 161.804 30.726Z" fill="#52505A"/>
<path d="M164.841 31.4922C165.068 31.4302 165.18 31.0972 165.288 30.9142C165.411 30.7062 165.76 30.1412 165.959 29.6232C166.102 29.7962 166.266 29.9502 166.471 30.0452C166.694 30.1482 166.936 30.2512 167.179 30.2892C167.204 30.2932 167.241 30.2982 167.285 30.3022C167.431 30.3152 167.648 30.3142 167.69 30.2152C167.694 30.2052 167.699 30.1842 167.703 30.1702C167.888 30.1162 168.165 30.0252 168.305 29.9692C168.472 29.9022 169.386 29.5912 169.595 29.5212L169.597 29.5142C169.767 29.4722 169.919 29.2632 170.042 29.1512C170.32 28.8972 170.781 28.4402 170.875 28.0622C170.964 27.7022 170.659 27.4322 170.463 27.1622C170.323 26.9692 170.006 26.8212 169.78 26.7892C169.768 26.7872 169.756 26.7872 169.743 26.7872C169.5 26.7872 169.018 27.0282 168.857 27.1282C168.695 27.2292 167.91 27.4702 167.652 27.5252C167.493 27.5592 167.213 27.6052 167.012 27.6372C166.795 27.5352 166.531 27.4982 166.302 27.4982C165.87 27.4982 165.484 27.9802 165.143 28.1872C165.129 28.1962 165.123 28.2052 165.12 28.2202C165.105 28.3102 165.153 28.4322 165.223 28.5602C165.102 28.7192 164.972 28.8872 164.796 28.9802C164.58 29.0932 164.325 29.1322 164.098 29.2162L163.862 29.3072L164.001 29.0962C164.46 28.4542 164.832 27.7012 165.097 26.9612C165.201 26.6702 165.344 26.4812 165.245 26.1602C165.223 26.0892 165.115 26.0382 165.028 26.0222C164.612 25.9462 164.59 25.7802 164.583 25.7152C164.557 25.4712 165.209 25.0192 165.345 24.8182C165.468 24.6372 165.552 24.4422 165.595 24.2422C165.693 24.3592 165.907 24.4352 166.021 24.4482C166.039 24.4502 166.057 24.4512 166.075 24.4512C166.303 24.4562 166.52 24.3372 166.747 24.3232C167.189 24.2952 167.617 24.2102 168.055 24.1532C168.376 24.1112 168.72 24.1282 169.032 24.0322C169.677 23.8342 170.38 24.0752 171.017 23.8312L171.046 23.8202C171.235 23.7472 171.317 23.6852 171.422 23.5122C171.518 23.3562 171.633 23.2312 171.666 23.0452C171.754 22.5452 170.869 22.3052 170.504 22.2732C170.485 22.2712 170.463 22.2712 170.44 22.2712C170.132 22.2712 169.829 22.3352 169.526 22.4022C169.459 22.2192 169.263 22.0822 169.084 22.0382C168.769 21.9622 168.437 22.0252 168.12 21.9662C167.849 21.9152 167.659 21.9962 167.4 22.0682C167.128 22.1442 167.128 22.6822 167.128 22.9122V23.1552C166.9 23.2382 166.682 23.3442 166.452 23.4222C166.161 23.5212 165.86 23.5822 165.564 23.6652C165.548 23.6142 165.543 23.5632 165.519 23.5122C165.403 23.2652 165.262 23.1012 164.915 22.8112C164.819 22.7312 164.678 22.6902 164.495 22.6902C164.232 22.6902 163.98 22.7762 163.973 22.7782C163.372 22.9502 163.279 24.2992 162.878 24.7602C162.595 25.0852 162.22 25.4152 162.168 25.8692C162.134 26.1692 162.343 26.3592 162.504 26.5792C162.808 26.9952 162.759 27.5582 163.063 27.9672C163.152 28.0872 163.436 28.1652 163.436 28.3252C163.436 28.4092 163.396 28.5022 163.341 28.6312L163.305 28.7162C163.218 28.9242 163.064 29.1012 162.954 29.2972C162.838 29.5052 162.717 29.7092 162.551 29.8822C162.311 30.1332 162.037 30.3792 161.976 30.7372C161.915 31.0952 162.73 31.5112 163 31.5232C163.247 31.5342 163.501 31.4842 163.75 31.4812C163.939 31.4792 164.129 31.4792 164.319 31.4832C164.49 31.4872 164.675 31.5382 164.841 31.4922ZM168.562 27.9942C168.564 27.9942 168.656 27.9782 168.656 27.9782C168.656 28.1392 168.69 28.3302 168.619 28.4772C168.606 28.5032 168.586 28.5232 168.567 28.5452C168.426 28.5922 168.289 28.6652 168.152 28.7122C167.978 28.7732 167.796 28.8062 167.613 28.8302C167.582 28.5922 167.546 28.3522 167.464 28.1422C167.763 28.2352 168.275 28.0412 168.562 27.9942Z" fill="#52505A"/>
<path d="M166.939 25.6988C167.397 25.6988 167.867 25.6478 168.322 25.5969C168.773 25.5469 169.152 25.352 169.487 25.0522C169.614 24.9383 169.738 24.8024 169.737 24.6215C169.737 24.5205 169.657 24.3057 169.522 24.3057C169.512 24.3057 169.503 24.3067 169.494 24.3087C169.058 24.4106 168.704 24.5375 168.244 24.5455C167.773 24.5535 167.3 24.5025 166.833 24.5895C166.681 24.6175 166.539 24.7354 166.428 24.8373C166.356 24.9043 166.133 25.0632 166.123 25.1571C166.097 25.388 166.288 25.5519 166.474 25.6278C166.587 25.6748 166.748 25.6988 166.939 25.6988Z" fill="#52505A"/>
<path d="M165.795 26.8458C165.819 27.0167 166.005 27.1656 166.164 27.2056C166.2 27.2146 166.235 27.2186 166.271 27.2196C166.435 27.2216 166.599 27.1446 166.758 27.1147C167.509 26.9747 168.153 27.0337 168.894 26.7239C169.302 26.554 169.894 26.3151 169.931 25.8015C169.938 25.7025 169.921 25.6456 169.905 25.6276C169.904 25.6266 169.879 25.6006 169.763 25.6006C169.58 25.6006 169.334 25.6625 169.267 25.6875C168.764 25.8724 168.228 26.0023 167.69 26.0123C167.379 26.0183 167.068 25.9704 166.758 26.0163C166.522 26.0513 166.185 26.1512 166.029 26.3471C165.931 26.4711 165.772 26.6769 165.795 26.8458Z" fill="#52505A"/>
<path d="M175.519 28.1428C175.452 28.1018 175.378 28.0808 175.306 28.0608C175.242 28.0428 175.182 28.0258 175.132 27.9958C175.057 27.9508 175.041 27.8928 175.03 27.8498C175.021 27.8178 175.016 27.7958 174.989 27.7708C174.989 27.7708 174.983 27.7678 174.966 27.7678C174.827 27.7678 174.504 27.9238 174.354 28.0288C174.225 28.1188 174.019 28.1728 173.853 28.2168C173.772 28.2378 173.694 28.2578 173.662 28.2748C173.193 28.5088 173.613 27.6498 173.677 27.5218C173.836 27.2048 174.03 26.9068 174.205 26.5988C174.57 25.9558 174.559 25.1258 174.978 24.5268C175.098 24.3558 175.015 24.1488 174.955 24.0408C174.728 23.6328 174.337 23.7108 173.939 23.7588C173.038 23.8678 173.532 25.2298 172.785 25.4418C172.607 25.4918 172.46 25.4188 172.296 25.3738C172.372 25.2248 172.442 25.0768 172.503 24.9208C172.742 24.3148 173.236 24.0078 173.641 23.5298C173.899 23.2258 174.234 22.7808 174.31 22.3798C174.387 21.9738 174.143 21.9058 173.803 21.7598C173.474 21.6188 173.319 21.6118 173.032 21.8518C172.915 21.9488 172.783 22.0248 172.577 22.1398C172.299 22.2948 172.138 22.9628 171.96 23.2308C171.719 23.5928 171.433 23.9228 171.164 24.2638C170.752 24.7868 170.251 25.5128 170.906 26.0718C171.022 26.1708 171.198 26.1438 171.338 26.1858C171.467 26.2248 171.591 26.2808 171.71 26.3428L171.794 26.3868L171.737 26.4628C171.722 26.4838 171.694 26.5148 171.66 26.5528C171.483 26.7548 171.337 26.9898 171.205 27.2238C171.008 27.5718 170.93 28.0468 170.795 28.4288C170.666 28.7928 170.455 29.2628 170.553 29.6568C170.587 29.7928 170.711 29.9848 170.85 30.0338C171.223 30.1658 171.782 30.1408 172.185 30.2228C172.724 30.3328 173.291 30.4508 173.844 30.3708C173.983 30.3508 174.124 30.3018 174.272 30.2038C174.691 29.9268 174.98 29.4698 175.276 29.0748C175.439 28.8578 175.542 28.6448 175.594 28.4228C175.641 28.2168 175.625 28.2068 175.519 28.1428Z" fill="#52505A"/>
<path d="M173.366 34.1895C172.758 33.9065 172.199 33.7295 171.521 33.8235C171.151 33.8745 170.785 34.0575 170.425 34.1595C169.999 34.2805 169.568 34.3855 169.143 34.5125C168.661 34.6565 167.535 34.8895 167.462 34.9085C167.417 34.9205 167.192 35.0365 167.153 34.9815C167.124 34.9415 167.094 34.8885 167.093 34.8415C167.092 34.8125 167.096 34.7755 167.1 34.7355C167.107 34.6715 167.11 34.6175 167.104 34.5685C167.145 34.5535 167.185 34.5385 167.226 34.5225C167.86 34.2735 168.612 34.0455 169.281 33.9205C169.529 33.8735 169.744 33.8505 169.994 33.8245C170.234 33.8125 170.447 33.8295 170.659 33.7665C170.803 33.7235 170.872 33.6305 170.992 33.5525C171.097 33.4845 171.215 33.4405 171.308 33.3545C171.618 33.0685 171.857 32.7975 172.214 32.5585C172.44 32.4085 172.964 31.9425 172.996 31.8055C173.113 31.3005 172.564 31.1545 172.258 30.9665C171.481 30.4885 170.466 30.2855 169.57 30.1905C169.555 30.1885 169.538 30.1885 169.52 30.1885C168.696 30.1885 167.945 30.5805 167.196 30.8725C166.467 31.1565 165.715 31.3785 164.984 31.6575C164.648 31.7855 164.029 32.0355 163.84 32.3675C163.734 32.5535 163.827 32.7685 163.93 32.9345C164.009 33.0615 164.3 33.4225 164.47 33.4475C164.889 33.5085 165.488 33.4595 165.909 33.1945C166.507 32.8175 166.877 32.4115 167.601 32.2375C168.24 32.0845 168.904 32.0745 169.547 31.9385C169.682 31.9105 170.021 31.7805 170.109 31.9435C170.15 32.0185 170.122 32.1975 170.076 32.3725C169.454 32.4775 168.829 32.5945 168.209 32.7095C167.334 32.8715 166.555 33.2985 165.779 33.6345C165.487 33.7605 165.179 33.8645 164.876 33.9595C164.841 33.9705 164.654 34.0005 164.589 34.0285C164.581 34.0315 164.577 34.0335 164.575 34.0345C164.484 34.0895 164.407 34.1445 164.407 34.3935C164.407 34.4735 164.47 34.5775 164.531 34.6785C164.807 35.1345 164.621 35.6885 164.88 36.1365C164.989 36.3245 165.355 36.4215 165.48 36.4415C166.501 36.6105 167.794 36.2335 168.809 36.0995C169.577 35.9985 170.343 35.7415 171.119 35.7415C171.407 35.7415 171.694 35.7225 171.577 36.1165C171.363 36.8275 170.936 37.6075 170.604 38.2725C170.077 39.3265 167.469 39.3605 166.516 39.1105C166.085 38.9965 165.684 38.7955 165.256 38.6745C165.053 38.6175 164.365 38.4295 164.195 38.6585C164.14 38.7335 164.197 38.9265 164.209 39.0105C164.261 39.3725 164.659 39.6775 164.912 39.9165C166.094 41.0325 167.869 41.3405 169.429 41.4635C170.024 41.5105 170.499 41.5565 170.911 41.4635C171.355 41.3635 171.725 41.1005 172.094 40.5025C172.641 39.6125 172.916 38.6865 173.361 37.7515C173.617 37.2135 174.274 36.6945 174.357 36.1085C174.413 35.7115 174.422 35.2315 174.244 34.8615C174.076 34.5175 173.695 34.3425 173.366 34.1895Z" fill="#52505A"/>
<path d="M204.365 30.7163C204.197 30.7163 204.073 30.8293 203.942 30.9483C203.889 30.9963 203.834 31.0473 203.776 31.0883C203.555 31.2463 203.442 31.5283 203.25 31.7193C203.015 31.9533 202.722 32.1203 202.483 32.3503C202.241 32.5833 202.048 32.9933 201.719 33.1143C201.382 33.2383 200.975 32.9973 200.699 32.8243C200.415 32.6463 200.207 32.3873 200.031 32.1053C199.555 31.3413 199.06 30.5873 199.365 29.6423C199.542 29.0933 199.945 28.5933 199.889 27.9883C199.864 27.7133 199.334 27.5773 199.126 27.4553C198.831 27.2813 198.502 27.0103 198.142 27.0103C197.94 27.0103 197.611 27.0913 197.377 27.1973C197.221 27.2683 197.06 27.3363 196.895 27.4013C196.966 27.2563 197.04 27.1113 197.1 26.9613C197.159 26.8143 197.355 26.5283 197.37 26.3393C197.744 26.3333 198.118 26.3213 198.494 26.2943C199.241 26.2393 200.027 26.1663 200.764 26.0293C201.259 25.9373 201.437 25.7213 201.273 25.2143C201.13 24.7713 200.824 24.3283 200.373 24.1503C199.545 23.8243 198.607 23.8773 197.683 24.0243C198.041 23.7963 198.345 23.4913 198.533 23.0483C199.075 21.7693 197.251 21.4143 196.414 21.6063C196.057 21.6883 196.138 22.2903 196.027 22.5513C195.853 22.9623 195.436 23.2213 195.121 23.5153C194.828 23.7893 194.586 24.1123 194.281 24.3743C194.056 24.5673 193.762 24.6943 193.477 24.8143C192.717 24.9793 191.96 25.1613 191.207 25.3563C190.303 25.5913 189.405 25.9533 188.459 25.9573C187.76 25.9603 184.999 25.2363 185.537 26.8403C185.682 27.2733 186.353 27.5663 186.752 27.7153C186.853 27.7533 186.953 27.7793 187.052 27.7953C187.458 27.8623 187.852 27.7683 188.269 27.6803C188.426 27.6473 188.584 27.6203 188.742 27.5903C188.764 27.7243 188.792 27.9093 188.814 28.1083C188.555 28.1613 188.296 28.2133 188.04 28.2823C187.587 28.4043 187.135 28.5833 186.661 28.5973C186.385 28.6053 186.146 28.4643 185.873 28.4643C185.853 28.4643 185.832 28.4653 185.812 28.4663C185.624 28.4793 185.317 28.7223 185.21 28.8183C184.828 29.1623 184.484 30.0693 184.856 30.5473C184.965 30.6873 185.144 30.7383 185.34 30.7453C185.619 30.7553 185.935 30.6763 186.136 30.6373C186.912 30.4853 187.643 30.1343 188.426 30.0253C188.542 30.0093 188.657 29.9843 188.772 29.9633C188.754 30.1693 188.735 30.3693 188.717 30.5363C188.106 30.7463 187.48 30.9033 186.849 31.0423C186.199 31.1863 185.574 31.4383 184.926 31.5713C184.561 31.6463 184.18 31.6663 183.809 31.6603C183.486 31.6553 183.201 31.5643 182.92 31.7683C182.687 31.9373 182.473 32.1913 182.381 32.4653C182.261 32.8243 182.581 33.7763 183.004 33.8723C183.017 33.8753 183.043 33.8783 183.09 33.8783C184.161 33.8783 185.139 33.1803 186.116 32.8783C186.892 32.6383 187.691 32.5013 188.491 32.3713C188.44 32.7413 188.387 33.0203 188.327 33.1243C188.193 33.3593 188.015 33.6643 187.718 33.7153C187.436 33.7633 187.294 33.5033 187.062 33.3973C187.024 33.3793 186.976 33.3703 186.92 33.3703C186.545 33.3703 185.282 33.7493 185.503 34.3103C185.569 34.4783 185.701 34.6123 185.784 34.7713C186.183 35.5413 186.927 35.6823 187.693 35.9383C187.939 36.0203 188.376 36.3673 188.713 36.4013C188.417 36.4523 188.12 36.4913 187.818 36.5103C187.005 36.5613 185.802 36.0253 185.08 36.5053C184.427 36.9393 184.843 38.2313 185.603 38.3213C185.726 38.3353 185.848 38.3423 185.97 38.3423C187.406 38.3413 188.86 37.9323 190.299 37.8463C190.358 37.8423 190.418 37.8403 190.477 37.8373C190.468 37.8513 190.457 37.8593 190.449 37.8743C190.021 38.5843 189.764 39.1303 188.935 39.4353C188.416 39.6273 187.259 39.7033 187.089 40.3663C186.927 40.9963 187.704 41.4173 188.259 41.5783C188.34 41.6023 188.417 41.6203 188.485 41.6323C189.653 41.8433 190.765 41.1673 191.89 40.9613C192.914 40.7733 193.951 40.6963 194.98 40.5183C195.233 40.4743 195.718 40.3363 196.007 40.2523C196.27 40.7753 196.977 41.3273 197.497 41.4473C197.539 41.4573 197.586 41.4623 197.634 41.4623C198.173 41.4623 198.893 41.0753 199.179 40.6253C199.339 40.3743 199.595 39.7463 199.378 39.4753C198.863 38.8313 198.244 38.0683 197.876 37.3323C197.769 37.1193 197.612 36.9743 197.428 36.8723C198.247 36.8903 199.068 36.7543 199.48 35.9323C199.566 35.7593 199.69 35.5153 199.732 35.2813C200.009 35.4383 200.328 35.5213 200.577 35.7323C200.817 35.9353 201.01 36.1843 201.345 36.2123C201.419 36.2183 201.494 36.2193 201.569 36.2153C202.052 36.1883 202.54 35.9593 202.863 35.5983C203.153 35.2743 203.353 34.8803 203.629 34.5433C204.002 34.0893 204.266 33.6053 204.516 33.0753C204.816 32.4373 205.489 31.2913 205.329 31.1013C205.113 30.9093 204.655 30.7163 204.365 30.7163ZM196.737 29.2383C196.95 29.2283 197.265 29.1363 197.285 29.4003C197.316 29.8083 197.362 30.2153 197.436 30.6163C197.269 30.5933 197.074 30.6073 196.919 30.5373C196.649 30.4153 196.408 30.2253 196.185 30.0343C196.066 29.9323 195.906 29.8813 195.724 29.8633C195.758 29.7553 195.786 29.6453 195.826 29.5383C195.837 29.5093 195.852 29.4823 195.863 29.4543C196.143 29.3453 196.438 29.2513 196.737 29.2383ZM194.784 38.3173C193.998 38.4293 193.107 39.2113 192.295 38.8933C191.965 38.7643 192.151 38.5923 192.336 38.3373C192.513 38.0943 192.729 37.8583 192.867 37.5873C193.038 37.5383 193.207 37.4823 193.372 37.4073C194.051 37.0973 194.687 36.9263 195.347 36.8543C195.587 37.2693 195.674 37.6953 195.708 38.1283C195.506 38.1713 194.946 38.2943 194.784 38.3173ZM198.438 34.6673C197.833 34.5903 197.361 34.5683 196.741 34.6143C195.969 34.6723 195.22 34.9023 194.449 34.9723C192.558 35.1443 190.785 35.9983 188.924 36.3593C188.948 36.3473 188.975 36.3443 188.996 36.3253C189.316 36.0323 189.692 35.6823 189.906 35.3053C190.085 34.9913 190.009 34.6693 190.053 34.3263C190.101 33.9523 190.171 33.5813 190.247 33.2113C190.337 32.7693 190.418 32.3413 190.486 31.9143C190.807 31.8073 191.127 31.6963 191.456 31.6063C191.95 31.4713 192.559 31.2793 192.106 30.6803C192.077 30.6423 192.049 30.6053 192.025 30.5683C191.748 30.1533 191.138 30.0843 190.702 30.0843C190.677 30.0843 190.655 30.0813 190.631 30.0813C190.63 30.0023 190.636 29.9273 190.633 29.8473C190.628 29.7363 190.64 29.6253 190.647 29.5143C190.689 29.5043 190.731 29.4933 190.773 29.4833C191.049 29.4213 191.428 29.4653 191.636 29.2323C191.799 29.0503 191.791 28.7613 191.791 28.5333C191.791 28.2813 191.506 27.6793 191.233 27.6363C191.22 27.6343 191.205 27.6333 191.189 27.6333C191.116 27.6333 191.017 27.6523 190.91 27.6793C190.911 27.6633 190.915 27.6463 190.916 27.6303C190.926 27.4793 190.752 27.3603 190.653 27.2643C190.636 27.2473 190.623 27.2333 190.606 27.2163C191.758 26.9613 192.903 26.6713 194.07 26.4913C194.541 26.4183 195.011 26.3853 195.48 26.3673C195.429 26.9233 194.979 27.4583 194.657 27.8853C194.456 27.8883 194.254 27.8873 194.054 27.8913C193.583 27.9013 192.76 27.9133 192.697 28.5403C192.673 28.7793 193.009 28.9553 193.159 29.0973C193.318 29.2473 193.457 29.4243 193.631 29.5573C193.629 29.5643 193.625 29.5703 193.622 29.5773C193.481 29.9923 193.419 30.2403 193.365 30.4583L193.358 30.4873C193.161 31.2763 192.273 31.7713 191.886 32.4553C191.799 32.6093 191.593 32.8513 191.535 33.0653C191.418 33.0713 191.295 33.0733 191.192 33.0913C190.877 33.1433 190.653 33.2823 190.51 33.8073C190.432 34.0913 190.429 34.1293 190.564 34.5343C190.668 34.8513 190.767 35.0153 190.942 35.0843C191.381 35.2583 192.053 35.0233 192.484 34.9153C193.033 34.7773 193.574 34.6053 194.134 34.5183C194.954 34.3913 195.866 34.4713 196.611 34.0473C196.641 34.0303 196.672 34.0133 196.704 33.9963C196.874 33.9053 197.05 33.8103 197.25 33.5443C197.403 33.3403 197.528 33.0263 197.369 32.7813C197.248 32.5953 197.015 32.7163 196.804 32.7223C196.562 32.7293 195.739 32.7333 195.739 32.7333C195.667 32.7333 195.592 32.7313 195.514 32.7293C195.205 32.7213 194.897 32.7343 194.591 32.7553C194.597 32.5523 194.739 32.3413 194.842 32.1643C194.93 32.0133 195.013 31.8583 195.092 31.7023C195.271 31.7473 195.548 31.8183 195.678 31.8553C195.761 31.8793 195.839 31.9263 195.922 31.9763C196.11 32.0903 196.287 32.1273 196.464 32.1283C196.733 32.1293 197.002 32.0453 197.307 32.0183C197.47 32.0033 197.681 31.9473 197.84 31.8993C198.126 32.4843 198.542 33.0133 198.845 33.5853C198.989 33.8563 199.112 34.1383 199.204 34.4313C199.226 34.5013 199.245 34.5723 199.264 34.6423C198.994 34.6183 198.673 34.6973 198.438 34.6673Z" fill="#52505A"/>
<path d="M216.669 26.467C216.983 26.444 217.308 26.356 217.51 26.292C218.323 26.033 219.187 25.805 219.953 25.422C220.664 25.067 220.907 24.294 220.767 23.547C220.682 23.093 220.358 23.088 220.017 22.855C219.531 22.522 219.258 22.558 218.724 22.804C218.371 22.967 218.093 23.162 217.824 23.35C217.552 23.54 216.801 24.124 216.336 24.507C215.889 24.875 215.839 25.206 215.785 25.806C215.733 26.387 216.188 26.503 216.669 26.467Z" fill="#52505A"/>
<path d="M224.684 34.5386C224.616 34.0996 224.777 33.6516 224.835 33.2026C224.965 33.2816 225.093 33.3606 225.195 33.4386C225.48 33.6586 225.86 34.0116 226.252 33.9936C226.285 33.9916 226.317 33.9876 226.35 33.9806C227.173 33.8046 227.479 32.8636 227.098 32.2076C226.774 31.6506 226.174 31.2306 225.628 30.9116C225.49 30.8306 224.978 30.3806 224.752 30.1796C224.751 30.1586 224.75 30.1366 224.748 30.1146C225.069 30.0466 225.393 29.9886 225.72 29.9726C226.091 29.9536 226.492 30.0216 226.842 29.8626C227.23 29.6856 227.514 29.1866 227.787 28.8676L227.808 28.8436C228.017 28.6006 227.915 28.4116 227.915 28.4116C227.773 28.2166 227.651 28.0476 227.376 27.8426C226.651 27.2996 225.472 27.5936 224.49 27.9466C224.476 27.5326 224.49 27.1226 224.522 26.7126C225.073 26.5006 225.629 26.3006 226.178 26.0816C226.708 25.8696 226.802 25.5316 226.81 25.0006C226.812 24.8186 226.786 24.7196 226.643 24.6306C226.082 24.2796 225.389 24.4706 224.79 24.5336C224.795 24.4956 224.801 24.4576 224.806 24.4196C224.874 23.9156 224.87 23.3506 224.302 23.1526C224.267 23.1406 224.234 23.1286 224.206 23.1176C223.867 22.9816 222.87 22.8416 222.6 23.1336C222.558 23.1786 222.522 23.2126 222.492 23.2426C222.371 23.3576 222.35 23.3786 222.363 23.7946C222.409 25.1976 222.479 26.5856 222.307 27.9896C222.288 28.1516 222.284 28.3026 222.28 28.4486C222.277 28.5626 222.274 28.6726 222.263 28.7776C221.407 29.0716 220.515 29.3186 219.649 29.3696C219.214 29.3946 218.921 29.2656 218.62 29.6176C218.187 30.1236 219.055 30.8356 219.44 31.0436C219.62 31.1406 219.808 31.1926 219.999 31.2126C220.492 31.2646 221.009 31.1036 221.496 30.9606C221.4 31.1226 221.309 31.3696 221.255 31.4516C221.088 31.7096 220.879 31.9356 220.654 32.1426C220.209 32.5536 219.696 32.8806 219.22 33.2536C218.865 33.5316 218.13 33.8726 217.771 34.3126C217.79 34.0146 217.812 33.7166 217.839 33.4196C217.92 32.5176 217.737 31.6166 217.81 30.7146C217.845 30.2866 217.893 29.9746 217.928 29.7466C217.933 29.7146 217.936 29.6926 217.94 29.6646C218.014 29.5786 218.071 29.5116 218.1 29.4756C218.421 29.0836 218.972 28.9726 219.306 28.5936C219.744 28.0966 219.429 27.2006 219.221 26.6826C219.161 26.5326 219.008 26.4606 218.751 26.4606C218.125 26.4606 217.439 26.7516 216.975 27.1606C216.638 27.4576 216.468 27.9136 216.11 28.1826C215.054 28.9746 214.366 30.0936 213.406 30.9756C212.716 31.6086 211.807 32.0716 210.954 32.4426C210.659 32.5706 209.914 33.1286 210.134 33.5246C210.445 34.0836 211.775 34.0806 212.309 34.0966C212.375 34.0986 212.434 34.1006 212.489 34.1006C212.659 34.1006 212.779 34.0836 212.923 33.9926C213.909 33.3726 214.804 32.5806 215.768 31.9216C215.787 31.9086 215.811 31.8896 215.833 31.8726C216.165 33.4516 215.384 34.8336 215.424 36.3676C215.438 36.9066 215.262 37.4476 215.354 37.9856C215.425 38.4026 216.125 39.1536 216.477 39.3856C216.648 39.4986 216.796 39.5496 216.925 39.5516C217.828 39.5626 217.79 37.1586 217.753 36.5516C217.732 36.2076 217.728 35.8636 217.73 35.5196C217.895 35.6686 218.268 35.9366 218.499 36.0016C218.541 36.0136 218.578 36.0186 218.607 36.0146C218.948 35.9696 219.202 35.5596 219.492 35.3976C219.895 35.1736 220.286 34.9876 220.642 34.6716C220.878 34.4626 221.086 34.2976 221.279 34.0546C221.44 33.8526 221.673 33.7326 221.832 33.5406C221.868 33.4966 222.082 33.1346 222.236 32.8746C222.199 33.3046 222.147 33.7336 222.06 34.1516C221.973 34.5706 221.706 34.9826 221.66 35.3986C221.607 35.8766 221.909 36.1816 222.227 36.4796C222.51 36.7456 222.776 36.9646 223.047 37.0536C223.375 37.1616 223.712 37.0776 224.101 36.6516C224.599 36.1116 224.795 35.2576 224.684 34.5386Z" fill="#52505A"/>
<path d="M229.266 28.4742C229.367 28.5162 229.421 28.5402 229.453 28.5542C229.471 28.5622 229.48 28.5662 229.483 28.5672C229.495 28.5682 229.515 28.5692 229.566 28.5782C229.593 28.5832 229.621 28.5852 229.65 28.5852C229.881 28.5852 230.154 28.4452 230.362 28.3822C230.786 28.2512 231.209 28.1162 231.635 27.9912C231.992 27.8872 232.43 27.7022 232.807 27.7182C232.937 27.7242 233.092 27.8182 233.218 27.7992C233.521 27.7542 233.761 27.5062 233.926 27.2662C233.959 27.2182 234.477 26.5732 234.219 26.4732C233.633 26.2472 233.135 25.9482 232.523 25.8802C232.184 25.8432 231.814 26.0582 231.475 26.1322C230.706 26.2992 229.915 26.3112 229.133 26.3592C228.547 26.3952 227.751 26.5082 227.877 27.2932C227.978 27.9222 228.749 28.2582 229.266 28.4742Z" fill="#52505A"/>
<path d="M236.378 28.6961C236.011 28.4791 235.561 28.3901 235.142 28.3461C234.706 28.3001 234.243 28.2291 233.808 28.2121C233.352 28.1941 232.861 28.2931 232.416 28.3801C231.374 28.5841 230.381 29.0091 229.332 29.1761C228.848 29.2531 228.185 28.9961 227.797 29.3841C227.406 29.7741 227.315 30.5851 227.283 31.0911C227.254 31.5441 227.409 31.7501 227.89 31.7501C228.49 31.7501 229.09 31.6031 229.691 31.5161C229.777 31.7231 229.798 31.9311 229.819 32.2111C229.83 32.3541 229.842 32.5161 229.866 32.7071C230.045 34.1361 230.13 35.4821 230.014 36.9251C229.976 37.4041 229.912 37.5091 229.562 37.6741C228.695 38.0821 227.744 38.0231 226.815 37.9541C226.096 37.9001 225.386 37.9351 224.677 38.0731C224.122 38.1811 223.823 38.5231 224.362 38.9381C224.623 39.1391 224.977 39.1631 225.244 39.3811C225.682 39.7381 226.006 39.9581 226.552 40.1271C227.113 40.3011 229.124 40.8611 229.574 40.9341C229.995 41.0031 230.456 41.0941 231.263 41.1181C231.658 41.1301 232.174 40.4661 232.248 40.0621C232.285 39.8611 232.242 39.3531 232.192 38.4721C232.118 37.1701 232.142 35.8511 232.215 34.5501C232.27 33.5611 232.279 32.4851 232.599 31.5411C232.667 31.3401 232.728 31.1511 232.726 31.0041C232.966 30.9611 233.209 30.9261 233.458 30.9111C234.263 30.8641 235.099 30.9081 235.887 30.7591C236.148 30.7101 236.535 30.6341 236.876 30.5401C237.22 30.4441 237.292 30.4041 237.282 30.1961C237.252 29.6171 236.875 28.9901 236.378 28.6961Z" fill="#52505A"/>
<path d="M265.231 38.4952C264.352 37.9012 263.268 37.8002 262.344 37.3072C260.956 36.5652 259.557 36.0272 258.29 35.0642C257.257 34.2792 256.609 33.0982 255.851 32.0702C255.37 31.4172 254.91 30.7492 254.453 30.0792C255.669 30.0302 256.872 30.0182 258.1 29.8232C258.656 29.7342 259.79 29.8202 260.224 29.4232C260.702 28.9862 260.663 28.0682 260.594 27.4882C260.515 26.8182 259.077 26.6892 258.591 26.6512C257.65 26.5772 256.699 26.7502 255.798 27.0122C255.156 27.1992 254.529 27.4372 253.903 27.6812C254.1 26.3262 254.264 24.9682 254.469 23.6152C254.534 23.1892 254.669 22.7722 254.512 22.3502C254.387 22.0112 254.086 21.6592 253.69 21.6592C253.172 21.6592 252.185 22.0142 252.36 22.6742C252.387 22.7762 252.418 22.8932 252.431 23.0242C252.548 24.1902 252.547 25.1392 252.232 26.2842C252.041 26.9792 251.845 27.7452 251.649 28.4942C251.257 28.6122 250.86 28.7152 250.454 28.7872C249.194 29.0092 247.93 28.8992 246.662 28.8772C246.009 28.8662 244.649 28.8622 244.691 29.8292C244.716 30.4132 244.915 31.1802 245.393 31.4182C245.598 31.5212 245.814 31.5782 246.037 31.6012C247.159 31.7182 248.453 30.9642 249.465 30.7272C250.017 30.5972 250.575 30.4912 251.135 30.4012C250.804 31.6442 250.495 32.8862 249.789 33.9862C248.913 35.3502 247.729 36.5232 246.399 37.4452C245.909 37.7842 243.948 38.8422 244.027 39.6842C244.084 40.2902 243.7 41.7032 244.692 41.7032C244.836 41.7032 245.002 41.6812 245.173 41.6402C247.843 41.0002 249.759 39.0592 251.084 36.7432C251.554 35.9222 252.129 35.0692 252.441 34.1732C252.633 33.6222 253.014 32.3492 253.233 31.5582C253.924 32.2262 254.277 33.1212 254.719 33.9632C255.027 34.5482 255.446 34.6412 255.752 35.2272C256.019 35.7402 256.251 36.4282 256.461 36.9692C256.817 37.8842 257.273 38.8982 258.133 39.4442C259.101 40.0572 260.586 40.3262 261.713 40.3602C261.805 40.3632 261.898 40.3632 261.991 40.3612C262.324 40.3552 262.655 40.3212 262.984 40.2712C263.282 40.2252 263.575 40.1492 263.874 40.1062C264.411 40.0292 264.716 40.0002 265.135 39.9452C265.433 39.9062 265.625 39.7822 265.764 39.4702C265.947 39.0602 265.52 38.6902 265.231 38.4952Z" fill="#52505A"/>
<path d="M275.878 31.0838C275.9 30.8358 275.883 30.6648 275.84 30.5448C276.169 30.4378 276.565 30.2098 276.659 30.1658C276.912 30.0468 277.149 29.9398 277.229 29.6468C277.387 29.0688 277.408 28.4978 277.392 27.9008C277.376 27.3108 277.01 26.8098 276.705 26.3328C276.472 25.9698 276.274 25.5728 275.953 25.2758C275.666 25.0108 275.279 25.0538 274.928 25.1218C274.76 25.1548 274.226 25.2358 274.236 25.4888C274.28 26.5308 273.901 27.8798 274.516 28.7998C274.84 29.2858 275.293 29.7188 275.357 30.3208C275.11 30.3598 274.806 30.4818 274.504 30.5458C273.405 30.7778 272.534 31.9948 271.668 32.6388C271.103 33.0588 271.059 33.8878 271.482 34.4358C271.607 34.5978 271.757 34.6938 271.923 34.7378C272.82 34.9778 274.192 33.7208 274.683 33.2438C275.275 32.6718 275.803 31.9288 275.878 31.0838Z" fill="#52505A"/>
<path d="M291.912 28.8163C291.565 28.6833 289.234 28.4483 288.401 28.3843C288.565 27.9933 288.702 27.5953 288.743 27.3733C288.829 26.9163 288.999 26.4193 289.111 25.9723C289.231 25.4933 289.259 24.9973 289.367 24.5163C289.448 24.1523 289.586 23.8113 289.635 23.4393C289.692 23.0053 289.507 22.8683 289.229 22.6613C289.136 22.5923 289.04 22.5203 288.942 22.4303C288.608 22.1203 288.301 21.9823 287.946 21.9823C286.973 21.9823 286.031 22.0823 285.09 22.3393C284.743 22.4333 284.346 22.7203 284.498 23.1313C284.589 23.3793 284.793 23.5803 284.843 23.5943C284.861 23.5983 284.909 23.6043 285.033 23.6043C285.417 23.6043 286.931 23.1913 287.058 23.7343C287.085 23.8523 287.076 23.9883 287.057 24.1293C287.036 24.1303 287.014 24.1313 286.997 24.1353C286.365 24.2763 285.194 23.9863 284.78 24.6253C284.688 24.7683 284.657 24.8803 284.686 24.9683C284.735 25.1183 284.972 25.2183 285.211 25.3073C285.419 25.3853 285.618 25.4233 285.818 25.4233C286.148 25.4233 286.472 25.3423 286.798 25.2903C286.751 25.5143 286.699 25.7373 286.647 25.9613C286.177 26.0823 285.63 26.0273 285.163 26.0523C284.89 26.0673 284.766 26.0733 284.648 26.3543C284.456 26.8103 284.615 27.0803 284.932 27.3693C285.235 27.6453 285.535 27.6803 285.762 27.6803C285.867 27.6803 285.973 27.6863 286.078 27.6843C286.043 27.7883 286.011 27.8923 285.988 27.9993C285.964 28.1093 285.885 28.2283 285.781 28.3463C285.275 28.3733 284.812 28.4333 284.372 28.5113C284.372 28.4563 284.37 28.4013 284.368 28.3503C284.351 27.8933 284.071 27.5213 283.784 27.1873C283.744 27.1403 283.626 27.0393 283.467 26.9143C283.666 26.6283 283.83 26.2543 283.889 26.0773C283.985 25.7883 283.892 25.5823 283.723 25.4263C284.015 25.2863 284.247 24.9743 284.254 24.7803C284.268 24.4243 283.689 24.0343 283.48 23.7913C283.446 23.7513 283.415 23.7183 283.382 23.6823C283.823 23.2973 284.158 22.8113 284.091 22.1743C284.081 22.0803 284.055 22.0553 284.05 22.0513C283.701 21.7703 282.834 21.0973 282.379 21.3893C282.143 21.5413 282.049 21.8193 281.951 22.1133C281.9 22.2663 281.847 22.4233 281.772 22.5743C281.724 22.6693 281.661 22.7733 281.595 22.8773C281.023 22.8623 280.472 23.0993 279.918 23.2093C279.897 22.9833 279.843 22.7693 279.725 22.5813C279.446 22.1393 279.13 21.9053 278.731 21.8443C278.626 21.8283 278.522 21.8203 278.423 21.8203C278.16 21.8203 277.945 21.8773 277.802 21.9863C277.608 22.1323 277.512 22.4393 277.367 22.9033L277.3 23.1163C277.081 23.7973 277.496 24.3993 277.541 25.0713C277.58 25.6593 277.549 26.2533 277.664 26.8343C277.763 27.3343 277.859 27.8313 277.907 28.3393C277.916 28.4373 277.923 29.2823 277.912 29.7133C277.899 29.7133 277.887 29.7143 277.871 29.7123C277.228 29.6493 276.947 30.5803 276.949 30.5883C277.044 30.9473 278.016 31.0663 278.315 31.1033C279.025 31.1913 279.739 31.0713 280.434 30.9323C281.782 30.6613 283.109 30.1113 284.482 30.0193C285.918 29.9233 287.346 30.1893 288.78 30.2003C289.034 30.2023 289.516 30.2793 289.536 30.2823L289.627 30.2963L289.601 30.3843C289.397 31.0803 287.961 32.0053 288.897 32.6503C289.029 32.7413 289.173 32.8823 289.339 32.9063C289.707 32.9593 291.088 32.3603 291.771 31.8733C292.427 31.4053 293.11 30.9563 293.516 30.2383C293.942 29.4803 292.453 29.0243 291.912 28.8163ZM279.655 27.7633C279.633 27.2083 279.63 26.6533 279.65 26.0993C279.65 26.1373 279.655 26.1753 279.671 26.2093C279.763 26.3973 280.12 26.4143 280.287 26.5123C280.505 26.6403 280.673 26.8343 280.827 27.0363C280.583 27.2543 279.942 27.6093 279.655 27.7633ZM281.72 25.8473C281.09 25.6453 280.494 25.6313 279.858 25.7953C279.744 25.8243 279.661 25.9503 279.651 26.0733C279.658 25.8753 279.671 25.6783 279.685 25.4813C280.167 25.4403 280.71 25.1873 281.131 25.0053C281.333 24.9173 281.529 24.8163 281.725 24.7163C281.799 24.7943 281.875 24.8743 281.95 24.9553C282.047 25.0593 282.137 25.1543 282.22 25.2403C282.053 25.4083 281.929 25.6303 281.84 25.7943C281.822 25.8263 281.808 25.8503 281.793 25.8773C281.769 25.8683 281.742 25.8543 281.72 25.8473ZM280.167 23.6153C280.195 23.6393 280.226 23.6633 280.258 23.6913C280.367 23.7833 280.53 23.8723 280.696 23.9583C280.67 23.9823 280.644 24.0123 280.618 24.0343C280.35 24.2693 280.013 24.4633 279.777 24.5963C279.847 24.1873 279.938 23.7363 279.922 23.3173C279.957 23.4393 280.036 23.5073 280.167 23.6153ZM279.806 29.5743C279.807 29.5453 279.808 29.5193 279.807 29.4853C279.798 29.3013 279.769 29.1203 279.742 28.9383C279.905 29.0003 280.085 29.0433 280.225 29.0623C280.315 29.0743 280.388 29.0773 280.43 29.0683C280.845 28.9883 281.179 28.6633 281.553 28.4883C281.63 28.4523 281.735 28.3853 281.849 28.3083C281.876 28.3413 281.903 28.3733 281.93 28.4063C282.103 28.6193 282.277 28.8303 282.418 28.9743C281.597 29.2013 280.772 29.4333 279.806 29.5743Z" fill="#52505A"/>
<path d="M289.275 33.3418C289.008 33.3418 288.612 33.4488 288.263 33.5438C287.509 33.7478 286.785 33.7238 286.012 33.7728C285.734 33.7898 285.459 33.8278 285.185 33.8728C285.228 33.8318 285.272 33.7918 285.314 33.7478C285.794 33.2488 286.363 32.8508 286.943 32.4768C287.179 32.3248 287.636 32.1628 287.619 31.8278C287.608 31.5998 287.378 31.1168 286.904 30.7548C286.405 30.3728 285.619 30.4528 285.027 30.4838C284.194 30.5268 283.388 30.7388 282.587 30.9578C281.105 31.3618 279.635 31.7538 278.116 31.9938C277.726 32.0558 277.165 32.1168 276.878 32.4188C276.687 32.6198 276.885 32.9038 276.885 32.9038C277.209 33.4268 278.135 33.6508 278.637 33.6758C279.647 33.7258 280.626 33.1978 281.523 32.8038C281.848 32.6608 284.505 31.2598 284.537 31.9968C284.552 32.3468 284.19 33.0398 283.917 33.2598C283.876 33.2928 283.821 33.3138 283.768 33.3358C283.511 33.0948 283.21 32.8938 282.869 32.8398C282.578 32.7938 282.008 32.9048 281.937 33.2728C281.918 33.3708 281.992 33.4618 282.078 33.5678C282.094 33.5868 282.109 33.6068 282.125 33.6268C282.288 33.8358 282.375 34.0798 282.46 34.3388C281.02 34.5248 280.012 34.7778 278.509 35.1538C278.085 35.2598 277.128 35.3958 276.693 35.3848C276.268 35.3738 275.485 35.2008 275.111 35.4908C274.637 35.8588 274.462 36.0318 274.512 36.4018C274.548 36.6718 274.776 36.7378 275.039 36.9368C275.268 37.1098 275.56 37.2848 275.798 37.2128C276.387 37.0358 277.163 36.8948 277.709 36.7738C278.447 36.6098 278.803 36.5948 279.552 36.4998C280.582 36.3688 281.617 36.2798 282.651 36.1778C282.645 36.3638 282.64 36.5268 282.64 36.6328C282.64 36.7708 282.648 36.9068 282.658 37.0648C282.674 37.3368 282.695 37.6758 282.677 38.1558C282.651 38.8618 282.594 38.9508 282.356 39.2118L282.315 39.2568C282.053 39.5478 281.529 39.7148 280.923 39.8888C279.71 40.2358 278.312 39.8648 277.069 39.9288C276.875 39.9388 276.707 39.9478 276.588 39.9478C276.335 39.9478 276.262 40.1388 276.264 40.1868C276.304 41.1448 277.796 41.4058 278.482 41.7048C279.28 42.0528 280.089 42.1988 280.926 42.4128C281.106 42.4588 281.291 42.5068 281.477 42.5478C282.649 42.8028 283.443 42.4238 284.102 41.4438C284.535 40.7998 284.505 40.0588 284.57 39.3178C284.667 38.2198 284.61 37.1018 284.552 36.0018C284.551 35.9888 284.553 35.9758 284.553 35.9628C285.798 35.7978 287.06 35.5938 288.312 35.6188C289.26 35.6368 290.227 36.1058 290.957 35.2538C291.618 34.4798 289.932 33.3418 289.275 33.3418Z" fill="#52505A"/>
<path d="M74.3395 55.78H72.4485L69.0195 50.553C68.8185 50.247 68.6785 50.017 68.6015 49.862H68.5785C68.6095 50.156 68.6245 50.605 68.6245 51.208V55.78H66.8555V47.461H68.8745L72.1755 52.525C72.3265 52.753 72.4655 52.98 72.5935 53.204H72.6165C72.5855 53.011 72.5695 52.63 72.5695 52.061V47.46H74.3385V55.78H74.3395Z" fill="#52505A"/>
<path d="M82.0744 55.7804H80.3394V54.9274H80.3164C79.9174 55.5924 79.3284 55.9254 78.5474 55.9254C77.9714 55.9254 77.5174 55.7624 77.1874 55.4354C76.8564 55.1084 76.6914 54.6724 76.6914 54.1274C76.6914 52.9744 77.3744 52.3094 78.7394 52.1314L80.3524 51.9164C80.3524 51.2664 80.0014 50.9414 79.2974 50.9414C78.5894 50.9414 77.9164 51.1524 77.2784 51.5734V50.1924C77.5334 50.0604 77.8824 49.9444 78.3254 49.8444C78.7674 49.7434 79.1714 49.6934 79.5354 49.6934C81.2294 49.6934 82.0764 50.5384 82.0764 52.2284V55.7804H82.0744ZM80.3514 53.3674V52.9674L79.2724 53.1064C78.6774 53.1834 78.3794 53.4524 78.3794 53.9124C78.3794 54.1214 78.4514 54.2924 78.5974 54.4254C78.7424 54.5584 78.9384 54.6254 79.1864 54.6254C79.5304 54.6254 79.8114 54.5064 80.0274 54.2684C80.2434 54.0314 80.3514 53.7314 80.3514 53.3674Z" fill="#52505A"/>
<path d="M88.1836 55.7111C87.9126 55.8541 87.5046 55.9261 86.9596 55.9261C85.6676 55.9261 85.0216 55.2551 85.0216 53.9131V51.1921H84.0586V49.8401H85.0216V48.5581L86.8486 48.0361V49.8401H88.1836V51.1921H86.8486V53.5941C86.8486 54.2131 87.0946 54.5221 87.5856 54.5221C87.7786 54.5221 87.9786 54.4661 88.1836 54.3541V55.7111Z" fill="#52505A"/>
<path d="M91.2162 48.8997C90.9072 48.8997 90.6542 48.8077 90.4562 48.6237C90.2592 48.4407 90.1602 48.2147 90.1602 47.9477C90.1602 47.6737 90.2592 47.4487 90.4562 47.2747C90.6532 47.1007 90.9072 47.0137 91.2162 47.0137C91.5292 47.0137 91.7842 47.1007 91.9792 47.2747C92.1752 47.4487 92.2722 47.6737 92.2722 47.9477C92.2722 48.2267 92.1742 48.4547 91.9792 48.6327C91.7832 48.8107 91.5292 48.8997 91.2162 48.8997ZM92.1212 55.7797H90.2872V49.8397H92.1212V55.7797Z" fill="#52505A"/>
<path d="M97.5639 55.9253C96.5739 55.9253 95.7949 55.6483 95.2289 55.0923C94.6619 54.5373 94.3789 53.7843 94.3789 52.8323C94.3789 51.8503 94.6729 51.0813 95.2609 50.5263C95.8489 49.9713 96.6439 49.6943 97.6459 49.6943C98.6319 49.6943 99.4049 49.9723 99.9659 50.5263C100.527 51.0813 100.807 51.8153 100.807 52.7283C100.807 53.7143 100.518 54.4943 99.9399 55.0663C99.3609 55.6393 98.5689 55.9253 97.5639 55.9253ZM97.6099 51.0993C97.1769 51.0993 96.8399 51.2483 96.6009 51.5463C96.3609 51.8443 96.2409 52.2653 96.2409 52.8113C96.2409 53.9523 96.7019 54.5233 97.6219 54.5233C98.4999 54.5233 98.9389 53.9373 98.9389 52.7653C98.9379 51.6543 98.4949 51.0993 97.6099 51.0993Z" fill="#52505A"/>
<path d="M108.801 55.7803H106.973V52.4793C106.973 51.5593 106.644 51.0983 105.987 51.0983C105.67 51.0983 105.409 51.2203 105.203 51.4633C104.998 51.7073 104.896 52.0163 104.896 52.3913V55.7793H103.062V49.8403H104.896V50.7803H104.919C105.356 50.0573 105.992 49.6953 106.828 49.6953C108.143 49.6953 108.801 50.5113 108.801 52.1433V55.7803Z" fill="#52505A"/>
<path d="M116.266 55.7804H114.531V54.9274H114.508C114.109 55.5924 113.52 55.9254 112.739 55.9254C112.163 55.9254 111.709 55.7624 111.379 55.4354C111.048 55.1084 110.883 54.6724 110.883 54.1274C110.883 52.9744 111.566 52.3094 112.931 52.1314L114.544 51.9164C114.544 51.2664 114.192 50.9414 113.488 50.9414C112.78 50.9414 112.107 51.1524 111.469 51.5734V50.1924C111.724 50.0604 112.073 49.9444 112.516 49.8444C112.958 49.7434 113.362 49.6934 113.726 49.6934C115.42 49.6934 116.267 50.5384 116.267 52.2284V55.7804H116.266ZM114.543 53.3674V52.9674L113.464 53.1064C112.869 53.1834 112.571 53.4524 112.571 53.9124C112.571 54.1214 112.643 54.2924 112.789 54.4254C112.934 54.5584 113.13 54.6254 113.378 54.6254C113.722 54.6254 114.003 54.5064 114.219 54.2684C114.435 54.0314 114.543 53.7314 114.543 53.3674Z" fill="#52505A"/>
<path d="M120.619 55.7803H118.785V46.9854H120.619V55.7803Z" fill="#52505A"/>
<path d="M133.598 48.9869H131.225V55.7809H129.345V48.9869H126.984V47.4609H133.598V48.9869Z" fill="#52505A"/>
<path d="M140.551 55.7804H138.816V54.9274H138.793C138.394 55.5924 137.805 55.9254 137.024 55.9254C136.448 55.9254 135.994 55.7624 135.664 55.4354C135.333 55.1084 135.168 54.6724 135.168 54.1274C135.168 52.9744 135.851 52.3094 137.216 52.1314L138.829 51.9164C138.829 51.2664 138.478 50.9414 137.774 50.9414C137.066 50.9414 136.393 51.1524 135.755 51.5734V50.1924C136.01 50.0604 136.359 49.9444 136.802 49.8444C137.245 49.7434 137.648 49.6934 138.012 49.6934C139.706 49.6934 140.553 50.5384 140.553 52.2284V55.7804H140.551ZM138.828 53.3674V52.9674L137.749 53.1064C137.153 53.1834 136.856 53.4524 136.856 53.9124C136.856 54.1214 136.928 54.2924 137.074 54.4254C137.219 54.5584 137.415 54.6254 137.663 54.6254C138.007 54.6254 138.288 54.5064 138.504 54.2684C138.72 54.0314 138.828 53.7314 138.828 53.3674Z" fill="#52505A"/>
<path d="M144.001 48.8997C143.692 48.8997 143.438 48.8077 143.241 48.6237C143.044 48.4407 142.945 48.2147 142.945 47.9477C142.945 47.6737 143.044 47.4487 143.241 47.2747C143.438 47.1007 143.692 47.0137 144.001 47.0137C144.314 47.0137 144.568 47.1007 144.764 47.2747C144.96 47.4487 145.057 47.6737 145.057 47.9477C145.057 48.2267 144.959 48.4547 144.764 48.6327C144.568 48.8107 144.314 48.8997 144.001 48.8997ZM144.906 55.7797H143.072V49.8397H144.906V55.7797Z" fill="#52505A"/>
<path d="M156.123 49.8398L154.412 55.7809H152.486L151.61 52.2998C151.552 52.0678 151.519 51.8148 151.511 51.5398H151.476C151.449 51.8418 151.41 52.0868 151.36 52.2768L150.42 55.7809H148.517L146.84 49.8398H148.708L149.526 53.7159C149.565 53.8979 149.593 54.1179 149.613 54.3769H149.648C149.668 54.1059 149.702 53.8779 149.753 53.6919L150.774 49.8398H152.52L153.437 53.7159C153.46 53.8119 153.487 54.0369 153.518 54.3889H153.559C153.578 54.1649 153.609 53.9409 153.652 53.7159L154.423 49.8398H156.123Z" fill="#52505A"/>
<path d="M163.004 55.7804H161.269V54.9274H161.246C160.847 55.5924 160.258 55.9254 159.477 55.9254C158.901 55.9254 158.447 55.7624 158.117 55.4354C157.786 55.1084 157.621 54.6724 157.621 54.1274C157.621 52.9744 158.304 52.3094 159.669 52.1314L161.282 51.9164C161.282 51.2664 160.931 50.9414 160.227 50.9414C159.519 50.9414 158.846 51.1524 158.208 51.5734V50.1924C158.463 50.0604 158.812 49.9444 159.255 49.8444C159.697 49.7434 160.101 49.6934 160.465 49.6934C162.159 49.6934 163.006 50.5384 163.006 52.2284V55.7804H163.004ZM161.281 53.3674V52.9674L160.202 53.1064C159.607 53.1834 159.309 53.4524 159.309 53.9124C159.309 54.1214 159.381 54.2924 159.527 54.4254C159.672 54.5584 159.868 54.6254 160.116 54.6254C160.46 54.6254 160.741 54.5064 160.957 54.2684C161.173 54.0314 161.281 53.7314 161.281 53.3674Z" fill="#52505A"/>
<path d="M171.261 55.7803H169.434V52.4793C169.434 51.5593 169.105 51.0983 168.448 51.0983C168.131 51.0983 167.87 51.2203 167.664 51.4633C167.46 51.7073 167.357 52.0163 167.357 52.3913V55.7793H165.523V49.8403H167.357V50.7803H167.38C167.817 50.0573 168.453 49.6953 169.289 49.6953C170.604 49.6953 171.262 50.5113 171.262 52.1433V55.7803H171.261Z" fill="#52505A"/>
<path d="M185.088 52.1779C185.088 54.6759 183.924 55.9259 181.595 55.9259C179.337 55.9259 178.207 54.7059 178.207 52.2649V47.4619H180.087V52.2889C180.087 53.6349 180.613 54.3079 181.665 54.3079C182.698 54.3079 183.214 53.6579 183.214 52.3589V47.4629H185.088V52.1779Z" fill="#52505A"/>
<path d="M193.527 55.7803H191.7V52.4793C191.7 51.5593 191.371 51.0983 190.714 51.0983C190.397 51.0983 190.136 51.2203 189.93 51.4633C189.726 51.7073 189.623 52.0163 189.623 52.3913V55.7793H187.789V49.8403H189.623V50.7803H189.646C190.083 50.0573 190.719 49.6953 191.555 49.6953C192.87 49.6953 193.528 50.5113 193.528 52.1433V55.7803H193.527Z" fill="#52505A"/>
<path d="M196.974 48.8997C196.665 48.8997 196.412 48.8077 196.214 48.6237C196.017 48.4407 195.918 48.2147 195.918 47.9477C195.918 47.6737 196.017 47.4487 196.214 47.2747C196.411 47.1007 196.665 47.0137 196.974 47.0137C197.287 47.0137 197.542 47.1007 197.737 47.2747C197.933 47.4487 198.03 47.6737 198.03 47.9477C198.03 48.2267 197.932 48.4547 197.737 48.6327C197.541 48.8107 197.287 48.8997 196.974 48.8997ZM197.879 55.7797H196.045V49.8397H197.879V55.7797Z" fill="#52505A"/>
<path d="M206.147 49.8398L203.937 55.7809H201.848L199.742 49.8398H201.703L202.735 53.5008C202.851 53.9149 202.919 54.2669 202.938 54.5569H202.962C202.989 54.2819 203.06 53.9419 203.176 53.5359L204.232 49.8398H206.147Z" fill="#52505A"/>
<path d="M213.339 53.3323H209.464C209.525 54.1943 210.069 54.6263 211.094 54.6263C211.748 54.6263 212.322 54.4713 212.817 54.1623V55.4853C212.268 55.7793 211.554 55.9263 210.676 55.9263C209.716 55.9263 208.972 55.6603 208.442 55.1283C207.912 54.5963 207.648 53.8553 207.648 52.9033C207.648 51.9173 207.934 51.1363 208.507 50.5593C209.079 49.9833 209.783 49.6953 210.619 49.6953C211.485 49.6953 212.155 49.9523 212.629 50.4673C213.103 50.9823 213.34 51.6803 213.34 52.5613V53.3323H213.339ZM211.639 52.2073C211.639 51.3563 211.295 50.9313 210.607 50.9313C210.313 50.9313 210.059 51.0533 209.844 51.2963C209.629 51.5403 209.499 51.8433 209.452 52.2073H211.639Z" fill="#52505A"/>
<path d="M219.371 51.4933C219.151 51.3733 218.894 51.3133 218.6 51.3133C218.201 51.3133 217.89 51.4593 217.666 51.7513C217.442 52.0433 217.33 52.4413 217.33 52.9433V55.7803H215.496V49.8404H217.33V50.9424H217.353C217.643 50.1384 218.165 49.7354 218.92 49.7354C219.113 49.7354 219.264 49.7584 219.372 49.8054V51.4933H219.371Z" fill="#52505A"/>
<path d="M220.906 55.6243V54.1393C221.208 54.3213 221.509 54.4563 221.809 54.5453C222.108 54.6343 222.392 54.6783 222.659 54.6783C222.984 54.6783 223.24 54.6343 223.428 54.5453C223.615 54.4563 223.709 54.3213 223.709 54.1393C223.709 54.0233 223.666 53.9273 223.581 53.8493C223.496 53.7723 223.387 53.7043 223.253 53.6463C223.12 53.5883 222.974 53.5363 222.815 53.4893C222.656 53.4433 222.504 53.3913 222.357 53.3333C222.121 53.2443 221.913 53.1483 221.734 53.0463C221.554 52.9443 221.403 52.8253 221.282 52.6893C221.16 52.5543 221.067 52.3973 221.003 52.2193C220.939 52.0413 220.907 51.8303 220.907 51.5873C220.907 51.2543 220.98 50.9683 221.125 50.7283C221.27 50.4883 221.463 50.2923 221.705 50.1393C221.947 49.9863 222.223 49.8743 222.535 49.8023C222.846 49.7303 223.17 49.6953 223.507 49.6953C223.77 49.6953 224.037 49.7153 224.308 49.7563C224.578 49.7973 224.845 49.8563 225.109 49.9333V51.3493C224.877 51.2143 224.628 51.1123 224.363 51.0443C224.098 50.9763 223.838 50.9423 223.583 50.9423C223.463 50.9423 223.35 50.9533 223.244 50.9743C223.138 50.9953 223.044 51.0263 222.963 51.0673C222.882 51.1083 222.818 51.1603 222.772 51.2243C222.725 51.2883 222.702 51.3603 222.702 51.4413C222.702 51.5493 222.737 51.6423 222.806 51.7203C222.876 51.7973 222.967 51.8643 223.079 51.9203C223.191 51.9763 223.316 52.0263 223.453 52.0713C223.59 52.1163 223.727 52.1613 223.862 52.2083C224.105 52.2933 224.326 52.3863 224.523 52.4863C224.72 52.5873 224.889 52.7053 225.031 52.8403C225.172 52.9753 225.28 53.1343 225.356 53.3163C225.432 53.4983 225.47 53.7153 225.47 53.9663C225.47 54.3183 225.393 54.6183 225.241 54.8683C225.088 55.1173 224.885 55.3213 224.632 55.4773C224.379 55.6343 224.086 55.7483 223.756 55.8193C223.425 55.8903 223.082 55.9263 222.726 55.9263C222.069 55.9253 221.464 55.8253 220.906 55.6243Z" fill="#52505A"/>
<path d="M228.521 48.8997C228.212 48.8997 227.958 48.8077 227.761 48.6237C227.564 48.4407 227.465 48.2147 227.465 47.9477C227.465 47.6737 227.564 47.4487 227.761 47.2747C227.958 47.1007 228.212 47.0137 228.521 47.0137C228.834 47.0137 229.088 47.1007 229.284 47.2747C229.48 47.4487 229.577 47.6737 229.577 47.9477C229.577 48.2267 229.479 48.4547 229.284 48.6327C229.089 48.8107 228.834 48.8997 228.521 48.8997ZM229.427 55.7797H227.593V49.8397H229.427V55.7797Z" fill="#52505A"/>
<path d="M235.629 55.7111C235.358 55.8541 234.95 55.9261 234.405 55.9261C233.113 55.9261 232.467 55.2551 232.467 53.9131V51.1921H231.504V49.8401H232.467V48.5581L234.294 48.0361V49.8401H235.629V51.1921H234.294V53.5941C234.294 54.2131 234.54 54.5221 235.031 54.5221C235.224 54.5221 235.424 54.4661 235.629 54.3541V55.7111Z" fill="#52505A"/>
<path d="M243.386 49.8398L240.973 56.2558C240.393 57.7988 239.519 58.5708 238.35 58.5708C237.905 58.5708 237.54 58.5208 237.254 58.4198V56.9578C237.497 57.1008 237.762 57.1728 238.048 57.1728C238.52 57.1728 238.849 56.9498 239.034 56.5058L239.347 55.7688L236.934 49.8398H238.964L240.072 53.4538C240.142 53.6788 240.195 53.9428 240.234 54.2488H240.257C240.292 54.0248 240.356 53.7638 240.449 53.4658L241.569 49.8398H243.386Z" fill="#52505A"/>
<path d="M252.372 55.9253C251.382 55.9253 250.603 55.6483 250.038 55.0923C249.471 54.5373 249.188 53.7843 249.188 52.8323C249.188 51.8503 249.482 51.0813 250.069 50.5263C250.657 49.9713 251.452 49.6943 252.454 49.6943C253.44 49.6943 254.213 49.9723 254.774 50.5263C255.335 51.0813 255.615 51.8153 255.615 52.7283C255.615 53.7143 255.326 54.4943 254.748 55.0663C254.169 55.6393 253.377 55.9253 252.372 55.9253ZM252.418 51.0993C251.985 51.0993 251.648 51.2483 251.409 51.5463C251.169 51.8443 251.049 52.2653 251.049 52.8113C251.049 53.9523 251.51 54.5233 252.43 54.5233C253.308 54.5233 253.747 53.9373 253.747 52.7653C253.746 51.6543 253.303 51.0993 252.418 51.0993Z" fill="#52505A"/>
<path d="M261.746 48.3887C261.51 48.2957 261.284 48.2497 261.067 48.2497C260.479 48.2497 260.185 48.5687 260.185 49.2067V49.8387H261.543V51.1907H260.185V55.7797H258.357V51.1907H257.359V49.8397H258.357V49.1027C258.357 48.4257 258.577 47.8807 259.018 47.4667C259.459 47.0527 260.059 46.8457 260.816 46.8457C261.187 46.8457 261.497 46.8847 261.744 46.9617V48.3887H261.746Z" fill="#52505A"/>
<path d="M275.338 55.7799H273.296L272.704 53.9289H269.745L269.159 55.7799H267.129L270.157 47.4609H272.379L275.338 55.7799ZM272.275 52.4909L271.381 49.6949C271.315 49.4859 271.269 49.2369 271.242 48.9469H271.195C271.175 49.1909 271.127 49.4329 271.05 49.6719L270.145 52.4919H272.275V52.4909Z" fill="#52505A"/>
<path d="M281.141 51.4933C280.921 51.3733 280.663 51.3133 280.37 51.3133C279.971 51.3133 279.66 51.4593 279.436 51.7513C279.212 52.0433 279.1 52.4413 279.1 52.9433V55.7803H277.266V49.8404H279.1V50.9424H279.123C279.413 50.1384 279.935 49.7354 280.69 49.7354C280.883 49.7354 281.034 49.7584 281.142 49.8054V51.4933H281.141Z" fill="#52505A"/>
<path d="M286.656 55.7111C286.385 55.8541 285.977 55.9261 285.432 55.9261C284.14 55.9261 283.494 55.2551 283.494 53.9131V51.1921H282.531V49.8401H283.494V48.5581L285.322 48.0361V49.8401H286.657V51.1921H285.322V53.5941C285.322 54.2131 285.568 54.5221 286.059 54.5221C286.252 54.5221 286.452 54.4661 286.657 54.3541V55.7111H286.656Z" fill="#52505A"/>
<path d="M288.367 55.6243V54.1393C288.669 54.3213 288.97 54.4563 289.269 54.5453C289.568 54.6343 289.852 54.6783 290.119 54.6783C290.444 54.6783 290.7 54.6343 290.888 54.5453C291.076 54.4563 291.169 54.3213 291.169 54.1393C291.169 54.0233 291.126 53.9273 291.041 53.8493C290.956 53.7723 290.847 53.7043 290.713 53.6463C290.58 53.5883 290.434 53.5363 290.275 53.4893C290.117 53.4433 289.964 53.3913 289.817 53.3333C289.581 53.2443 289.373 53.1483 289.194 53.0463C289.014 52.9443 288.863 52.8253 288.742 52.6893C288.62 52.5543 288.527 52.3973 288.463 52.2193C288.399 52.0413 288.367 51.8303 288.367 51.5873C288.367 51.2543 288.44 50.9683 288.585 50.7283C288.73 50.4883 288.923 50.2923 289.165 50.1393C289.407 49.9863 289.683 49.8743 289.995 49.8023C290.306 49.7303 290.63 49.6953 290.967 49.6953C291.23 49.6953 291.497 49.7153 291.768 49.7563C292.038 49.7973 292.305 49.8563 292.569 49.9333V51.3493C292.337 51.2143 292.088 51.1123 291.823 51.0443C291.558 50.9763 291.298 50.9423 291.043 50.9423C290.923 50.9423 290.81 50.9533 290.704 50.9743C290.598 50.9953 290.504 51.0263 290.423 51.0673C290.342 51.1083 290.278 51.1603 290.232 51.2243C290.185 51.2883 290.162 51.3603 290.162 51.4413C290.162 51.5493 290.197 51.6423 290.266 51.7203C290.336 51.7973 290.427 51.8643 290.539 51.9203C290.651 51.9763 290.776 52.0263 290.913 52.0713C291.05 52.1163 291.187 52.1613 291.322 52.2083C291.565 52.2933 291.786 52.3863 291.983 52.4863C292.18 52.5873 292.349 52.7053 292.491 52.8403C292.632 52.9753 292.74 53.1343 292.816 53.3163C292.892 53.4983 292.929 53.7153 292.929 53.9663C292.929 54.3183 292.852 54.6183 292.7 54.8683C292.547 55.1173 292.344 55.3213 292.091 55.4773C291.838 55.6343 291.545 55.7483 291.215 55.8193C290.884 55.8903 290.541 55.9263 290.185 55.9263C289.53 55.9253 288.924 55.8253 288.367 55.6243Z" fill="#52505A"/>
<path d="M13.9413 20.4481C13.9483 20.4481 13.9543 20.4471 13.9603 20.4471H38.4892C38.4962 20.4471 38.5022 20.4481 38.5082 20.4481C39.6312 20.4481 40.5422 19.5371 40.5422 18.4141C40.5422 17.2931 39.6352 16.3841 38.5152 16.3801V16.3781H33.2212V14.4571H33.2192C33.2192 14.4461 33.2212 14.4351 33.2212 14.4241C33.2212 13.2211 32.2462 12.2451 31.0422 12.2451C29.8382 12.2451 28.8632 13.2201 28.8632 14.4241C28.8632 14.4351 28.8642 14.4461 28.8652 14.4571V16.3781H23.5842V14.4761C23.5842 14.4671 23.5852 14.4591 23.5852 14.4501C23.5852 13.2471 22.6102 12.2711 21.4062 12.2711C20.2032 12.2711 19.2272 13.2461 19.2272 14.4501C19.2272 14.4521 19.2272 14.4541 19.2272 14.4561H19.2262V16.3771H13.9363V16.3791C12.8143 16.3811 11.9062 17.2911 11.9062 18.4131C11.9072 19.5381 12.8183 20.4481 13.9413 20.4481Z" fill="#52505A"/>
<path d="M41.7749 47.4286V47.4256H25.7619V45.5496C25.7619 44.9336 25.9179 44.8026 26.4959 44.8026H29.5719C30.7179 44.8026 31.1849 44.1396 31.1849 43.3056V42.0586C31.1849 41.2236 30.5079 40.7666 29.6739 40.7666H23.3179C21.9549 40.7666 21.4499 41.5906 21.4499 42.4996V47.4256H10.8949C10.8789 47.4256 10.8629 47.4236 10.8469 47.4236C9.66794 47.4236 8.71094 48.3796 8.71094 49.5596C8.71094 50.7386 9.66694 51.6956 10.8469 51.6956C10.8509 51.6956 10.8539 51.6956 10.8579 51.6956V51.6996H41.7289C41.7439 51.6996 41.7579 51.7016 41.7729 51.7016C42.9519 51.7016 43.9089 50.7456 43.9089 49.5656C43.9089 48.3856 42.9539 47.4296 41.7749 47.4286Z" fill="#52505A"/>
<path d="M34.2062 53.6339V53.6279H18.0802V53.6329C16.8812 53.6349 15.9102 54.6069 15.9102 55.8069C15.9102 57.0079 16.8832 57.9809 18.0842 57.9809C18.1142 57.9809 18.1442 57.9779 18.1742 57.9759H34.1012C34.1312 57.9769 34.1612 57.9809 34.1912 57.9809C35.3922 57.9809 36.3652 57.0079 36.3652 55.8069C36.3652 54.6109 35.4002 53.6409 34.2062 53.6339Z" fill="#52505A"/>
<path d="M47.4836 34.7667C47.4676 34.7667 47.4516 34.7687 47.4356 34.7687H46.0006V28.0817C46.0006 24.6717 43.9956 22.4317 40.7066 22.4317L27.5006 22.4307V24.7027C27.5006 27.2907 26.0096 28.9157 22.2376 28.9157C20.7416 28.9157 20.4356 29.4637 20.4356 29.9997L20.4136 31.1727C20.4136 32.1027 20.8226 32.3987 22.5206 32.3987C22.5206 32.3987 28.2516 32.4007 28.2676 32.4007C30.8586 32.4007 31.1936 31.9877 31.1936 29.5717L31.1906 26.5027L34.8356 26.5007V29.8787C34.8356 33.3587 33.8126 35.4387 30.3176 35.4387L19.9196 35.3907C17.6326 35.3907 16.9246 33.7287 16.9246 32.5037V29.2667C16.9246 26.7547 18.1946 25.8837 20.2646 25.8837C22.5216 25.8837 23.6776 25.2847 23.6776 23.6927V22.4327C23.6776 22.4327 8.99762 22.4327 8.99662 22.4327C8.99562 22.4327 8.99562 22.4327 8.99562 22.4327H8.98662C7.86762 22.4377 6.96162 23.3457 6.96162 24.4667C6.96162 25.5867 7.86762 26.4947 8.98662 26.4997V26.5007H13.1186V28.4937H5.85862C5.85662 28.4937 5.85362 28.4937 5.85162 28.4937C4.72862 28.4937 3.81762 29.4047 3.81762 30.5277C3.81762 31.6487 4.72462 32.5577 5.84562 32.5617V32.5637H13.1176V34.7707H5.09762C5.08162 34.7707 5.06562 34.7687 5.04962 34.7687C3.92662 34.7687 3.01562 35.6797 3.01562 36.8027C3.01562 37.9257 3.92662 38.8367 5.04962 38.8367C5.05162 38.8367 5.05262 38.8367 5.05462 38.8367V38.8407L33.2846 38.8347C37.5356 38.8347 39.0606 35.0707 39.0606 31.1467V26.5037H41.7496V37.0747C41.7496 37.7857 42.3626 38.8357 43.3326 38.8357L47.5066 38.8407V38.8367C48.6196 38.8247 49.5186 37.9197 49.5186 36.8037C49.5176 35.6767 48.6066 34.7667 47.4836 34.7667Z" fill="#52505A"/>
<path d="M17.3684 42.8242V42.5581C17.3684 41.8811 17.5224 40.9281 17.7954 40.8691H6.99647V40.8731C6.99247 40.8731 6.98747 40.8721 6.98347 40.8721C5.73947 40.8721 4.73047 41.8811 4.73047 43.1252C4.73047 44.3692 5.73947 45.3782 6.98347 45.3782C7.00147 45.3782 7.01847 45.3762 7.03547 45.3752H17.9424C17.2804 45.2322 17.3684 43.5302 17.3684 42.8242Z" fill="#52505A"/>
<path d="M45.4387 40.8721C45.4347 40.8721 45.4297 40.8731 45.4257 40.8731V40.8691H34.6517C35.0017 41.0061 35.0547 41.8821 35.0547 42.5581V42.8241C35.0547 43.5302 35.1357 45.2312 34.4727 45.3762H45.3867C45.4047 45.3762 45.4217 45.3792 45.4387 45.3792C46.6827 45.3792 47.6917 44.3702 47.6917 43.1261C47.6917 41.8811 46.6827 40.8721 45.4387 40.8721Z" fill="#52505A"/>
</g>
<defs>
<filter id="filter0_d" x="0" y="0" width="309" height="71" filterUnits="userSpaceOnUse" color-interpolation-filters="sRGB">
<feFlood flood-opacity="0" result="BackgroundImageFix"/>
<feColorMatrix in="SourceAlpha" type="matrix" values="0 0 0 0 0 0 0 0 0 0 0 0 0 0 0 0 0 0 127 0"/>
<feOffset dx="1" dy="1"/>
<feColorMatrix type="matrix" values="0 0 0 0 1 0 0 0 0 1 0 0 0 0 1 0 0 0 1 0"/>
<feBlend mode="normal" in2="BackgroundImageFix" result="effect1_dropShadow"/>
<feBlend mode="normal" in="SourceGraphic" in2="effect1_dropShadow" result="shape"/>
</filter>
</defs>
</svg>
